<svg width="35" height="15" viewBox="0 0 35 15" fill="none" xmlns="http://www.w3.org/2000/svg">
<rect width="35" height="15" rx="7.5" fill="#DBDBDB"/>
<path d="M16.6769 3.6698L17.222 3.16144C17.4527 2.94619 17.8259 2.94619 18.0542 3.16144L22.8269 7.61072C23.0577 7.82597 23.0577 8.17403 22.8269 8.38699L18.0542 12.8386C17.8235 13.0538 17.4503 13.0538 17.222 12.8386L16.6769 12.3302C16.4437 12.1127 16.4486 11.7577 16.6868 11.5448L19.6451 8.91596H12.5892C12.2627 8.91596 12 8.67094 12 8.36638V7.63362C12 7.32906 12.2627 7.08404 12.5892 7.08404H19.6451L16.6868 4.45523C16.4462 4.24227 16.4412 3.88734 16.6769 3.6698Z" fill="black"/>
</svg>
