<svg width="37" height="37" viewBox="0 0 37 37" fill="none" xmlns="http://www.w3.org/2000/svg">
<path d="M11.5518 13.2405C13.8512 19.5132 16.2317 22.0159 22.2875 24.6816L19.663 28.3674C12.7091 25.0382 9.24546 19.4261 7.6142 15.0466L11.5518 13.2405Z" fill="#FF8A00"/>
<path d="M13.4808 4.58045C14.7103 4.57565 15.6452 5.59873 15.5614 6.75722C15.4295 8.58029 15.5699 9.8956 15.948 11.526C16.1557 12.4216 15.6858 13.3311 14.9391 13.917C13.9327 14.7067 13.1638 15.7129 12.5527 16.579C11.7056 17.7796 8.79073 17.6933 8.14609 16.3854C6.82126 13.6975 5.92344 8.74555 7.85806 5.39988C8.16194 4.87435 8.77381 4.59886 9.40784 4.59638L13.4808 4.58045Z" fill="#FF8A00"/>
<path d="M32.1446 24.4709C32.2975 23.3187 31.3345 22.3192 30.1066 22.2584C28.1744 22.1628 26.8086 21.873 25.1403 21.3224C24.2238 21.02 23.2112 21.3512 22.5055 21.9808C21.5544 22.8294 20.4043 23.4293 19.4203 23.8981C18.0565 24.5478 17.7966 27.2911 19.0939 28.0527C21.76 29.6181 26.8575 31.0554 30.607 29.6439C31.196 29.4222 31.5592 28.8817 31.638 28.2875L32.1446 24.4709Z" fill="#FF8A00"/>
</svg>
