<svg width="173" height="76" viewBox="0 0 173 76" fill="none" xmlns="http://www.w3.org/2000/svg">
<g clip-path="url(#clip0_2933_407)">
<path d="M51.468 62.5761C50.8732 67.2278 48.6862 71.4837 46.3531 75.5833C46.2759 75.7229 46.1965 75.8604 46.1152 76H21.866C21.3755 75.8729 20.8914 75.7333 20.4093 75.5833C17.6705 74.7509 15.0848 73.4811 12.7527 71.8232C3.83141 65.4071 0.398498 53.283 1.94907 42.4193C2.91322 35.6699 5.88067 28.7787 11.6591 25.1436C14.7101 23.2209 18.6292 22.5959 22.1414 23.3104C22.2333 23.3271 22.3251 23.3479 22.419 23.3667C25.4407 24.0458 28.1327 25.7332 29.6646 28.4517C32.4191 33.3367 30.7789 39.3883 29.4246 44.8254C28.0744 50.2625 27.3418 56.7703 31.261 60.7804C29.9671 56.9786 31.2443 52.4435 34.3349 49.8729C36.6701 47.9335 39.9214 47.2064 42.8868 47.8085C43.1706 47.8689 43.4503 47.9376 43.7257 48.021C44.3915 48.2156 45.0334 48.4839 45.6394 48.8209C50.2617 51.3978 52.1337 57.3327 51.468 62.5761Z" fill="#389520"/>
<path d="M37.0896 75.5834C37.7616 75.7396 38.4356 75.8771 39.1138 76H35.4473C34.9672 75.8708 34.4893 75.7333 34.0157 75.5834C32.9743 75.2584 31.949 74.8855 30.9396 74.4647C26.8912 72.769 23.1619 70.2234 20.3405 66.8361C18.9607 65.1951 17.8339 63.3576 16.9974 61.3845C16.0903 59.1544 15.5139 56.8041 15.2862 54.408C14.7749 49.4917 15.2966 44.44 16.2712 39.6112C17.2769 34.6064 18.9003 29.7455 21.1043 25.1395C21.3694 24.5874 21.6434 24.0389 21.9266 23.4938C21.946 23.4489 21.9755 23.409 22.0128 23.3773C22.05 23.3455 22.094 23.3226 22.1415 23.3104C22.2378 23.2918 22.3376 23.312 22.419 23.3667C22.5168 23.4227 22.5892 23.514 22.6215 23.6217C22.6537 23.7295 22.6432 23.8455 22.5922 23.9458C20.3198 28.3696 18.5972 33.0539 17.4627 37.8947C16.3526 42.6172 15.7223 47.5585 15.9372 52.4144C16.1418 56.9515 17.3293 61.4137 20.0233 65.1238C22.4837 68.511 25.8811 71.1816 29.6396 73.0002C32.0184 74.1364 34.5174 75.0028 37.0896 75.5834Z" fill="white"/>
<path d="M45.1365 76H44.0555C43.9345 75.8625 43.8176 75.7229 43.7029 75.5834C41.2406 72.5969 39.5725 69.0389 38.853 65.2383C37.9791 60.4955 38.6589 55.5978 40.7916 51.2707C41.3867 50.0574 42.0878 48.8988 42.8868 47.8085C43.1706 47.8689 43.4503 47.9376 43.7258 48.021C41.624 50.8007 40.2103 54.0371 39.6 57.4661C39.0556 60.6791 39.2367 63.973 40.1299 67.1073C41.0231 70.2417 42.6059 73.1374 44.763 75.5834C44.8839 75.7229 45.0092 75.8625 45.1365 76Z" fill="white"/>
<path d="M142.517 72.4572C142.674 73.6848 143.251 74.8081 143.867 75.89C143.888 75.9269 143.908 75.9632 143.93 76H150.33C150.459 75.9665 150.587 75.9296 150.714 75.89C151.437 75.6704 152.119 75.3352 152.735 74.8977C155.089 73.2043 155.995 70.0046 155.586 67.1374C155.332 65.3561 154.549 63.5374 153.024 62.5781C152.195 62.0746 151.207 61.9018 150.257 62.0943C150.233 62.0987 150.209 62.1041 150.184 62.1091C149.788 62.1854 149.413 62.3445 149.084 62.5758C148.754 62.8071 148.477 63.1054 148.272 63.4511C147.545 64.7404 147.977 66.3375 148.335 67.7725C148.691 69.2074 148.885 70.9249 147.85 71.9833C148.002 71.5407 148.033 71.0657 147.939 70.6073C147.846 70.1489 147.632 69.7235 147.32 69.3749C147.008 69.0263 146.608 68.7671 146.162 68.6238C145.716 68.4805 145.239 68.4584 144.782 68.5597C144.707 68.5757 144.633 68.5938 144.561 68.6158C144.385 68.6672 144.215 68.738 144.055 68.8269C142.836 69.507 142.342 71.0734 142.517 72.4572Z" fill="#389520"/>
<path d="M146.312 75.89C146.135 75.9313 145.957 75.9676 145.778 76H146.745C146.872 75.9659 146.998 75.9296 147.123 75.89C147.398 75.8043 147.669 75.7059 147.935 75.5948C149.015 75.1569 149.975 74.4664 150.732 73.5815C151.096 73.1484 151.394 72.6634 151.615 72.1427C151.854 71.5541 152.006 70.9338 152.066 70.3015C152.176 68.9941 152.088 67.6777 151.806 66.3963C151.541 65.0755 151.112 63.7926 150.531 62.577C150.461 62.4313 150.388 62.2865 150.314 62.1426C150.309 62.1308 150.301 62.1203 150.291 62.1119C150.281 62.1035 150.27 62.0975 150.257 62.0943C150.232 62.0893 150.205 62.0947 150.184 62.1091C150.158 62.1239 150.139 62.148 150.13 62.1764C150.122 62.2048 150.125 62.2355 150.138 62.2619C150.738 63.4295 151.192 64.6657 151.492 65.9433C151.8 67.1964 151.936 68.4856 151.894 69.7753C151.872 70.9748 151.497 72.1413 150.816 73.1296C150.153 74.0196 149.282 74.7334 148.278 75.2083C147.65 75.5082 146.991 75.7368 146.312 75.89Z" fill="white"/>
<path d="M144.188 76H144.474C144.505 75.9637 144.536 75.9269 144.567 75.8901C145.216 75.1019 145.657 74.1628 145.847 73.1598C146.077 71.9081 145.898 70.6155 145.335 69.4735C145.178 69.1533 144.993 68.8475 144.782 68.5598C144.707 68.5757 144.633 68.5938 144.561 68.6158C145.115 69.3495 145.488 70.2036 145.649 71.1086C145.793 71.9565 145.745 72.8259 145.51 73.6531C145.274 74.4803 144.856 75.2445 144.287 75.8901C144.255 75.9269 144.222 75.9637 144.188 76Z" fill="white"/>
<path d="M84.8326 44.269H64.8028L64.5904 38.1214C64.5813 37.855 64.63 37.5896 64.7334 37.3438C64.8368 37.0979 64.9923 36.8773 65.1892 36.6972C65.3862 36.517 65.6199 36.3816 65.8743 36.3003C66.1287 36.219 66.3977 36.1936 66.6629 36.226L78.3189 37.6508H78.3203C80.0484 37.6554 81.7041 38.3437 82.9247 39.5647C84.1454 40.7857 84.8315 42.4399 84.8326 44.1649V44.269Z" fill="#0058BF"/>
<path d="M70.461 31.2689L67.8574 31.775C67.7654 31.7929 67.6699 31.7735 67.5922 31.7212C67.5144 31.6689 67.4606 31.5878 67.4427 31.4959C67.4248 31.404 67.4441 31.3088 67.4966 31.2311C67.549 31.1535 67.6302 31.0998 67.7222 31.0819L70.3258 30.5758C70.3714 30.5669 70.4183 30.5671 70.4638 30.5763C70.5093 30.5856 70.5526 30.6036 70.5911 30.6296C70.6296 30.6555 70.6626 30.6887 70.6883 30.7274C70.7139 30.766 70.7317 30.8093 70.7406 30.8548C70.7494 30.9003 70.7493 30.9471 70.74 30.9926C70.7308 31.038 70.7127 31.0812 70.6867 31.1196C70.6607 31.1581 70.6274 31.191 70.5887 31.2166C70.55 31.2422 70.5066 31.26 70.461 31.2689Z" fill="white"/>
<path d="M112.379 30.6911L105.492 33.8159L106.397 37.2137C108.143 43.7752 108.606 50.611 107.761 57.3475L112.796 58.3972L116.97 47.7731L115.509 35.6907L112.379 30.6911Z" fill="#0058BF"/>
<path d="M125.891 46.419C121.367 46.419 117.679 49.7025 117.5 53.8143H134.282C134.103 49.7025 130.416 46.419 125.891 46.419Z" fill="#FFC700"/>
<path d="M122.369 47.1276C122.134 28.5669 111.544 30.2745 111.544 30.2745C111.544 30.2745 111.742 36.0518 111.837 36.2315C118.585 48.9762 107.449 63.9175 93.2729 61.1688C93.0056 61.117 92.7488 61.0644 92.5025 61.0111C90.7063 60.6367 89.1204 59.5934 88.0674 58.0934C87.0144 56.5934 86.5733 54.7493 86.834 52.9361C88.2304 41.7421 81.2849 41.9402 81.2849 41.9402H71.1289L65.8547 37.2019C65.6686 37.0346 65.4442 36.9154 65.2012 36.8547C64.9582 36.7941 64.7041 36.7937 64.4609 36.8537C64.2178 36.9138 63.9931 37.0324 63.8065 37.1991C63.6199 37.3659 63.477 37.5757 63.3904 37.8103L62.7119 39.6487C62.7119 39.6487 52.695 40.6903 53.5298 50.4812H56.6266C56.6191 50.7594 56.6303 51.0378 56.66 51.3145L79.7721 51.1269C81.1269 51.1159 82.3227 52.2117 82.3283 53.5641C82.3297 53.8934 82.2645 54.2195 82.1367 54.5231C82.0089 54.8266 81.8211 55.1013 81.5845 55.3307C81.3479 55.5601 81.0674 55.7395 80.7597 55.8582C80.4521 55.9769 80.1236 56.0324 79.7939 56.0214L76.0678 55.8974C74.92 61.0012 77.7373 64.4384 80.8414 66.5997C83.7641 68.6051 87.2321 69.6684 90.7785 69.6463H100.901C114.048 69.6463 116.344 58.6056 116.344 58.6056C123.231 55.6891 122.369 47.1276 122.369 47.1276Z" fill="#FFC700"/>
<path d="M125.265 75.6875C131.748 75.6875 137.004 70.4413 137.004 63.9697C137.004 57.4981 131.748 52.2519 125.265 52.2519C118.782 52.2519 113.527 57.4981 113.527 63.9697C113.527 70.4413 118.782 75.6875 125.265 75.6875Z" fill="#3F3D56"/>
<path d="M125.265 66.8417C126.854 66.8417 128.142 65.5559 128.142 63.9697C128.142 62.3835 126.854 61.0977 125.265 61.0977C123.676 61.0977 122.388 62.3835 122.388 63.9697C122.388 65.5559 123.676 66.8417 125.265 66.8417Z" fill="white"/>
<path d="M65.9987 75.6875C73.4614 75.6875 79.5111 69.6485 79.5111 62.199C79.5111 54.7495 73.4614 48.7105 65.9987 48.7105C58.536 48.7105 52.4863 54.7495 52.4863 62.199C52.4863 69.6485 58.536 75.6875 65.9987 75.6875Z" fill="#3F3D56"/>
<path d="M65.9987 65.505C67.8278 65.505 69.3106 64.0249 69.3106 62.199C69.3106 60.3732 67.8278 58.893 65.9987 58.893C64.1697 58.893 62.6869 60.3732 62.6869 62.199C62.6869 64.0249 64.1697 65.505 65.9987 65.505Z" fill="white"/>
<path d="M105.512 34.7391L103.034 28.021C102.905 27.6709 102.846 27.2988 102.861 26.926C102.876 26.5532 102.964 26.187 103.121 25.8482C103.278 25.5095 103.5 25.2049 103.774 24.9518C104.049 24.6987 104.371 24.5021 104.722 24.3732L111.825 21.7628C112.443 21.5359 113.098 21.4326 113.756 21.4588C114.413 21.485 115.058 21.6401 115.655 21.9153C116.252 22.1905 116.789 22.5804 117.235 23.0627C117.682 23.5451 118.028 24.1104 118.255 24.7265C118.46 25.2795 118.565 25.8644 118.564 26.454C118.562 27.2026 118.392 27.9412 118.068 28.6161C117.743 29.291 117.272 29.8853 116.689 30.3557C116.267 30.6932 115.794 30.9598 115.286 31.1451L105.512 34.7391Z" fill="#3F3D56"/>
<path d="M118.46 26.4539C118.46 27.1873 118.294 27.9112 117.976 28.5723C117.659 29.2335 117.196 29.8152 116.624 30.2745C115.745 30.0431 114.927 29.6235 114.228 29.0448C113.528 28.4661 112.963 27.7423 112.571 26.9235C112.18 26.1047 111.972 25.2108 111.962 24.3037C111.952 23.3966 112.14 22.4982 112.513 21.671C113.228 21.5156 113.97 21.5222 114.683 21.6904C115.396 21.8585 116.062 22.1839 116.632 22.6426C117.203 23.1013 117.663 23.6818 117.979 24.3413C118.296 25.0008 118.46 25.7227 118.46 26.4539Z" fill="#0058BF"/>
<path d="M55.3036 51.8352C56.9171 51.8352 58.2251 50.2497 58.2251 48.2939C58.2251 46.338 56.9171 44.7525 55.3036 44.7525C53.69 44.7525 52.382 46.338 52.382 48.2939C52.382 50.2497 53.69 51.8352 55.3036 51.8352Z" fill="#0058BF"/>
<path d="M108.31 29.962C109.116 29.962 109.77 29.3091 109.77 28.5038C109.77 27.6984 109.116 27.0456 108.31 27.0456C107.503 27.0456 106.849 27.6984 106.849 28.5038C106.849 29.3091 107.503 29.962 108.31 29.962Z" fill="#0058BF"/>
<path d="M99.8976 12.423C99.8976 12.423 100.617 14.2893 100.325 14.5816C100.032 14.8739 99.3354 14.4916 99.3354 14.4916" fill="white"/>
<path d="M100.033 14.8514C99.7627 14.8289 99.5154 14.7615 99.2681 14.6266C99.2006 14.5816 99.1556 14.4917 99.2006 14.4242C99.2456 14.3568 99.3355 14.3118 99.403 14.3568C99.6053 14.4692 100.055 14.6266 100.212 14.4692C100.325 14.3343 100.1 13.4124 99.7402 12.4905C99.7177 12.4006 99.7402 12.3106 99.8302 12.2881C99.9201 12.2657 100.01 12.2881 100.033 12.3781C100.257 12.9627 100.752 14.3792 100.437 14.694C100.347 14.8065 100.19 14.8514 100.033 14.8514Z" fill="#231F20"/>
<path d="M100.235 8.82537C100.954 9.90465 100.325 11.6585 100.077 12.8502C99.8301 13.9295 99.5828 15.0087 99.2904 16.088C99.1106 16.7626 97.3118 16.4028 97.042 16.133L95.468 20.1128C94.726 19.7531 94.029 19.3259 93.3769 18.8087C92.0728 17.8418 92.2751 16.7176 92.2751 16.7176C92.8148 14.5366 94.0739 12.2206 94.9958 10.152C95.2656 9.27507 95.9627 8.60052 96.8396 8.37567C97.7165 8.0384 98.7283 7.81355 99.5603 8.24076C99.8526 8.37567 100.077 8.57804 100.235 8.82537Z" fill="white"/>
<path d="M95.4681 20.2478C95.4456 20.2478 95.4231 20.2478 95.4006 20.2253C94.6586 19.8655 93.9391 19.4158 93.2871 18.8987C91.938 17.8869 92.1178 16.6952 92.1178 16.6502C92.545 15.0088 93.332 13.2999 94.0965 11.6585C94.3438 11.1189 94.6137 10.5792 94.8385 10.0621C95.1308 9.16269 95.8503 8.44318 96.7722 8.19584C97.5367 7.90354 98.661 7.58875 99.6278 8.08342C99.9201 8.24081 100.167 8.46566 100.37 8.73548C101.022 9.70233 100.662 11.1414 100.37 12.2881C100.325 12.4905 100.257 12.6928 100.235 12.8727C99.9876 13.952 99.7402 15.0313 99.4479 16.1106C99.3805 16.3579 99.1781 16.5153 98.9308 16.5602C98.3237 16.6727 97.6941 16.5827 97.132 16.3354L95.6255 20.1578C95.603 20.2028 95.5805 20.2253 95.5356 20.2478C95.5131 20.2478 95.4906 20.2478 95.4681 20.2478ZM98.526 8.15087C97.9639 8.17336 97.4243 8.28578 96.9071 8.51063C96.0752 8.73548 95.4006 9.38754 95.1533 10.2195C94.9285 10.7366 94.6811 11.2763 94.4113 11.8159C93.6468 13.4348 92.8598 15.1437 92.4551 16.7401C92.4551 16.7626 92.2977 17.7744 93.4894 18.6738C94.0965 19.146 94.7261 19.5507 95.4006 19.888L96.9071 16.0656C96.9296 16.0206 96.9746 15.9756 97.0196 15.9756C97.0645 15.9532 97.132 15.9756 97.1545 16.0206C97.2894 16.1555 98.2562 16.4253 98.8184 16.2679C98.9982 16.223 99.0882 16.1555 99.1107 16.0431C99.403 14.9863 99.6728 13.8845 99.8976 12.8277C99.9426 12.6479 99.9876 12.4455 100.033 12.2431C100.302 11.1414 100.64 9.79227 100.078 8.93784C99.9201 8.713 99.7178 8.53312 99.4479 8.39821C99.2006 8.21833 98.8633 8.15087 98.526 8.15087Z" fill="#231F20"/>
<path d="M99.4254 15.2561C99.4254 15.2561 98.4136 15.301 98.1438 14.1318L99.4254 15.2561Z" fill="white"/>
<path d="M99.4254 15.4135C98.7058 15.391 98.1212 14.8738 98.0088 14.1768C97.9863 14.0869 98.0538 14.0194 98.1212 13.9969C98.2112 13.9744 98.2786 14.0194 98.3011 14.1094C98.526 15.1212 99.3804 15.0987 99.4254 15.0987C99.5153 15.0987 99.5828 15.1662 99.5828 15.2336C99.6052 15.346 99.5378 15.4135 99.4254 15.4135Z" fill="#231F20"/>
<path d="M97.042 16.1105C97.042 16.1105 96.1876 15.6383 95.8953 14.8963C95.8953 14.8963 95.0409 17.0773 96.3675 17.8643L97.042 16.1105Z" fill="#231F20"/>
<path d="M96.345 18.0217C96.3225 18.0217 96.3 18.0217 96.2551 17.9992C94.8385 17.1673 95.6929 14.9413 95.7154 14.8289C95.7379 14.7614 95.8054 14.7389 95.8503 14.7389C95.9178 14.7389 95.9852 14.7839 96.0077 14.8289C96.2775 15.5034 97.087 15.9531 97.087 15.9531C97.1545 15.9981 97.1769 16.0655 97.1545 16.1555L96.4574 17.9093C96.4349 17.9543 96.4124 17.9768 96.3675 17.9992C96.39 18.0217 96.3675 18.0217 96.345 18.0217ZM95.9403 15.301C95.7829 15.8857 95.5805 17.0549 96.3 17.617L96.8622 16.1555C96.5024 15.9531 96.1876 15.6383 95.9403 15.301Z" fill="#231F20"/>
<path d="M100.819 11.8384C100.842 11.681 97.8739 11.0739 97.8739 11.0739C97.8739 11.0739 97.4242 11.4336 97.9863 12.1981C98.5485 12.9626 100.505 13.3449 100.819 11.8384Z" fill="#231F20"/>
<path d="M99.5154 13.0301C98.8858 13.0301 98.1887 12.7378 97.874 12.3106C97.2219 11.4337 97.784 10.9615 97.784 10.9615C97.829 10.939 97.874 10.9165 97.9189 10.939C101.044 11.5911 101.022 11.7035 100.977 11.8834C100.887 12.4455 100.46 12.8952 99.8976 13.0076C99.7627 13.0301 99.6278 13.0301 99.5154 13.0301ZM97.9414 11.2538C97.8739 11.3662 97.7615 11.636 98.1213 12.1307C98.5485 12.6029 99.2006 12.8278 99.8301 12.6928C100.235 12.6254 100.55 12.3106 100.64 11.9059C100.325 11.7934 99.0881 11.5011 97.9414 11.2538Z" fill="#231F20"/>
<path d="M97.8739 11.2313C97.8514 11.2313 97.8514 11.2313 97.8289 11.2313L96.7272 10.984C96.6372 10.9615 96.5923 10.8716 96.6147 10.8041C96.6372 10.7142 96.7272 10.6692 96.7946 10.6917L97.8964 10.939C97.9863 10.9615 98.0313 11.0515 98.0088 11.1189C98.0088 11.1864 97.9414 11.2313 97.8739 11.2313Z" fill="#231F20"/>
<path d="M100.482 10.4893C100.73 10.3544 100.909 10.1521 100.999 9.88225C101.067 9.61243 100.999 9.32012 100.864 9.07279C100.347 8.03848 99.0657 7.5663 97.9414 7.72369C97.4243 7.76866 96.9521 7.97102 96.5249 8.26333C95.9627 8.69054 95.2432 10.0172 96.0976 10.5118C96.3899 10.6692 96.7947 10.6243 97.1095 10.6467C97.6266 10.6692 98.1438 10.7816 98.6609 10.8266C99.268 10.8491 99.9201 10.8266 100.482 10.4893Z" fill="white"/>
<path d="M99.0657 10.9839C98.9308 10.9839 98.7734 10.9839 98.6385 10.9615C98.3912 10.939 98.1213 10.9165 97.874 10.8715C97.6267 10.8265 97.3569 10.8041 97.087 10.8041C97.0196 10.8041 96.9296 10.8041 96.8622 10.8041C96.5699 10.8265 96.2776 10.7816 96.0078 10.6467C95.7155 10.4893 95.5356 10.197 95.5356 9.88218C95.4906 9.20763 96.0078 8.44314 96.4125 8.12835C96.8397 7.81356 97.3569 7.61119 97.8965 7.54374C99.2006 7.38634 100.482 7.97095 100.999 8.98278C101.157 9.2526 101.202 9.58987 101.134 9.90466C101.044 10.197 100.82 10.4443 100.55 10.6017C100.1 10.894 99.5829 11.0064 99.0657 10.9839ZM98.3462 7.83604C98.2113 7.83604 98.0764 7.83604 97.9415 7.85853C97.4693 7.9035 96.9971 8.08338 96.6149 8.37568C96.2776 8.6455 95.8279 9.32005 95.8504 9.85969C95.8504 10.0845 95.9853 10.2644 96.1652 10.3768C96.39 10.4668 96.6149 10.5118 96.8622 10.4893C96.9521 10.4893 97.0421 10.4893 97.1095 10.4893C97.3793 10.5118 97.6492 10.5342 97.919 10.5792C98.1888 10.6242 98.4137 10.6467 98.661 10.6691C99.1781 10.7141 99.8527 10.7141 100.392 10.3768C100.595 10.2644 100.752 10.0845 100.842 9.85969C100.887 9.61236 100.842 9.36502 100.73 9.16266C100.302 8.3532 99.358 7.83604 98.3462 7.83604Z" fill="#231F20"/>
<path d="M95.3106 14.6265L95.3781 14.5816C96.3225 14.0419 96.6822 12.7603 96.7272 11.8384C96.7722 11.1863 96.9745 10.152 97.4692 9.63487C98.0538 9.00529 101.202 10.3094 101.202 10.3094C102.214 5.83491 95.558 3.69884 92.5675 6.23964C91.1509 7.43134 90.4539 9.36505 90.5663 11.2088C90.6562 12.5804 91.3533 14.8289 92.9722 14.9413C93.4444 14.9863 93.9391 14.9638 94.4112 14.8964C94.726 14.8514 95.0408 14.7614 95.3106 14.6265Z" fill="white"/>
<path d="M93.4669 15.1212C93.3095 15.1212 93.1521 15.1212 92.9947 15.0987C91.2858 14.9638 90.5213 12.7153 90.4314 11.2088C90.319 9.23014 91.0835 7.29643 92.4775 6.12721C94.3663 4.53078 97.4467 4.77812 99.3579 5.94733C101.044 6.98164 101.786 8.57807 101.382 10.3544C101.382 10.3994 101.337 10.4443 101.292 10.4668C101.247 10.4893 101.202 10.4893 101.157 10.4668C99.8976 9.92717 97.9414 9.36505 97.5816 9.74729C97.1769 10.197 96.9296 11.1189 96.8846 11.8609C96.8621 12.3555 96.6597 14.0194 95.4456 14.739L95.3781 14.7839C95.0858 14.9188 94.771 15.0313 94.4562 15.0537C94.1189 15.0987 93.8042 15.1212 93.4669 15.1212ZM95.8503 5.31775C94.7036 5.27278 93.5793 5.65503 92.6799 6.37455C91.3758 7.47631 90.6338 9.34256 90.7462 11.2088C90.8361 12.5354 91.5107 14.694 93.0172 14.8064C93.4894 14.8514 93.9616 14.8289 94.4112 14.7614C94.7036 14.7165 94.9734 14.649 95.2432 14.5141L95.3106 14.4916C96.3674 13.862 96.5473 12.3331 96.5923 11.8834C96.6373 11.1638 96.8846 10.1071 97.3793 9.56741C97.9639 8.93783 100.325 9.81475 101.112 10.1295C101.404 8.57807 100.707 7.16152 99.2005 6.23964C98.1662 5.63254 97.0195 5.31775 95.8503 5.31775Z" fill="#231F20"/>
<path d="M94.4788 13.8621C94.4113 13.8621 94.3663 13.8171 94.3438 13.7721C94.2989 13.6597 93.1746 10.8941 94.7935 8.51065C95.3782 7.61125 96.4349 7.16155 97.4917 7.3864C98.7284 7.58877 99.8976 8.48816 100.055 9.07277C100.078 9.16271 100.033 9.25265 99.9426 9.27514C99.8527 9.29762 99.7852 9.25265 99.7402 9.16271C99.6278 8.7355 98.571 7.90355 97.4243 7.70119C96.5024 7.49882 95.558 7.88107 95.0409 8.69053C93.5119 10.939 94.6137 13.6147 94.6362 13.6372C94.6586 13.7272 94.6362 13.8171 94.5462 13.8396C94.5237 13.8621 94.5012 13.8621 94.4788 13.8621Z" fill="#D1D3D4"/>
<path d="M93.0622 34.076C92.7474 34.0085 81.7522 32.5695 81.7522 32.5695C81.7522 32.5695 77.8399 39.5398 81.7073 41.0913C85.5747 42.6428 99.2455 42.3055 99.2455 42.3055L96.8621 54.1775H101.989C101.989 54.1775 106.913 41.8108 105.541 38.6854C104.17 35.56 92.1853 35.2002 92.1853 35.2002L93.0622 34.076Z" fill="#231F20"/>
<path d="M80.6281 34.3234C80.6281 34.3234 84.0683 24.4525 86.6315 20.0229C87.8008 17.9993 89.712 16.1105 92.1628 16.0431C93.2646 16.0206 94.1865 16.178 95.0184 16.8975C96.1427 17.8644 96.9296 19.1685 97.2894 20.6075C98.0089 23.643 93.5569 33.8737 92.9048 35.605L80.6281 34.3234Z" fill="#0058BF"/>
<path d="M100.148 29.9583C100.148 29.9583 104.247 28.6062 104.857 28.431C105.466 28.2559 106.922 28.8218 106.982 29.3829C107.042 29.944 105.29 29.9521 104.769 29.9085C104.249 29.8648 100.604 31.9375 100.604 31.9375L100.148 29.9583Z" fill="white"/>
<path d="M100.098 29.9239C100.098 29.9239 104.18 28.5818 104.787 28.4087C105.394 28.2357 106.854 28.8288 106.919 29.4032C106.939 29.5876 106.793 29.7125 106.56 29.7971C106.032 29.9894 105.093 29.9723 104.722 29.9398C104.601 29.936 104.474 29.9821 104.368 30.0206C103.312 30.4051 100.581 31.9735 100.581 31.9735L100.098 29.9239ZM99.7156 29.728L99.7944 30.0104L100.285 32.0811L100.389 32.498L100.767 32.2884C100.788 32.2808 103.456 30.7355 104.491 30.3586C104.576 30.3279 104.639 30.3048 104.732 30.2952C105.11 30.3489 106.12 30.3639 106.712 30.1486C107.24 29.9563 107.288 29.6278 107.29 29.4357C107.246 29.1169 107.046 28.8307 106.771 28.6675C106.256 28.3046 105.33 27.9955 104.787 28.1455C104.172 28.2975 100.246 29.6069 100.077 29.6684L99.7156 29.728Z" fill="#231F20"/>
<path d="M96.8621 54.1776C96.8621 54.1776 95.513 56.9882 96.3 57.1681C97.0869 57.348 107.205 58.4497 106.418 57.3705C105.631 56.2912 101.989 54.1776 101.989 54.1776H96.8621Z" fill="white"/>
<path d="M104.372 58C101.427 58 96.5698 57.393 96.2775 57.3255C96.1426 57.303 96.0301 57.2131 95.9852 57.0782C95.6479 56.3811 96.6372 54.335 96.7496 54.1101C96.7721 54.0652 96.8396 54.0202 96.8846 54.0202H102.011C102.034 54.0202 102.056 54.0202 102.101 54.0427C102.258 54.1326 105.766 56.2013 106.576 57.2805C106.666 57.393 106.688 57.5279 106.598 57.6403C106.418 57.9101 105.541 58 104.372 58ZM96.9745 54.335C96.5698 55.1669 96.0751 56.5385 96.255 56.9433C96.2775 56.9882 96.3 57.0107 96.3449 57.0107C97.4242 57.258 105.901 58.0675 106.306 57.4604C105.564 56.4711 102.326 54.5598 101.944 54.335H96.9745Z" fill="#231F20"/>
<path d="M93.8267 19.9555L93.2421 28.4548L100.999 28.7696L101.314 32.7044C101.314 32.7044 90.7687 33.1766 88.5877 31.3778C86.4067 29.579 87.8457 20.8324 89.0374 19.5957C90.2291 18.359 94.0066 17.3022 93.8267 19.9555Z" fill="#FFC700"/>
<path d="M99.0207 28.837L93.2421 28.6122C93.1971 28.6122 93.1522 28.5897 93.1297 28.5672C93.1072 28.5447 93.0847 28.4997 93.0847 28.4548L93.6019 19.3034C93.6019 19.2135 93.6693 19.146 93.7593 19.146C93.8492 19.146 93.9167 19.2135 93.9167 19.3034V19.3259L93.3995 28.3199L99.0207 28.5447C99.1107 28.5447 99.1781 28.6122 99.1781 28.7021C99.1781 28.792 99.1107 28.8595 99.0207 28.837Z" fill="#231F20"/>
<path d="M95.2432 32.9293C92.4326 32.9293 89.2173 32.6594 88.4528 31.4677C87.1936 29.5115 87.2611 23.8453 87.2835 21.7093C87.2835 21.5069 87.2835 21.3495 87.2835 21.2146C87.2835 21.1247 87.351 21.0572 87.4409 21.0572C87.5309 21.0572 87.5983 21.1247 87.5983 21.2146C87.5983 21.327 87.5983 21.5069 87.5983 21.7093C87.5759 23.6205 87.5084 29.4216 88.7001 31.2879C89.2173 32.0973 91.3084 32.547 94.6811 32.592C97.2894 32.6145 99.7402 32.3896 99.7627 32.3896C99.8526 32.3896 99.9201 32.4346 99.9426 32.5245C99.9426 32.6145 99.8976 32.6819 99.8077 32.7044C99.6278 32.7269 97.5817 32.9293 95.2432 32.9293Z" fill="#231F20"/>
<path d="M97.4693 17.3022C97.4693 17.3022 92.0279 14.559 91.5333 15.2786C91.1735 15.8407 90.8362 16.4478 90.5664 17.0549C90.5664 17.0549 96.0527 19.798 96.9521 19.056C97.4693 18.6288 97.6717 17.9318 97.4693 17.3022Z" fill="#072FBC"/>
<path d="M81.4887 13.6783L79.4731 10.3318C79.0551 9.63222 78.4846 8.67568 77.6445 8.41043L68.184 5.41849C66.4201 4.8605 64.5557 4.8605 62.7918 5.41849L53.3313 8.4118C52.5339 8.66468 51.856 9.19793 51.401 9.95656L49.5188 13.6261C48.9509 14.5675 48.8437 15.6986 49.2245 16.7293C49.604 17.7601 50.4207 18.5517 51.4642 18.898L51.7529 18.9942L51.7447 29.4447C51.7433 32.1123 53.4426 34.4734 55.9752 35.3159L62.6598 37.5437C63.5713 37.8475 64.5282 38 65.4865 38C66.4448 38 67.4017 37.8488 68.3133 37.5437L75.0034 35.3145C77.5359 34.4707 79.2408 32.1151 79.2421 29.4516V18.9874L79.5693 18.8788C80.5991 18.5352 81.4034 17.756 81.7788 16.7389C82.1541 15.7219 82.0482 14.606 81.4887 13.6769V13.6783ZM50.5142 16.2538C50.2791 15.6161 50.3451 14.9166 50.719 14.294L52.6012 10.6231C52.692 10.4719 52.802 10.3345 52.9271 10.2136L64.487 14.0782L61.773 19.0794C61.2409 19.9659 60.1836 20.3562 59.2047 20.0291L51.9 17.5952C51.2552 17.3794 50.7493 16.8915 50.5142 16.2538ZM64.7895 36.594C64.2148 36.5418 63.6442 36.4236 63.0942 36.2408L56.4096 34.013C54.4394 33.3561 53.1168 31.5214 53.1182 29.4461L53.125 19.4519L58.7661 21.332C60.3665 21.8652 62.0837 21.2289 62.9636 19.7597L64.7963 16.383L64.7867 36.5927L64.7895 36.594ZM54.7955 9.38896L63.207 6.72823C64.6987 6.25684 66.2771 6.25684 67.7702 6.72823L76.205 9.39721L65.5003 12.9677L54.7955 9.38896ZM77.8673 29.4516C77.8659 31.5227 76.5405 33.3547 74.5689 34.0117L67.8788 36.2408C67.3234 36.4264 66.7473 36.5446 66.1657 36.5954L66.1753 16.3761L68.0259 19.7859C68.6859 20.8867 69.8449 21.5175 71.0671 21.5175C71.4452 21.5175 71.8302 21.4571 72.2083 21.3306L77.8686 19.445V29.4502L77.8673 29.4516ZM80.4891 16.2634C80.2595 16.8874 79.766 17.3656 79.1349 17.5759L71.7724 20.0291C70.7908 20.3521 69.7363 19.9659 69.2193 19.1056L66.4943 14.0837L77.8246 10.3043C78.0102 10.5626 78.1807 10.8485 78.2935 11.0368L80.3118 14.3874C80.6555 14.9578 80.7201 15.6408 80.4891 16.2648V16.2634Z" fill="#FFC700"/>
</g>
<defs>
<clipPath id="clip0_2933_407">
<rect width="173" height="76" fill="white"/>
</clipPath>
</defs>
</svg>
