<svg width="24" height="24" viewBox="0 0 24 24" fill="none" xmlns="http://www.w3.org/2000/svg">
<path fill-rule="evenodd" clip-rule="evenodd" d="M12.356 23.8998C14.3458 23.0347 24 18.43 24 10.5215C24 4.71065 18.6274 0 12 0C5.37258 0 0 4.71065 0 10.5215C0 18.43 9.65423 23.0347 11.644 23.8998C11.8754 24.0004 12.1246 24.0004 12.356 23.8998ZM12 15.0307C14.8403 15.0307 17.1428 13.0119 17.1428 10.5215C17.1428 8.03115 14.8403 6.0123 12 6.0123C9.15965 6.0123 6.85712 8.03115 6.85712 10.5215C6.85712 13.0119 9.15965 15.0307 12 15.0307Z" fill="#FF0000"/>
</svg>
