<svg width="24" height="27" viewBox="0 0 24 27" fill="none" xmlns="http://www.w3.org/2000/svg">
<path d="M21.9126 8.62142C20.8379 8.41065 19.796 9.15816 19.6058 10.2367L18.8663 14.4303L18.4817 14.3625L19.9757 5.88923C20.1659 4.81065 19.4425 3.75185 18.3605 3.58234C17.312 3.41809 16.3206 4.12315 16.1355 5.17293L14.6348 13.6842L14.2501 13.6164L16.0748 3.26772C16.265 2.18914 15.5416 1.13034 14.4596 0.960833C13.4111 0.796582 12.4197 1.50164 12.2346 2.55141L10.4032 12.9381L10.0185 12.8702L11.5041 4.44502C11.6942 3.36645 10.9708 2.30765 9.88884 2.13814C8.84035 1.97389 7.84895 2.67895 7.66385 3.72872L5.66289 15.0767L4.51005 12.7157C4.03675 11.7464 2.86732 11.3443 1.89794 11.8177C0.928706 12.291 0.526656 13.4605 0.999949 14.4298L5.57529 23.7995C5.7375 24.1317 5.97599 24.4208 6.27128 24.6432C6.56657 24.8656 6.91028 25.015 7.27434 25.0792L16.7757 26.7545C17.8468 26.9434 18.9071 26.3706 19.3363 25.3712L21.5662 20.1786C21.8514 19.5143 22.0589 18.8192 22.1845 18.1073L23.4593 10.8771C23.6445 9.82729 22.954 8.82567 21.9126 8.62142Z" fill="#D5D5D5"/>
</svg>
