<svg width="28" height="20" viewBox="0 0 28 20" fill="none" xmlns="http://www.w3.org/2000/svg">
<path d="M13.6288 5.13784L4.66704 11.6683V18.7165C4.66704 18.899 4.74897 19.074 4.89482 19.203C5.04067 19.3321 5.23849 19.4046 5.44475 19.4046L10.8917 19.3921C11.0973 19.3912 11.2941 19.3183 11.4391 19.1894C11.5841 19.0604 11.6655 18.8859 11.6655 18.704V14.5879C11.6655 14.4054 11.7475 14.2304 11.8933 14.1014C12.0392 13.9723 12.237 13.8998 12.4432 13.8998H15.5541C15.7604 13.8998 15.9582 13.9723 16.104 14.1014C16.2499 14.2304 16.3318 14.4054 16.3318 14.5879V18.701C16.3315 18.7916 16.3514 18.8813 16.3903 18.965C16.4293 19.0487 16.4865 19.1248 16.5588 19.189C16.631 19.2531 16.7169 19.304 16.8114 19.3387C16.9059 19.3734 17.0072 19.3913 17.1096 19.3913L22.5545 19.4046C22.7608 19.4046 22.9586 19.3321 23.1045 19.203C23.2503 19.074 23.3323 18.899 23.3323 18.7165V11.6635L14.3725 5.13784C14.2671 5.06272 14.1359 5.02176 14.0006 5.02176C13.8653 5.02176 13.7341 5.06272 13.6288 5.13784ZM27.7847 9.57647L23.7211 6.61294V0.656206C23.7211 0.519336 23.6597 0.388072 23.5503 0.29129C23.4409 0.194508 23.2925 0.140137 23.1378 0.140137H20.4158C20.2611 0.140137 20.1128 0.194508 20.0034 0.29129C19.894 0.388072 19.8325 0.519336 19.8325 0.656206V3.77886L15.4807 0.61105C15.0631 0.30699 14.539 0.140745 13.9982 0.140745C13.4573 0.140745 12.9333 0.30699 12.5157 0.61105L0.211684 9.57647C0.15262 9.61966 0.103754 9.67273 0.0678782 9.73263C0.0320021 9.79254 0.00981906 9.85812 0.00259668 9.92561C-0.0046257 9.99311 0.0032541 10.0612 0.0257858 10.126C0.0483176 10.1908 0.0850596 10.251 0.133913 10.3033L1.3734 11.6364C1.42212 11.6889 1.48205 11.7323 1.54975 11.7642C1.61745 11.7961 1.69159 11.8158 1.76794 11.8223C1.84429 11.8288 1.92134 11.822 1.99468 11.8021C2.06802 11.7822 2.13621 11.7498 2.19535 11.7065L13.6288 3.3746C13.7341 3.29948 13.8653 3.25852 14.0006 3.25852C14.1359 3.25852 14.2671 3.29948 14.3725 3.3746L25.8064 11.7065C25.8654 11.7498 25.9335 11.7823 26.0067 11.8022C26.08 11.8221 26.1569 11.8291 26.2332 11.8227C26.3095 11.8163 26.3836 11.7967 26.4513 11.765C26.5191 11.7332 26.579 11.69 26.6278 11.6377L27.8673 10.3046C27.9161 10.252 27.9527 10.1915 27.975 10.1264C27.9973 10.0613 28.0048 9.99298 27.9971 9.92532C27.9894 9.85766 27.9667 9.79201 27.9302 9.73214C27.8938 9.67227 27.8443 9.61937 27.7847 9.57647Z" fill="white"/>
</svg>
