<svg width="22" height="16" viewBox="0 0 22 16" fill="none" xmlns="http://www.w3.org/2000/svg">
<g clip-path="url(#clip0_1698_37)">
<rect width="22" height="16" transform="matrix(-1 0 0 1 22 0)" fill="white"/>
<path fill-rule="evenodd" clip-rule="evenodd" d="M11 10.6667C9.55426 10.6667 8.38092 9.472 8.38092 8C8.38092 6.528 9.55426 5.33334 11 5.33334C12.4457 5.33334 13.619 6.528 13.619 8C13.619 9.472 12.4457 10.6667 11 10.6667ZM11 9.6C10.1325 9.6 9.42854 8.8832 9.42854 8C9.42854 7.1168 10.1325 6.4 11 6.4C11.8674 6.4 12.5714 7.1168 12.5714 8C12.5714 8.8832 11.8674 9.6 11 9.6Z" fill="#1A47B8"/>
<path d="M11 8.53333C10.7107 8.53333 10.4762 8.29455 10.4762 8C10.4762 7.70545 10.7107 7.46667 11 7.46667C11.2893 7.46667 11.5238 7.70545 11.5238 8C11.5238 8.29455 11.2893 8.53333 11 8.53333Z" fill="#1A47B8"/>
<path fill-rule="evenodd" clip-rule="evenodd" d="M22 11H-1.90735e-06V16H22V11Z" fill="#249F58"/>
<path fill-rule="evenodd" clip-rule="evenodd" d="M22 0H-1.90735e-06V5H22V0Z" fill="#FF6C2D"/>
</g>
<defs>
<clipPath id="clip0_1698_37">
<rect width="22" height="16" rx="2" transform="matrix(-1 0 0 1 22 0)" fill="white"/>
</clipPath>
</defs>
</svg>
