<svg width="344" height="144" viewBox="0 0 344 144" fill="none" xmlns="http://www.w3.org/2000/svg">
<g clip-path="url(#clip0_1688_225)">
<path d="M259.218 61.932V35.1171C259.218 32.4434 261.394 30.2684 264.068 30.2684H281.616C284.29 30.2684 286.466 32.4434 286.466 35.1171V61.932C286.466 64.6057 284.29 66.7808 281.616 66.7808H264.068C261.394 66.7808 259.218 64.6057 259.218 61.932Z" fill="white"/>
<path d="M268.204 41.8596H277.48V39.5414H268.204V41.8596Z" fill="#3F3D56"/>
<path d="M270.523 37.8027H275.161V30.2683H270.523V37.8027Z" fill="#3F3D56"/>
<path d="M270.523 66.7808H275.161V59.2465H270.523V66.7808Z" fill="#3F3D56"/>
<path d="M246.753 63.0158H219.929C217.255 63.0158 215.079 60.8407 215.079 58.167V40.6251C215.079 37.9514 217.255 35.7764 219.929 35.7764H246.753C249.428 35.7764 251.603 37.9514 251.603 40.6251V58.167C251.603 60.8407 249.428 63.0158 246.753 63.0158Z" fill="white"/>
<path d="M238.559 39.5435H229.283V41.8618H238.559V39.5435Z" fill="#3F3D56"/>
<path d="M222.616 51.7143V47.0778H215.079V51.7143H222.616Z" fill="#3F3D56"/>
<path d="M251.603 51.7143V47.0778H244.067V51.7143H251.603Z" fill="#3F3D56"/>
<path d="M29.1649 113.159L24.687 87.0458C22.6972 75.4425 31.288 64.7052 43.0487 64.0962L106.886 60.791L122.121 35.6888C124.141 32.361 127.752 30.3288 131.646 30.3288H177.515C181.121 30.3288 184.167 33.0016 184.635 36.5755L185.8 56.6611L300.156 57.0034L314.541 104.397L301.188 103.746L301.873 118.122L284.412 118.806L278.591 102.352C277.495 99.2542 272.692 95.7608 267.7 92.8381C256.508 86.2858 242.13 88.3888 233.66 98.2081C231.662 100.525 230.266 102.938 229.875 105.201L227.234 120.518L99.1823 118.464L82.3999 94.9956C77.4417 89.6017 54.0357 87.6204 51.9278 94.9956L39.2652 113.672L29.1649 113.159Z" fill="#E6E6E6"/>
<path d="M168.343 45.6031L172.11 63.358L124.176 64.3849L134.3 42.6556C135.218 40.6844 137.234 39.4606 139.408 39.555L162.377 40.5534C165.285 40.6798 167.739 42.7569 168.343 45.6031Z" fill="white"/>
<path d="M117.671 63.0158L127.258 38.3722L124.748 35.8631L109.111 59.5931L112.289 64.3849L117.671 63.0158Z" fill="white"/>
<path d="M254.967 143.108C267.447 143.108 277.564 132.994 277.564 120.518C277.564 108.041 267.447 97.9276 254.967 97.9276C242.487 97.9276 232.369 108.041 232.369 120.518C232.369 132.994 242.487 143.108 254.967 143.108Z" fill="#3F3D56"/>
<path d="M239.388 120.518C239.388 111.93 246.377 104.944 254.967 104.944C263.557 104.944 270.545 111.93 270.545 120.518C270.545 129.105 263.557 136.091 254.967 136.091C246.377 136.091 239.388 129.105 239.388 120.518ZM239.731 120.518C239.731 128.916 246.565 135.749 254.967 135.749C263.368 135.749 270.203 128.916 270.203 120.518C270.203 112.119 263.368 105.286 254.967 105.286C246.565 105.286 239.731 112.119 239.731 120.518Z" fill="white"/>
<path d="M241.614 120.518C241.614 127.89 247.592 133.866 254.967 133.866C262.341 133.866 268.32 127.89 268.32 120.518C268.32 113.145 262.341 107.169 254.967 107.169C247.592 107.169 241.614 113.145 241.614 120.518ZM263.647 117.321L261.281 118.862L260.372 117.468L263.647 117.321ZM260.045 125.161L260.675 123.62L262.659 126.229L260.045 125.161ZM253.987 130.443L255.651 127.62V130.443H253.987ZM253.987 114.099L255.651 111.276V114.099H253.987ZM246.59 126.229L248.574 123.62L249.204 125.161L246.59 126.229ZM245.602 117.321L248.877 117.468L247.968 118.862L245.602 117.321Z" fill="#E6E6E6"/>
<path d="M65.2864 143.108C77.7665 143.108 87.8836 132.994 87.8836 120.518C87.8836 108.041 77.7665 97.9276 65.2864 97.9276C52.8062 97.9276 42.6891 108.041 42.6891 120.518C42.6891 132.994 52.8062 143.108 65.2864 143.108Z" fill="#3F3D56"/>
<path d="M49.7079 120.518C49.7079 111.93 56.6963 104.944 65.2864 104.944C73.8764 104.944 80.8648 111.93 80.8648 120.518C80.8648 129.105 73.8764 136.091 65.2864 136.091C56.6963 136.091 49.7079 129.105 49.7079 120.518ZM50.0503 120.518C50.0503 128.916 56.8851 135.749 65.2864 135.749C73.6876 135.749 80.5224 128.916 80.5224 120.518C80.5224 112.119 73.6876 105.286 65.2864 105.286C56.8851 105.286 50.0503 112.119 50.0503 120.518Z" fill="white"/>
<path d="M51.9334 120.518C51.9334 127.89 57.9117 133.866 65.2864 133.866C72.661 133.866 78.6393 127.89 78.6393 120.518C78.6393 113.145 72.661 107.169 65.2864 107.169C57.9117 107.169 51.9334 113.145 51.9334 120.518ZM73.9662 117.321L71.6003 118.862L70.6914 117.468L73.9662 117.321ZM70.3644 125.161L70.9945 123.62L72.9783 126.229L70.3644 125.161ZM64.3064 130.443L65.9711 127.62V130.443H64.3064ZM64.3064 114.099L65.9711 111.276V114.099H64.3064ZM56.9096 126.229L58.8935 123.62L59.5235 125.161L56.9096 126.229ZM55.9217 117.321L59.1966 117.468L58.2876 118.862L55.9217 117.321Z" fill="#E6E6E6"/>
<path d="M159.613 72.4283H172.624V69.6901H159.613V72.4283Z" fill="#3F3D56"/>
<path d="M342.995 126.18C342.874 125.809 341.955 125.973 341.867 125.641C341.779 125.31 342.661 125.033 343.337 124.101C343.459 123.933 344.228 122.874 343.933 122.429C343.374 121.585 339.486 123.687 338.553 122.507C338.348 122.249 338.264 121.804 337.654 120.977C337.411 120.648 337.255 120.489 337.069 120.494C336.805 120.5 336.711 120.83 336.296 121.429C335.673 122.326 335.449 122.213 335.039 122.948C334.734 123.493 334.698 123.842 334.479 123.863C334.168 123.892 334.04 123.212 333.661 123.186C333.273 123.159 332.886 123.83 332.694 124.355C332.333 125.339 332.557 126.091 332.606 126.841C332.66 127.655 332.533 128.848 331.648 130.378L323.297 143.68C325.09 140.968 330.181 133.574 332.233 130.862C332.825 130.079 333.461 129.292 334.441 129.144C335.384 129.002 336.531 129.468 338.132 129.441C338.319 129.438 338.84 129.423 338.966 129.147C339.071 128.919 338.811 128.721 338.906 128.506C339.033 128.219 339.603 128.342 340.381 128.151C340.929 128.017 341.301 127.794 341.622 127.603C341.718 127.545 343.157 126.674 342.995 126.18Z" fill="#F2F2F2"/>
<path d="M321.122 129.286C320.905 129.238 320.72 129.736 320.531 129.684C320.344 129.632 320.462 129.119 320.2 128.518C320.153 128.41 319.855 127.727 319.551 127.743C318.975 127.774 318.885 130.288 318.037 130.406C317.851 130.432 317.608 130.345 317.026 130.405C316.794 130.43 316.671 130.46 316.62 130.553C316.547 130.684 316.682 130.826 316.856 131.202C317.117 131.766 316.997 131.844 317.239 132.257C317.419 132.564 317.58 132.682 317.527 132.796C317.451 132.956 317.081 132.823 316.958 133.002C316.834 133.184 317.051 133.568 317.253 133.814C317.632 134.274 318.066 134.382 318.448 134.574C318.864 134.783 319.413 135.189 319.909 136.065L324.03 144C323.216 142.338 321.055 137.706 320.315 135.917C320.101 135.401 319.899 134.862 320.109 134.338C320.311 133.835 320.871 133.406 321.32 132.613C321.372 132.52 321.515 132.26 321.416 132.119C321.334 132.001 321.162 132.072 321.084 131.964C320.979 131.818 321.205 131.574 321.335 131.137C321.427 130.83 321.426 130.583 321.424 130.37C321.424 130.306 321.411 129.349 321.122 129.286Z" fill="#F2F2F2"/>
<path d="M325.233 131.222L325.363 130.026L325.442 129.951C325.81 129.604 326.04 129.236 326.126 128.857C326.14 128.797 326.15 128.736 326.161 128.674C326.204 128.429 326.258 128.123 326.494 127.806C326.626 127.629 326.976 127.229 327.337 127.369C327.435 127.405 327.5 127.468 327.546 127.535C327.557 127.524 327.569 127.512 327.582 127.5C327.738 127.348 327.847 127.293 327.952 127.239C328.033 127.198 328.116 127.156 328.257 127.043C328.319 126.993 328.368 126.949 328.41 126.912C328.537 126.798 328.699 126.666 328.921 126.719C329.156 126.783 329.237 127.007 329.29 127.156C329.386 127.42 329.415 127.603 329.435 127.723C329.442 127.768 329.45 127.817 329.456 127.833C329.507 127.963 330.154 127.997 330.397 128.011C330.944 128.04 331.417 128.066 331.53 128.44C331.612 128.708 331.442 129 331.01 129.331C330.876 129.434 330.741 129.505 330.624 129.558C330.696 129.626 330.754 129.719 330.757 129.845C330.765 130.144 330.459 130.373 329.847 130.527C329.695 130.566 329.49 130.617 329.222 130.604C329.096 130.598 328.986 130.579 328.892 130.561C328.878 130.614 328.852 130.67 328.806 130.723C328.669 130.879 328.449 130.919 328.151 130.831C327.821 130.739 327.561 130.614 327.331 130.504C327.13 130.409 326.957 130.327 326.812 130.305C326.542 130.267 326.29 130.434 325.988 130.655L325.233 131.222Z" fill="#F2F2F2"/>
<path d="M327.389 124.412L326.199 124.59L326.106 124.533C325.677 124.265 325.263 124.136 324.875 124.149C324.813 124.151 324.751 124.156 324.688 124.161C324.44 124.182 324.13 124.208 323.763 124.06C323.559 123.977 323.083 123.74 323.127 123.355C323.137 123.252 323.182 123.172 323.235 123.111C323.221 123.103 323.207 123.095 323.191 123.086C323.005 122.973 322.924 122.882 322.845 122.794C322.785 122.726 322.723 122.656 322.578 122.548C322.515 122.501 322.459 122.465 322.412 122.434C322.271 122.34 322.101 122.217 322.096 121.989C322.098 121.745 322.295 121.61 322.425 121.521C322.657 121.361 322.826 121.287 322.938 121.237C322.979 121.219 323.025 121.199 323.039 121.189C323.151 121.106 323.02 120.472 322.972 120.234C322.862 119.698 322.767 119.234 323.1 119.029C323.338 118.882 323.664 118.972 324.094 119.306C324.228 119.41 324.331 119.522 324.412 119.621C324.459 119.535 324.534 119.456 324.656 119.42C324.942 119.337 325.242 119.575 325.546 120.127C325.623 120.265 325.724 120.449 325.779 120.712C325.805 120.835 325.815 120.947 325.821 121.042C325.877 121.042 325.937 121.053 326 121.085C326.185 121.177 326.28 121.379 326.27 121.69C326.265 122.032 326.21 122.316 326.162 122.566C326.121 122.784 326.086 122.972 326.101 123.119C326.133 123.389 326.358 123.591 326.649 123.826L327.389 124.412Z" fill="#F2F2F2"/>
<path d="M327.549 120.841L327.679 119.646L327.758 119.571C328.126 119.223 328.356 118.855 328.442 118.477C328.456 118.417 328.466 118.356 328.477 118.294C328.52 118.048 328.574 117.742 328.81 117.425C328.942 117.248 329.292 116.848 329.653 116.988C329.751 117.024 329.816 117.088 329.862 117.155C329.874 117.143 329.885 117.131 329.898 117.119C330.054 116.967 330.163 116.912 330.268 116.858C330.349 116.817 330.432 116.775 330.573 116.662C330.635 116.613 330.685 116.568 330.726 116.531C330.853 116.418 331.015 116.285 331.237 116.338C331.472 116.402 331.553 116.626 331.606 116.775C331.702 117.04 331.731 117.222 331.751 117.343C331.758 117.387 331.766 117.437 331.772 117.453C331.824 117.582 332.47 117.616 332.713 117.63C333.26 117.66 333.733 117.685 333.846 118.059C333.928 118.327 333.758 118.619 333.326 118.95C333.192 119.053 333.057 119.124 332.94 119.178C333.012 119.246 333.07 119.338 333.073 119.464C333.081 119.763 332.775 119.992 332.163 120.146C332.011 120.185 331.806 120.237 331.538 120.224C331.412 120.217 331.302 120.198 331.208 120.18C331.194 120.234 331.168 120.289 331.122 120.342C330.985 120.498 330.766 120.538 330.467 120.45C330.137 120.358 329.877 120.233 329.647 120.124C329.446 120.028 329.273 119.946 329.128 119.924C328.858 119.886 328.606 120.053 328.305 120.275L327.549 120.841Z" fill="#F2F2F2"/>
<path d="M323.692 143.748L323.481 143.54L323.189 143.509C323.19 143.482 323.188 143.417 323.186 143.317C323.175 142.767 323.14 141.093 323.373 138.521C323.536 136.726 323.808 134.904 324.182 133.104C324.556 131.302 324.945 129.96 325.257 128.882C325.492 128.069 325.73 127.298 325.962 126.547C326.581 124.54 327.166 122.645 327.528 120.482C327.609 120 327.777 118.995 327.433 117.809C327.233 117.121 326.891 116.474 326.415 115.885L326.875 115.514C327.4 116.164 327.779 116.881 328.001 117.645C328.383 118.96 328.199 120.054 328.111 120.58C327.743 122.781 327.152 124.695 326.527 126.721C326.296 127.469 326.059 128.237 325.825 129.047C325.515 130.115 325.13 131.444 324.761 133.224C324.391 135.002 324.123 136.802 323.962 138.575C323.732 141.114 323.766 142.763 323.778 143.305C323.783 143.594 323.785 143.654 323.692 143.748Z" fill="#F2F2F2"/>
<path d="M325.153 116.566C325.129 116.56 325.105 116.554 325.081 116.547C324.596 116.411 324.207 116.016 323.924 115.372C323.792 115.07 323.76 114.751 323.698 114.116C323.688 114.018 323.645 113.522 323.698 112.866C323.733 112.436 323.779 112.264 323.896 112.129C324.026 111.978 324.2 111.891 324.385 111.848C324.39 111.791 324.409 111.736 324.446 111.683C324.597 111.464 324.852 111.554 324.99 111.601C325.059 111.626 325.146 111.658 325.244 111.674C325.397 111.701 325.488 111.674 325.627 111.634C325.759 111.595 325.924 111.547 326.152 111.551C326.601 111.558 326.933 111.759 327.043 111.826C327.621 112.173 327.82 112.726 328.051 113.367C328.097 113.496 328.249 113.96 328.284 114.558C328.31 114.989 328.253 115.166 328.188 115.292C328.056 115.552 327.853 115.672 327.35 115.925C326.824 116.19 326.56 116.323 326.344 116.391C325.841 116.549 325.525 116.649 325.153 116.566Z" fill="#F2F2F2"/>
<path d="M0 143.234C0 143.46 0.3168 143.642 0.711305 143.642H340.277C340.672 143.642 340.988 143.46 340.988 143.234C340.988 143.008 340.672 142.827 340.277 142.827H0.711305C0.3168 142.827 0 143.008 0 143.234Z" fill="#CCCCCC"/>
<path d="M172.541 140.662L177.295 140.662L179.556 122.331L172.54 122.332L172.541 140.662Z" fill="#FFB6B6"/>
<path d="M188.828 140.555C188.976 140.804 189.054 141.608 189.054 141.898C189.054 142.789 188.332 143.511 187.441 143.511L172.719 143.511C172.111 143.511 171.618 143.018 171.618 142.411V141.798C171.618 141.798 170.89 139.956 172.389 137.686C172.389 137.686 174.253 139.464 177.037 136.68L177.858 135.193L183.803 139.539L187.097 139.944C187.818 140.033 188.457 139.93 188.828 140.555Z" fill="#2F2E41"/>
<path d="M151.182 140.662L155.936 140.662L158.197 122.331L151.181 122.332L151.182 140.662Z" fill="#FFB6B6"/>
<path d="M167.469 140.555C167.617 140.804 167.696 141.608 167.696 141.898C167.696 142.789 166.973 143.511 166.082 143.511L151.36 143.511C150.752 143.511 150.259 143.018 150.259 142.411V141.798C150.259 141.798 149.531 139.956 151.03 137.686C151.03 137.686 152.894 139.464 155.679 136.68L156.5 135.193L162.444 139.539L165.739 139.944C166.459 140.033 167.099 139.93 167.469 140.555Z" fill="#2F2E41"/>
<path d="M171.788 15.4966L172.69 23.917L162.161 23.0148L163.966 15.1958L171.788 15.4966Z" fill="#FFB6B6"/>
<path opacity="0.1" d="M171.788 15.4966L172.69 23.917L162.161 23.0148L163.966 15.1958L171.788 15.4966Z" fill="black"/>
<path d="M168.028 16.5491C171.849 16.5491 174.947 13.4524 174.947 9.63234C174.947 5.8123 171.849 2.71555 168.028 2.71555C164.206 2.71555 161.109 5.8123 161.109 9.63234C161.109 13.4524 164.206 16.5491 168.028 16.5491Z" fill="#FFB6B6"/>
<path d="M172.54 20.4586L184.122 27.225L180.327 45.5696L182.919 70.2294L181.114 130.676L169.983 129.473L168.479 78.0484L159.755 131.278H148.946L150.73 73.8382L156.145 49.4791L152.836 23.0148L162.913 19.8571L172.54 20.4586Z" fill="#2F2E41"/>
<path d="M172.991 11.5871C172.991 11.5871 173.593 9.48196 174.947 9.63233C176.3 9.7827 176.601 8.57977 176.3 7.97832C175.999 7.37686 175.398 4.36955 175.398 4.36955C175.398 4.36955 175.699 2.26444 173.894 1.96371C172.089 1.66298 171.487 1.36225 171.186 0.760794C170.885 0.159332 166.373 -0.442126 164.869 0.460063C163.365 1.36225 162.161 3.09323 161.109 3.58103C160.056 4.06883 159.153 4.97101 159.755 6.47466C160.356 7.97831 161.229 10.9191 161.229 10.9191C161.229 10.9191 162.763 10.3842 163.064 11.2863C163.365 12.1885 162.161 10.9856 163.666 8.57978C165.17 6.17394 165.17 3.76809 167.576 4.67029C169.983 5.57248 172.69 5.27175 172.39 7.07613C172.089 8.88051 172.991 11.5871 172.991 11.5871Z" fill="#2F2E41"/>
<path d="M178.149 64.8347C176.701 66.3674 176.319 68.3566 177.295 69.2777C178.27 70.1987 180.235 69.7028 181.683 68.1694C182.27 67.5648 182.704 66.8284 182.948 66.022L189.001 59.4505L185.856 56.6766L180.222 63.4494C179.43 63.7391 178.72 64.2141 178.149 64.8347Z" fill="#FFB6B6"/>
<path d="M184 27.0747L194.194 44.4358L195.704 52.3616L185.888 64.8163L181.735 59.5325L186.643 52.3616L178.714 38.3972L184 27.0747Z" fill="#2F2E41"/>
<path d="M155.34 63.2182V42.7485C155.34 39.6285 157.879 37.0905 161 37.0905H192.3C195.421 37.0905 197.96 39.6285 197.96 42.7485V63.2182C197.96 66.3381 195.421 68.8762 192.3 68.8762H161C157.879 68.8762 155.34 66.3381 155.34 63.2182Z" fill="white"/>
<path d="M170.561 50.0101H181.385V47.305H170.561V50.0101Z" fill="#3F3D56"/>
<path d="M180.498 68.6948V63.2845H171.704V68.6948H180.498Z" fill="#3F3D56"/>
<path d="M180.911 42.6821V37.2718H172.116V42.6821H180.911Z" fill="#3F3D56"/>
<path d="M158.507 60.9252C159.955 62.4579 160.338 64.4471 159.362 65.3682C158.386 66.2892 156.422 65.7933 154.973 64.2599C154.387 63.6553 153.953 62.9189 153.709 62.1125L147.656 55.541L150.801 52.7671L156.435 59.5399C157.226 59.8296 157.937 60.3046 158.507 60.9252Z" fill="#FFB6B6"/>
<path d="M152.657 23.1652L142.463 40.5263L140.953 48.4521L150.769 60.9068L154.922 55.623L150.014 48.4521L157.942 34.4877L152.657 23.1652Z" fill="#2F2E41"/>
<path d="M25.9067 105.948C31.0122 105.948 35.151 102.347 35.151 97.9049C35.151 93.4627 31.0122 89.8615 25.9067 89.8615C20.8012 89.8615 16.6623 93.4627 16.6623 97.9049C16.6623 102.347 20.8012 105.948 25.9067 105.948Z" fill="#E6E6E6"/>
</g>
<defs>
<clipPath id="clip0_1688_225">
<rect width="344" height="144" fill="white"/>
</clipPath>
</defs>
</svg>
