<svg width="24" height="32" viewBox="0 0 24 32" fill="none" xmlns="http://www.w3.org/2000/svg">
<path d="M21.8219 0.809976C21.797 0.8074 21.776 0.790771 21.75 0.790771H11C9.34601 0.790771 8 2.51241 8 4.62798V5.90698C8 6.61311 8.44788 7.1862 8.99994 7.1862C9.552 7.1862 9.99988 6.61311 9.99988 5.90698V4.62798C9.99988 3.92326 10.4489 3.34899 11 3.34899H15.6589L15.3539 3.47944C14.544 3.83754 14 4.81347 14 5.90698V25.093H11C10.4489 25.093 9.99988 24.5188 9.99988 23.814V21.2558C9.99988 20.5499 9.552 19.9768 8.99994 19.9768C8.44788 19.9768 8 20.5499 8 21.2558V23.814C8 25.9296 9.34601 27.6513 11 27.6513H14V28.9303C14 30.3411 14.8969 31.4885 15.9999 31.4885C16.2139 31.4885 16.417 31.4489 16.6369 31.3618L22.645 28.7998C23.4559 28.4417 24 27.4658 24 26.3723V3.34899C24 1.85757 22.9949 0.688424 21.8219 0.809976Z" fill="#FF8A00"/>
<path d="M10.7069 12.677L6.70698 7.56084C6.42097 7.19501 5.99103 7.08493 5.61695 7.2833C5.24396 7.48144 5.00007 7.94845 5.00007 8.4651V12.3023H0.99994C0.44806 12.3023 0 12.8754 0 13.5813C0 14.2874 0.44806 14.8605 0.99994 14.8605H5.00007V18.6977C5.00007 19.2144 5.24396 19.6812 5.61695 19.8795C5.99103 20.0777 6.42097 19.9678 6.70698 19.602L10.7069 14.4856C11.098 13.9855 11.098 13.1773 10.7069 12.677Z" fill="#FF8A00"/>
</svg>
