<svg width="30" height="22" viewBox="0 0 30 22" fill="none" xmlns="http://www.w3.org/2000/svg">
<path fill-rule="evenodd" clip-rule="evenodd" d="M27.0897 0C27.9834 0 28.777 0.405695 29.2764 1.0332L14.7733 12.5513L0.399452 1.24236C0.880048 0.497307 1.74686 0 2.73633 0H27.0897ZM0 19.1739V3.28621L10.3136 11.4007L0.0212607 19.4984C0.00723164 19.3921 0 19.2838 0 19.1739ZM0.943245 21.1312C1.42347 21.526 2.05043 21.7649 2.73633 21.7649H27.0897C27.6792 21.7649 28.2252 21.5884 28.6719 21.2881L17.7125 12.5843L15.7417 14.1495C15.1843 14.5922 14.3723 14.5939 13.8128 14.1537L11.8122 12.5797L0.943245 21.1312ZM19.2029 11.4007L29.7512 19.778C29.8001 19.5842 29.826 19.3819 29.826 19.1739V2.96392L19.2029 11.4007Z" fill="#FF8A00"/>
</svg>
