<svg width="353" height="181" viewBox="0 0 353 181" fill="none" xmlns="http://www.w3.org/2000/svg">
<path d="M105.019 149.03C103.805 160.108 99.3424 170.244 94.5817 180.008C94.4243 180.34 94.2623 180.668 94.0964 181H44.6167C43.616 180.697 42.6282 180.365 41.6445 180.008C36.056 178.025 30.7799 175.001 26.0214 171.053C7.81788 155.772 0.813151 126.898 3.97703 101.025C5.94434 84.9506 11.9993 68.5389 23.7901 59.8815C30.0155 55.3023 38.0122 53.8139 45.1787 55.5156C45.3663 55.5553 45.5536 55.6049 45.7451 55.6496C51.9109 57.267 57.4038 61.2855 60.5295 67.7599C66.1501 79.394 62.8032 93.8064 60.0398 106.755C57.2847 119.704 55.79 135.203 63.7869 144.753C61.1468 135.699 63.7528 124.898 70.0591 118.776C74.824 114.157 81.4582 112.426 87.509 113.86C88.0881 114.004 88.6588 114.167 89.2208 114.366C90.5792 114.829 91.8889 115.468 93.1255 116.271C102.557 122.408 106.377 136.542 105.019 149.03Z" fill="#F2F2F2"/>
<path d="M75.68 180.008C77.051 180.38 78.4263 180.707 79.8102 181H72.3287C71.3492 180.692 70.3741 180.365 69.4077 180.008C67.2828 179.234 65.1906 178.346 63.1311 177.344C54.8704 173.305 47.261 167.242 41.504 159.176C38.6885 155.267 36.3893 150.891 34.6825 146.192C32.8317 140.881 31.6554 135.284 31.1909 129.577C30.1476 117.868 31.2121 105.837 33.2006 94.3372C35.2528 82.418 38.5654 70.8411 43.0626 59.8716C43.6034 58.5569 44.1626 57.2504 44.7403 55.9522C44.78 55.8454 44.8401 55.7505 44.9161 55.6748C44.9921 55.5992 45.082 55.5447 45.1787 55.5156C45.3753 55.4713 45.579 55.5194 45.7451 55.6496C45.9445 55.7829 46.0924 56.0003 46.1582 56.257C46.2239 56.5137 46.2026 56.7899 46.0986 57.0288C41.4617 67.5644 37.9468 78.7205 35.632 90.2492C33.3668 101.496 32.0808 113.264 32.5193 124.829C32.9366 135.635 35.3597 146.261 40.8568 155.097C45.8771 163.164 52.8093 169.525 60.4783 173.856C65.3324 176.562 70.4314 178.625 75.68 180.008Z" fill="white"/>
<path d="M92.0993 181H89.8936C89.6466 180.673 89.4081 180.34 89.174 180.008C84.1498 172.895 80.7462 164.422 79.2779 155.37C77.4948 144.075 78.8819 132.41 83.2337 122.105C84.4479 119.216 85.8785 116.456 87.5089 113.86C88.088 114.004 88.6587 114.167 89.2207 114.366C84.9321 120.986 82.0476 128.694 80.8023 136.86C79.6915 144.512 80.0608 152.357 81.8834 159.821C83.7059 167.286 86.9357 174.183 91.3371 180.008C91.5839 180.34 91.8395 180.673 92.0993 181Z" fill="white"/>
<path d="M290.801 172.562C291.121 175.486 292.299 178.161 293.556 180.738C293.597 180.826 293.64 180.912 293.684 181H306.742C307.006 180.92 307.267 180.832 307.527 180.738C309.002 180.215 310.394 179.417 311.65 178.375C316.454 174.342 318.303 166.721 317.468 159.893C316.949 155.651 315.351 151.319 312.239 149.035C310.549 147.836 308.533 147.424 306.594 147.882C306.544 147.893 306.495 147.906 306.444 147.918C305.637 148.1 304.872 148.478 304.2 149.029C303.527 149.58 302.962 150.29 302.543 151.114C301.059 154.184 301.942 157.988 302.672 161.405C303.399 164.823 303.793 168.913 301.683 171.434C301.992 170.38 302.055 169.249 301.865 168.157C301.675 167.065 301.238 166.052 300.601 165.222C299.963 164.392 299.148 163.774 298.237 163.433C297.327 163.092 296.356 163.039 295.422 163.28C295.269 163.318 295.119 163.362 294.97 163.414C294.612 163.536 294.266 163.705 293.94 163.917C291.451 165.536 290.443 169.267 290.801 172.562Z" fill="#F2F2F2"/>
<path d="M298.544 180.738C298.182 180.836 297.819 180.923 297.454 181H299.428C299.687 180.919 299.944 180.832 300.199 180.738C300.76 180.534 301.312 180.299 301.856 180.035C304.061 178.992 306.018 177.348 307.564 175.24C308.307 174.209 308.914 173.054 309.364 171.814C309.852 170.412 310.163 168.935 310.286 167.428C310.51 164.315 310.331 161.18 309.755 158.128C309.213 154.982 308.339 151.927 307.152 149.032C307.01 148.685 306.862 148.34 306.71 147.998C306.699 147.969 306.683 147.944 306.663 147.924C306.643 147.904 306.619 147.89 306.594 147.882C306.542 147.871 306.488 147.883 306.444 147.918C306.392 147.953 306.353 148.01 306.335 148.078C306.318 148.146 306.324 148.219 306.351 148.282C307.575 151.062 308.503 154.007 309.113 157.049C309.743 160.034 310.019 163.104 309.935 166.175C309.89 169.032 309.125 171.81 307.735 174.164C306.383 176.283 304.604 177.984 302.556 179.115C301.275 179.829 299.929 180.373 298.544 180.738Z" fill="white"/>
<path d="M294.211 181H294.793C294.858 180.914 294.921 180.826 294.983 180.738C296.309 178.861 297.207 176.625 297.594 174.236C298.065 171.255 297.699 168.176 296.55 165.457C296.23 164.694 295.852 163.966 295.422 163.28C295.269 163.318 295.119 163.362 294.97 163.414C296.102 165.161 296.863 167.195 297.192 169.351C297.485 171.37 297.388 173.44 296.907 175.411C296.426 177.381 295.573 179.201 294.412 180.738C294.347 180.826 294.279 180.914 294.211 181Z" fill="white"/>
<path d="M173.098 105.43H132.228L131.794 90.7893C131.776 90.1546 131.875 89.5227 132.086 88.9371C132.297 88.3516 132.614 87.8262 133.016 87.3972C133.418 86.9682 133.895 86.6458 134.414 86.4521C134.933 86.2584 135.482 86.198 136.023 86.2752L159.807 89.6684H159.81C163.336 89.6794 166.714 91.3185 169.205 94.2264C171.695 97.1343 173.095 101.074 173.098 105.182V105.43Z" fill="#FFC700"/>
<path d="M154.882 53.4964H126.377C125.998 53.4963 125.622 53.5832 125.272 53.7522C124.922 53.9212 124.604 54.1689 124.336 54.4812C124.067 54.7936 123.855 55.1644 123.71 55.5724C123.565 55.9805 123.49 56.4179 123.49 56.8596V90.0711C123.49 90.5128 123.565 90.9502 123.71 91.3583C123.855 91.7664 124.067 92.1372 124.336 92.4495C124.604 92.7619 124.922 93.0096 125.272 93.1785C125.622 93.3475 125.998 93.4344 126.377 93.4343H154.882C155.261 93.4344 155.636 93.3475 155.987 93.1786C156.337 93.0096 156.655 92.7619 156.923 92.4495C157.191 92.1372 157.404 91.7664 157.549 91.3583C157.694 90.9502 157.768 90.5128 157.768 90.0711V56.8596C157.768 56.4179 157.694 55.9805 157.549 55.5724C157.404 55.1643 157.191 54.7935 156.923 54.4812C156.655 54.1689 156.337 53.9212 155.987 53.7522C155.636 53.5832 155.261 53.4963 154.882 53.4964Z" fill="#CCCCCC"/>
<path d="M148.462 78.3307L135.004 81.3843C134.205 81.5644 133.378 81.3681 132.704 80.8386C132.03 80.3091 131.563 79.4896 131.407 78.5599L130.372 72.3702C130.218 71.44 130.386 70.4764 130.841 69.6908C131.295 68.9052 131.999 68.3617 132.797 68.1796L146.255 65.126C147.053 64.946 147.88 65.1422 148.555 65.6717C149.229 66.2013 149.695 67.0208 149.852 67.9505L150.886 74.1402C151.041 75.0703 150.872 76.0339 150.418 76.8195C149.963 77.6051 149.26 78.1486 148.462 78.3307Z" fill="#3F3D56"/>
<path d="M145.769 71.0182L135.499 73.3486C135.311 73.3912 135.116 73.3451 134.957 73.2205C134.799 73.0959 134.689 72.9029 134.652 72.684C134.616 72.4651 134.655 72.2382 134.762 72.0533C134.869 71.8684 135.035 71.7406 135.223 71.698L145.494 69.3676C145.681 69.325 145.876 69.371 146.035 69.4957C146.194 69.6203 146.303 69.8133 146.34 70.0322C146.376 70.2511 146.337 70.4779 146.23 70.6628C146.123 70.8477 145.957 70.9756 145.769 71.0182Z" fill="white"/>
<path d="M143.773 74.4692L138.461 75.6746C138.273 75.7172 138.078 75.6711 137.919 75.5465C137.761 75.4219 137.651 75.2289 137.614 75.01C137.578 74.7911 137.617 74.5643 137.724 74.3794C137.831 74.1944 137.997 74.0666 138.185 74.024L143.497 72.8186C143.59 72.7975 143.686 72.798 143.779 72.82C143.872 72.8419 143.96 72.885 144.038 72.9467C144.117 73.0084 144.184 73.0876 144.237 73.1796C144.289 73.2717 144.325 73.3748 144.343 73.4832C144.362 73.5916 144.361 73.7031 144.342 73.8113C144.323 73.9195 144.286 74.0223 144.234 74.1139C144.181 74.2054 144.113 74.2839 144.034 74.3449C143.955 74.4059 143.866 74.4481 143.773 74.4692Z" fill="white"/>
<path d="M157.768 56.8596V61.2738H123.49V56.8596C123.49 56.4179 123.565 55.9805 123.71 55.5724C123.855 55.1644 124.067 54.7936 124.336 54.4812C124.604 54.1689 124.922 53.9212 125.272 53.7522C125.622 53.5832 125.998 53.4963 126.377 53.4964H154.882C155.261 53.4963 155.636 53.5832 155.987 53.7522C156.337 53.9212 156.655 54.1689 156.923 54.4812C157.191 54.7936 157.404 55.1644 157.549 55.5724C157.694 55.9805 157.768 56.4179 157.768 56.8596Z" fill="#B3B3B3"/>
<path d="M229.305 73.0933L215.253 80.5351L217.098 88.6274C220.661 104.254 221.606 120.534 219.883 136.578L230.157 139.078L238.673 113.775L235.692 85.0002L229.305 73.0933Z" fill="#FFC700"/>
<path d="M256.877 110.551C247.644 110.551 240.12 118.37 239.755 128.163H273.998C273.633 118.37 266.109 110.551 256.877 110.551Z" fill="#3F3D56"/>
<path d="M249.69 112.238C249.209 68.0344 227.602 72.101 227.602 72.101C227.602 72.101 228.006 85.8602 228.2 86.2881C241.969 116.641 219.245 152.225 190.32 145.678C189.774 145.555 189.251 145.43 188.748 145.303C185.083 144.411 181.847 141.927 179.698 138.354C177.55 134.782 176.65 130.39 177.181 126.072C180.031 99.4122 165.859 99.8839 165.859 99.8839H145.136L134.374 88.5992C133.994 88.2008 133.536 87.917 133.041 87.7725C132.545 87.628 132.026 87.6271 131.53 87.7701C131.034 87.9131 130.576 88.1955 130.195 88.5927C129.814 88.9898 129.523 89.4896 129.346 90.0483L127.961 94.4266C127.961 94.4266 107.522 96.9072 109.226 120.225H115.545C115.529 120.888 115.552 121.55 115.613 122.209L162.772 121.763C165.536 121.737 167.976 124.346 167.988 127.567C167.991 128.351 167.858 129.128 167.597 129.851C167.336 130.574 166.953 131.228 166.47 131.774C165.987 132.321 165.415 132.748 164.787 133.031C164.16 133.313 163.489 133.446 162.817 133.419L155.213 133.124C152.872 145.279 158.62 153.465 164.954 158.612C170.918 163.388 177.994 165.921 185.23 165.868H205.885C232.712 165.868 237.396 139.574 237.396 139.574C251.447 132.628 249.69 112.238 249.69 112.238Z" fill="#3F3D56"/>
<path d="M255.599 180.256C268.827 180.256 279.551 167.761 279.551 152.349C279.551 136.936 268.827 124.442 255.599 124.442C242.371 124.442 231.647 136.936 231.647 152.349C231.647 167.761 242.371 180.256 255.599 180.256Z" fill="#3F3D56"/>
<path d="M255.599 159.189C258.841 159.189 261.47 156.126 261.47 152.349C261.47 148.571 258.841 145.509 255.599 145.509C252.357 145.509 249.729 148.571 249.729 152.349C249.729 156.126 252.357 159.189 255.599 159.189Z" fill="white"/>
<path d="M134.668 180.256C149.895 180.256 162.239 165.873 162.239 148.132C162.239 130.39 149.895 116.008 134.668 116.008C119.441 116.008 107.096 130.39 107.096 148.132C107.096 165.873 119.441 180.256 134.668 180.256Z" fill="#3F3D56"/>
<path d="M134.668 156.005C138.4 156.005 141.426 152.48 141.426 148.132C141.426 143.783 138.4 140.258 134.668 140.258C130.936 140.258 127.91 143.783 127.91 148.132C127.91 152.48 130.936 156.005 134.668 156.005Z" fill="white"/>
<path d="M215.293 82.734L210.237 66.7343C209.974 65.9004 209.854 65.0142 209.884 64.1264C209.915 63.2385 210.095 62.3663 210.415 61.5596C210.735 60.7529 211.188 60.0275 211.748 59.4247C212.308 58.822 212.965 58.3538 213.681 58.0468L228.176 51.8298C229.435 51.2895 230.773 51.0435 232.114 51.1058C233.455 51.1681 234.772 51.5375 235.99 52.193C237.209 52.8484 238.304 53.777 239.215 54.9258C240.125 56.0745 240.832 57.4209 241.296 58.8881C241.714 60.205 241.927 61.5981 241.926 63.0022C241.921 64.7851 241.575 66.5441 240.913 68.1515C240.251 69.7589 239.289 71.1742 238.099 72.2946C237.239 73.0983 236.273 73.7332 235.238 74.1744L215.293 82.734Z" fill="#3F3D56"/>
<path d="M241.713 63.0021C241.712 64.7487 241.375 66.4727 240.726 68.0473C240.078 69.6219 239.135 71.0071 237.966 72.101C236.173 71.55 234.505 70.5507 233.077 69.1725C231.649 67.7943 230.496 66.0704 229.697 64.1204C228.899 62.1705 228.475 60.0414 228.454 57.8812C228.434 55.7209 228.817 53.5813 229.578 51.6111C231.038 51.2411 232.551 51.2569 234.006 51.6573C235.461 52.0577 236.82 52.8326 237.984 53.9251C239.148 55.0176 240.087 56.4 240.732 57.9707C241.378 59.5415 241.713 61.2607 241.713 63.0021Z" fill="#FFC700"/>
<path d="M112.845 123.45C116.137 123.45 118.806 119.674 118.806 115.016C118.806 110.358 116.137 106.582 112.845 106.582C109.553 106.582 106.884 110.358 106.884 115.016C106.884 119.674 109.553 123.45 112.845 123.45Z" fill="#FFC700"/>
<path d="M221.002 71.3569C222.648 71.3569 223.982 69.802 223.982 67.884C223.982 65.966 222.648 64.4111 221.002 64.4111C219.356 64.4111 218.021 65.966 218.021 67.884C218.021 69.802 219.356 71.3569 221.002 71.3569Z" fill="#FFC700"/>
<path d="M353 180.504C353 180.635 352.955 180.761 352.875 180.854C352.795 180.947 352.687 181 352.574 181H0.425814C0.312881 181 0.204573 180.948 0.124718 180.855C0.0448621 180.762 0 180.635 0 180.504C0 180.372 0.0448621 180.246 0.124718 180.153C0.204573 180.06 0.312881 180.008 0.425814 180.008H352.574C352.687 180.008 352.795 180.061 352.875 180.153C352.955 180.246 353 180.372 353 180.504Z" fill="#3F3D56"/>
</svg>
