<svg width="353" height="181" viewBox="0 0 353 181" fill="none" xmlns="http://www.w3.org/2000/svg">
<g clip-path="url(#clip0_1688_99)">
<path d="M175.852 44.6684L175.842 44.7301L175.817 44.9084L173.221 63.5437L157.326 69.378L157.077 69.259L148.177 65.0309L143.575 47.3681L143.26 46.1556L143.356 46.1188L163.043 38.7196L175.84 44.6613L175.852 44.6684Z" fill="#FFC700"/>
<path d="M157.077 69.2589L148.177 65.0309L143.26 46.1556L143.356 46.1187L156.182 51.532L157.077 69.2589Z" fill="#FFC700"/>
<path opacity="0.2" d="M157.3 69.0435L150.53 56.0663L151.4 52.3873L147.305 47.5638L146.957 47.8601L150.901 52.507L147.955 64.9781L148.4 65.0837L150.37 56.7471L156.894 69.255L157.3 69.0435Z" fill="black"/>
<path d="M175.852 44.897L175.817 44.9084L156.182 51.761L143.575 47.3681L143.26 46.1556L143.356 46.1188L163.043 38.7196L175.84 44.6613L175.842 44.7301L175.852 44.897Z" fill="#3F3D56"/>
<path d="M156.525 52.1041L152.523 49.0155L153.437 45.5836L164.873 41.4651L172.649 41.9226L175.737 44.5539L175.966 45.2401L156.525 52.1041Z" fill="#FFC700"/>
<path d="M143.489 46.1556L152.523 45.8122L157.417 44.1506L165.047 41.465L166.474 39.4061L162.913 38.7685L143.489 46.1556Z" fill="#FFC700"/>
<path d="M161.488 42.4738L156.777 44.1275L156.929 44.5592L161.639 42.9055L161.488 42.4738Z" fill="#CCCCCC"/>
<path d="M99.4426 15.7169L97.2342 26.7621L107.54 34.4941L112.324 20.1349L99.4426 15.7169Z" fill="#9F616A"/>
<path d="M107.724 25.8419C113.212 25.8419 117.661 21.3912 117.661 15.901C117.661 10.4108 113.212 5.96011 107.724 5.96011C102.235 5.96011 97.7863 10.4108 97.7863 15.901C97.7863 21.3912 102.235 25.8419 107.724 25.8419Z" fill="#9F616A"/>
<path d="M86.1928 91.2214C86.2382 94.4286 100.202 130.123 98.2629 134.771C95.2068 137.896 88.633 154.529 85.8245 158.967C85.4567 158.967 83.6164 164.489 83.6164 164.489C83.6164 164.489 88.033 171.485 92.8177 168.539C98.8339 154.384 113.901 146.49 114.167 128.041C114.894 133.869 117.041 171.277 117.041 171.277C117.041 171.277 116.629 171.452 125.899 172.341C127.338 150.629 133.219 113.691 120.053 90.4847C116.005 88.6441 86.1928 91.2214 86.1928 91.2214Z" fill="#2F2E41"/>
<path d="M117.041 170.549C116.61 171.377 113.525 179.018 116.333 179.784C119.571 180.667 122.71 179.429 122.71 179.429C122.71 179.429 128.379 181.202 131.848 178.949C133.468 177.329 133.1 175.857 132.327 174.789C131.934 174.263 131.431 173.83 130.854 173.518C130.276 173.207 129.638 173.025 128.983 172.986C127.222 172.861 126.663 172.534 126.461 171.727C126.167 170.549 117.041 170.549 117.041 170.549Z" fill="#2F2E41"/>
<path d="M86.7569 163.877C86.7569 163.877 78.8464 166.376 80.5118 169.291C81.5934 171.098 83.1726 172.555 85.0604 173.487C85.0604 173.487 86.7102 180.291 91.29 180.291C93.5799 180.291 94.3605 178.99 94.5686 177.688C94.6628 177.038 94.614 176.376 94.4257 175.747C94.2375 175.119 93.9142 174.538 93.4786 174.048C92.3225 172.713 92.1578 172.087 92.5856 171.374C93.2101 170.333 86.7569 163.877 86.7569 163.877Z" fill="#2F2E41"/>
<path d="M121.895 92.2992C121.895 92.2992 120.421 95.2446 114.533 94.1387C108.644 93.0364 85.4583 94.1387 85.4583 94.1387C85.4583 94.1387 86.7444 67.815 83.8001 51.9825C80.8558 36.15 92.4488 27.1297 92.4488 27.1297L96.13 23.4472C99.8112 23.0821 107.585 34.509 107.585 34.509C110.143 34.9379 112.531 45.8154 114.568 56.1081C114.689 56.6965 114.802 57.2777 114.915 57.859C115.854 62.658 117.162 67.9993 117.945 72.7948C118.001 73.1351 118.055 73.4718 118.104 73.8085C119.035 80.0357 120.3 86.2082 121.895 92.2992Z" fill="#E6E6E6"/>
<path d="M96.0983 9.7112C96.0983 9.7112 94.2403 5.62228 99.071 3.76367C99.071 3.76367 103.158 -2.9273 111.333 1.53335C111.333 1.53335 116.907 3.76367 116.907 9.7112C116.907 15.6587 118.765 16.7739 118.765 16.7739C118.765 16.7739 115.998 13.9344 115.255 11.7041C114.512 9.47377 108.732 8.96777 106.503 11.1981C104.273 13.4284 98.6994 13.0567 98.6994 13.0567L99.071 21.2345C99.071 21.2345 97.213 16.4022 96.4699 16.4022C95.7267 16.4022 94.9835 9.7112 96.0983 9.7112Z" fill="#2F2E41"/>
<path opacity="0.2" d="M117.945 72.7948C109.165 68.0206 94.9431 57.5507 90.3548 51.8868C84.3068 44.426 90.904 38.7551 90.904 38.7551C98.3834 34.0341 107.326 50.2316 107.326 50.2316L114.568 56.1081C114.689 56.6965 114.802 57.2777 114.915 57.859C115.854 62.658 117.162 67.9993 117.945 72.7948Z" fill="black"/>
<path d="M144.154 67.293C144.154 67.293 157.207 72.5938 159.355 66.6351C161.503 60.6763 149.05 60.7786 149.05 60.7786L144.161 61.4716L144.154 67.293Z" fill="#9F616A"/>
<path d="M89.2309 36.3303C89.2309 36.3303 82.6369 42.0046 88.6806 49.4629C94.7243 56.9212 122.5 72.857 122.5 72.857L140.592 67.9643L145.712 68.9015L146.677 59.2856L139.134 60.0222L119.987 55.9438L107.778 46.0335C107.778 46.0335 96.7084 31.6118 89.2309 36.3303Z" fill="#E6E6E6"/>
<path opacity="0.2" d="M113.253 104.686L114.406 131.651L111.481 104.686H113.253Z" fill="black"/>
<path d="M237.804 85.3965L227.331 87.8239C226.521 88.0117 225.67 87.8761 224.958 87.4459C224.246 87.0157 223.73 86.3249 223.52 85.5201C223.397 85.0534 223.382 84.5651 223.476 84.0918C223.569 83.6185 223.768 83.1724 224.059 82.7871C224.349 82.4018 224.722 82.0872 225.151 81.867C225.581 81.6467 226.054 81.5264 226.536 81.5152L236.652 81.2798L237.804 85.3965Z" fill="#FFB9B9"/>
<path d="M236.692 86.9339L234.366 79.9537L248.31 75.1892L244.609 42.5865C251.273 43.7984 254.444 49.0399 254.147 55.8082L255.951 78.0554L236.692 86.9339Z" fill="#3F3D56"/>
<path d="M246.326 35.3985H269.108V24.0653C269.116 21.0045 267.917 18.064 265.771 15.882C264.723 14.807 263.47 13.9531 262.087 13.3708C260.703 12.7884 259.217 12.4895 257.716 12.4916C254.719 12.4972 251.844 13.6827 249.713 15.7918C247.582 17.9009 246.367 20.7642 246.33 23.7626C246.328 23.8664 246.326 23.965 246.326 24.0653L246.326 35.3985Z" fill="#2F2E41"/>
<path d="M278.633 168.579L271.351 167.743L262.636 108.867L244.609 167.982L236.73 168.22L245.684 95.4913L244.371 78.8914L266.695 71.8454C282.507 82.887 282.179 121.887 278.633 168.579Z" fill="#2F2E41"/>
<path d="M255.712 33.152C260.459 33.152 264.307 29.3023 264.307 24.5535C264.307 19.8046 260.459 15.955 255.712 15.955C250.965 15.955 247.116 19.8046 247.116 24.5535C247.116 29.3023 250.965 33.152 255.712 33.152Z" fill="#FFB9B9"/>
<path d="M264.307 40.0786L249.743 43.9002C252.197 39.1794 252.982 34.7726 251.653 30.7635L261.92 29.0916C261.26 32.9251 262.116 36.8651 264.307 40.0786Z" fill="#FFB9B9"/>
<path d="M269.202 75.0698C261.033 80.2668 251.517 86.2369 244.49 80.4439L241.147 64.2022C238.491 61.835 239.669 54.5304 243.26 44.1185C243.488 43.4576 243.864 42.8574 244.358 42.3632C244.853 41.8691 245.453 41.4941 246.114 41.2666L251.653 39.362C254.108 41.427 258.131 40.1954 262.875 37.4513L268.366 38.8844L270.754 56.7979C267.307 61.9637 267.909 68.8421 269.202 75.0698Z" fill="#3F3D56"/>
<path d="M262.397 82.0526L251.924 84.4801C251.114 84.6679 250.263 84.5322 249.551 84.102C248.839 83.6719 248.323 82.981 248.112 82.1763C247.99 81.7096 247.975 81.2212 248.068 80.7479C248.162 80.2746 248.361 79.8286 248.651 79.4433C248.941 79.058 249.315 78.7434 249.744 78.5231C250.173 78.3028 250.646 78.1825 251.129 78.1713L261.244 77.936L262.397 82.0526Z" fill="#FFB9B9"/>
<path d="M277.367 179.835C276.144 180.393 275.12 176.933 274.088 177.947C271.202 180.784 264.28 180.148 264.28 180.148C264.047 180.073 263.832 179.952 263.648 179.792C263.464 179.631 263.314 179.435 263.208 179.216C263.102 178.996 263.041 178.757 263.03 178.513C263.019 178.269 263.057 178.025 263.143 177.796C263.245 177.523 263.413 177.278 263.631 177.083C263.849 176.889 264.111 176.75 264.394 176.679L267.463 175.912L272.282 167.434L277.534 166.769L277.666 166.986C278.681 168.623 279.336 170.458 279.586 172.368C279.836 174.278 279.677 176.219 279.117 178.062C278.681 179.462 278.086 179.507 277.367 179.835Z" fill="#2F2E41"/>
<path d="M242.747 179.835C241.524 180.393 240.499 176.933 239.468 177.947C236.582 180.784 229.659 180.148 229.659 180.148C229.427 180.073 229.212 179.952 229.028 179.792C228.843 179.631 228.693 179.435 228.587 179.216C228.481 178.996 228.42 178.757 228.409 178.513C228.398 178.269 228.436 178.025 228.522 177.796C228.625 177.523 228.792 177.278 229.01 177.083C229.228 176.889 229.49 176.75 229.774 176.679L232.843 175.912L237.661 167.434L242.913 166.769L243.046 166.986C244.061 168.623 244.715 170.458 244.966 172.368C245.216 174.278 245.056 176.219 244.497 178.062C244.06 179.462 243.465 179.507 242.747 179.835Z" fill="#2F2E41"/>
<path d="M265.788 17.3816L263.624 24.2716L244.907 23.9388C244.971 21.5282 245.786 19.1977 247.238 17.273C248.691 15.3483 250.708 13.9254 253.008 13.2031C255.308 12.4809 257.776 12.4953 260.067 13.2445C262.359 13.9936 264.359 15.44 265.788 17.3816Z" fill="#2F2E41"/>
<path d="M261.285 83.5901L258.959 76.6099L272.903 71.8454L267.628 38.5361C270.85 39.1222 273.751 40.8559 275.794 43.4166C277.837 45.9772 278.883 49.1914 278.739 52.4643L280.543 74.7115L261.285 83.5901Z" fill="#3F3D56"/>
<path d="M227.98 64.7718L213.478 67.8919L210.515 53.6178L215.973 46.2857L220.885 45.3496L226.343 50.8876L227.98 64.7718Z" fill="#CCCCCC"/>
<path d="M221.275 65.3942H212.541L211.351 59.5142L210.047 53.0706L211.996 50.2635L215.741 51.4331L219.794 57.0509L220.811 62.775L220.882 63.1826L221.275 65.3942Z" fill="#E6E6E6"/>
<path d="M235.934 61.9637L225.875 63.1336L227.669 50.3418L231.723 46.6756L235.232 47.5337L237.571 52.9157L235.934 61.9637Z" fill="#CCCCCC"/>
<path d="M237.258 54.3962L236.322 59.5461L233.282 77.094L221.587 80.8404L221.183 80.6206L214.88 77.172L211.333 59.5071L211.351 59.5142L220.729 63.2889L220.811 62.775L220.867 62.4028L221.587 57.8306L224.782 54.3962L235.465 51.823L237.258 54.3962Z" fill="#E6E6E6"/>
<path d="M229.852 53.8517C231.23 53.8517 232.347 52.7342 232.347 51.3557C232.347 49.9772 231.23 48.8597 229.852 48.8597C228.474 48.8597 227.357 49.9772 227.357 51.3557C227.357 52.7342 228.474 53.8517 229.852 53.8517Z" fill="#E6E6E6"/>
<path d="M223.717 52.6439L218.025 53.6579L218.053 53.8114L223.745 52.7975L223.717 52.6439Z" fill="white"/>
<path d="M221.183 80.6206L214.88 77.172L211.333 59.5071L211.351 59.5142L210.047 53.0706L211.996 50.2635L215.741 51.4331L219.794 57.0509L220.811 62.775L220.867 62.4028L220.882 63.1826L220.921 65.3942L221.183 80.6206Z" fill="#F2F2F2"/>
<path d="M214.956 77.194L214.806 77.1536L217.915 65.4906L214.355 60.7955L214.479 60.7012L218.085 65.4569L214.956 77.194Z" fill="#CCCCCC"/>
<path d="M216.712 70.5356L216.571 70.6033L221.516 80.8736L221.657 80.8059L216.712 70.5356Z" fill="#CCCCCC"/>
<path opacity="0.2" d="M236.644 58.4773L236.058 61.7135L236.029 61.7166L233.407 76.8455L221.711 80.5895L221.641 80.6231L221.595 80.5256L215.006 76.9235L214.93 76.9033L214.971 76.7504L211.458 59.2565L211.476 59.2635L211.087 57.3431L211.378 56.9243L212.277 55.6295L216.019 56.7995L220.074 62.4155L220.133 62.7493L220.559 65.1455L220.73 66.108L221.091 68.1415L221.434 65.9567L221.557 65.1705L221.867 63.1955L225.064 59.7635L226.486 59.4211L227.475 59.1824L228.837 58.8548C228.414 58.5981 228.078 58.2217 227.87 57.7735C227.661 57.3252 227.591 56.8252 227.667 56.3368C227.743 55.8485 227.963 55.3937 228.298 55.0303C228.632 54.6668 229.068 54.411 229.548 54.2952C230.028 54.1794 230.532 54.2089 230.996 54.3799C231.459 54.551 231.862 54.8558 232.152 55.2559C232.442 55.656 232.607 56.1332 232.626 56.6271C232.645 57.121 232.516 57.6094 232.257 58.0303L235.747 57.1895L236.607 58.4242L236.644 58.4773Z" fill="black"/>
<path d="M221.555 71.5415H212.822L210.327 59.2175L212.277 56.4093L216.019 57.5793L220.074 63.1953L221.555 71.5415Z" fill="#E6E6E6"/>
<path d="M233.563 83.2416L221.867 86.9855L215.162 83.3196L211.614 65.6526L221.01 69.4354L221.867 63.9754L225.064 60.5434L235.746 57.9695L237.54 60.5434L236.604 65.6916L233.563 83.2416Z" fill="#E6E6E6"/>
<path d="M230.132 59.9975C231.51 59.9975 232.628 58.88 232.628 57.5015C232.628 56.123 231.51 55.0055 230.132 55.0055C228.754 55.0055 227.637 56.123 227.637 57.5015C227.637 58.88 228.754 59.9975 230.132 59.9975Z" fill="#E6E6E6"/>
<path d="M221.47 86.646L215.167 83.1974L211.62 65.5324L211.638 65.5395L210.334 59.096L212.283 56.2888L216.028 57.4585L220.081 63.0762L221.098 68.8003L221.154 68.4282L221.169 69.2079L221.207 71.4196L221.47 86.646Z" fill="#F2F2F2"/>
<path d="M215.237 83.3395L215.086 83.2994L218.196 71.6361L214.635 66.941L214.759 66.8467L218.366 71.6028L215.237 83.3395Z" fill="#CCCCCC"/>
<path d="M216.992 76.6814L216.852 76.7491L221.797 87.0194L221.938 86.9517L216.992 76.6814Z" fill="#CCCCCC"/>
<path d="M319.392 164.844L304.889 167.964L301.926 153.69L307.384 146.358L312.296 145.422L317.754 150.96L319.392 164.844Z" fill="#CCCCCC"/>
<path d="M312.686 165.467H303.952L302.762 159.587L301.458 153.143L303.407 150.336L307.152 151.506L311.205 157.123L312.222 162.848L312.293 163.255L312.686 165.467Z" fill="#E6E6E6"/>
<path d="M327.345 162.036L317.286 163.207L319.08 150.414L323.134 146.749L326.643 147.606L328.982 152.988L327.345 162.036Z" fill="#CCCCCC"/>
<path d="M328.669 154.469L327.733 159.619L324.693 177.167L312.998 180.913L312.594 180.693L306.291 177.245L302.744 159.58L302.762 159.587L312.14 163.361L312.222 162.848L312.279 162.475L312.998 157.903L316.194 154.469L326.876 151.896L328.669 154.469Z" fill="#E6E6E6"/>
<path d="M321.263 153.924C322.641 153.924 323.758 152.807 323.758 151.428C323.758 150.05 322.641 148.932 321.263 148.932C319.885 148.932 318.768 150.05 318.768 151.428C318.768 152.807 319.885 153.924 321.263 153.924Z" fill="#E6E6E6"/>
<path d="M315.128 152.717L309.436 153.731L309.464 153.884L315.156 152.87L315.128 152.717Z" fill="white"/>
<path d="M312.594 180.693L306.291 177.245L302.744 159.58L302.762 159.587L301.458 153.143L303.407 150.336L307.152 151.506L311.205 157.123L312.222 162.848L312.279 162.475L312.293 163.255L312.332 165.467L312.594 180.693Z" fill="#F2F2F2"/>
<path d="M306.368 177.267L306.217 177.227L309.326 165.563L305.766 160.868L305.89 160.774L309.496 165.53L306.368 177.267Z" fill="#CCCCCC"/>
<path d="M308.123 170.608L307.982 170.676L312.928 180.946L313.068 180.879L308.123 170.608Z" fill="#CCCCCC"/>
<path d="M348.049 179.552H338.483L337.066 161.121H349.467L348.049 179.552Z" fill="#E6E6E6"/>
<path d="M349.644 168.565H336.888V171.4H349.644V168.565Z" fill="#F2F2F2"/>
<path d="M352.921 162.445L350.882 161.844L350.855 161.097L341.792 158.426L341.365 159.04L339.326 158.439L338.046 160.278L353 164.685L352.921 162.445Z" fill="#CCCCCC"/>
<path d="M52.9072 156.29L52.898 156.352L52.8728 156.53L50.2768 175.166L34.3812 181L34.1321 180.881L25.2327 176.653L20.6309 158.99L20.3156 157.777L20.4116 157.741L40.099 150.342L52.8955 156.283L52.9072 156.29Z" fill="#FFC700"/>
<path d="M34.1321 180.881L25.2327 176.653L20.3156 157.777L20.4116 157.741L33.2379 163.154L34.1321 180.881Z" fill="#FFC700"/>
<path opacity="0.2" d="M34.3554 180.665L27.586 167.688L28.4554 164.009L24.3607 159.186L24.0121 159.482L27.9569 164.129L25.0102 176.6L25.4555 176.705L27.4251 168.369L33.9497 180.877L34.3554 180.665Z" fill="black"/>
<path d="M52.9072 156.519L52.8728 156.53L33.2379 163.383L20.6309 158.99L20.3156 157.777L20.4116 157.741L40.099 150.342L52.8955 156.283L52.898 156.352L52.9072 156.519Z" fill="#3F3D56"/>
<path d="M33.5808 163.726L29.5782 160.637L30.4931 157.205L41.9287 153.087L49.705 153.545L52.7928 156.176L53.0213 156.862L33.5808 163.726Z" fill="#FFC700"/>
<path d="M20.5441 157.777L29.5782 157.434L34.4723 155.772L42.1026 153.087L43.5298 151.028L39.969 150.391L20.5441 157.777Z" fill="#FFC700"/>
<path d="M38.5433 154.096L33.8327 155.749L33.9842 156.181L38.6947 154.527L38.5433 154.096Z" fill="#CCCCCC"/>
<path d="M12.7551 179.976H3.18877L1.77155 161.545H14.1723L12.7551 179.976Z" fill="#FFC700"/>
<path d="M14.3494 168.988H1.59439V171.824H14.3494V168.988Z" fill="#E6E6E6"/>
<path d="M14.8809 160.482H12.755L12.5187 159.773H3.07078L2.83445 160.482H0.708613L0 162.609H15.5895L14.8809 160.482Z" fill="#3F3D56"/>
<path d="M286.4 179.759H71.656V180.467H286.4V179.759Z" fill="#3F3D56"/>
</g>
<defs>
<clipPath id="clip0_1688_99">
<rect width="353" height="181" fill="white"/>
</clipPath>
</defs>
</svg>
