<svg width="123" height="109" viewBox="0 0 123 109" fill="none" xmlns="http://www.w3.org/2000/svg">
<path d="M61.5 0C46.6396 0 34.5938 12.0092 34.5938 26.8242C34.5938 38.8014 52.1789 60.6312 58.9161 68.555C60.2807 70.1602 62.7215 70.1602 64.0839 68.555C70.8211 60.6312 88.4062 38.8014 88.4062 26.8242C88.4062 12.0092 76.3604 0 61.5 0ZM61.5 35.7656C56.5458 35.7656 52.5312 31.7633 52.5312 26.8242C52.5312 21.8852 56.5458 17.8828 61.5 17.8828C66.4542 17.8828 70.4688 21.8852 70.4688 26.8242C70.4688 31.7633 66.4542 35.7656 61.5 35.7656ZM4.29646 45.9737C3.0284 46.4794 1.94137 47.3522 1.17557 48.4795C0.409762 49.6069 0.000303701 50.9371 0 52.2987L0 105.589C0 107.999 2.44078 109.647 4.6851 108.753L34.1667 95.375V45.7545C32.279 42.3525 30.7351 39.0399 29.6289 35.8721L4.29646 45.9737ZM61.5 76.5704C58.4955 76.5704 55.6532 75.2547 53.7036 72.9597C49.5054 68.0207 45.0402 62.3961 41 56.6268V95.3729L82 108.998V56.6289C77.9598 62.3961 73.4968 68.0228 69.2964 72.9619C67.3468 75.2547 64.5045 76.5704 61.5 76.5704ZM118.315 34.3095L88.8333 47.6875V109L118.704 97.0888C119.972 96.5834 121.059 95.7106 121.825 94.5832C122.591 93.4558 123 92.1254 123 90.7638V37.473C123 35.0631 120.559 33.4153 118.315 34.3095Z" fill="white"/>
</svg>
