<svg width="139" height="81" viewBox="0 0 139 81" fill="none" xmlns="http://www.w3.org/2000/svg">
<g clip-path="url(#clip0_1727_204)">
<g opacity="0.1">
<path d="M102.197 79.8053C103.681 79.8053 104.883 78.2257 104.883 76.2771C104.883 74.3286 103.681 72.749 102.197 72.749C100.713 72.749 99.5107 74.3286 99.5107 76.2771C99.5107 78.2257 100.713 79.8053 102.197 79.8053Z" fill="#3F3D56"/>
<path d="M104.323 61.1835C104.699 60.528 104.894 59.7836 104.888 59.0271C104.888 57.0745 103.686 55.499 102.202 55.499C100.718 55.499 99.5168 57.0782 99.5168 59.0271C99.5092 59.7832 99.7028 60.5276 100.077 61.1835C99.7098 61.8422 99.5168 62.5844 99.5168 63.3393C99.5168 64.0942 99.7098 64.8365 100.077 65.4951C99.7098 66.154 99.5168 66.8964 99.5168 67.6515C99.5168 68.4066 99.7098 69.1491 100.077 69.8079C99.7028 70.4639 99.5092 71.2083 99.5168 71.9643C99.5168 73.9169 100.72 75.4924 102.202 75.4924C103.684 75.4924 104.888 73.9133 104.888 71.9643C104.896 71.2083 104.702 70.4639 104.328 69.8079C104.695 69.1491 104.888 68.4066 104.888 67.6515C104.888 66.8964 104.695 66.154 104.328 65.4951C104.695 64.8365 104.888 64.0942 104.888 63.3393C104.888 62.5844 104.695 61.8422 104.328 61.1835H104.323Z" fill="#3F3D56"/>
<path d="M102.197 58.2437C103.681 58.2437 104.883 56.6641 104.883 54.7155C104.883 52.767 103.681 51.1874 102.197 51.1874C100.713 51.1874 99.5107 52.767 99.5107 54.7155C99.5107 56.6641 100.713 58.2437 102.197 58.2437Z" fill="#3F3D56"/>
<path d="M102.197 53.9308C103.681 53.9308 104.883 52.3513 104.883 50.4027C104.883 48.4542 103.681 46.8746 102.197 46.8746C100.713 46.8746 99.5107 48.4542 99.5107 50.4027C99.5107 52.3513 100.713 53.9308 102.197 53.9308Z" fill="#3F3D56"/>
<path d="M112.252 20.8916C112.618 20.4226 112.952 19.9288 113.251 19.4137L106.198 18.2507L113.832 18.3081C114.563 16.7092 114.962 14.9775 115.004 13.2186C115.046 11.4598 114.73 9.71091 114.075 8.07889L103.833 13.407L113.279 6.44359C112.394 4.91042 111.204 3.57652 109.783 2.52492C108.362 1.47333 106.74 0.726546 105.019 0.331061C103.297 -0.0644244 101.514 -0.100147 99.778 0.226119C98.0424 0.552384 96.3924 1.23365 94.9305 2.22752C93.4687 3.22138 92.2263 4.50656 91.2808 6.00307C90.3353 7.49958 89.7068 9.17538 89.4346 10.9261C89.1623 12.6769 89.2521 14.4652 89.6983 16.1796C90.1445 17.8941 90.9375 19.498 92.0281 20.8916C91.4565 21.6212 90.9648 22.4105 90.5615 23.2457L99.7224 28.0223L89.9547 24.7273C89.2674 26.7611 89.0965 28.9349 89.4575 31.0518C89.8185 33.1686 90.6999 35.1617 92.0221 36.8505C90.5294 38.7548 89.6009 41.0422 89.3426 43.4511C89.0844 45.8601 89.5068 48.2933 90.5616 50.4727C91.6164 52.652 93.2611 54.4896 95.3075 55.7751C97.3539 57.0607 99.7196 57.7425 102.134 57.7425C104.548 57.7425 106.914 57.0607 108.96 55.7751C111.007 54.4896 112.651 52.652 113.706 50.4727C114.761 48.2933 115.183 45.8601 114.925 43.4511C114.667 41.0422 113.738 38.7548 112.246 36.8505C114.029 34.5749 114.999 31.7638 114.999 28.8686C114.999 25.9734 114.029 23.1623 112.246 20.8867L112.252 20.8916Z" fill="white"/>
<path opacity="0.1" d="M89.2749 28.8741C89.2705 31.7698 90.2406 34.5822 92.0282 36.8554C90.5355 38.7597 89.607 41.0471 89.3487 43.456C89.0905 45.8649 89.5129 48.2982 90.5677 50.4775C91.6226 52.6569 93.2672 54.4944 95.3136 55.78C97.3601 57.0656 99.7257 57.7474 102.14 57.7474C104.554 57.7474 106.92 57.0656 108.966 55.78C111.013 54.4944 112.657 52.6569 113.712 50.4775C114.767 48.2982 115.19 45.8649 114.931 43.456C114.673 41.0471 113.745 38.7597 112.252 36.8554C113.976 34.6587 89.2749 27.4243 89.2749 28.8741Z" fill="black"/>
</g>
<g opacity="0.1">
<path d="M26.8527 76.0319C27.7554 76.0319 28.4871 75.0702 28.4871 73.884C28.4871 72.6978 27.7554 71.7361 26.8527 71.7361C25.95 71.7361 25.2183 72.6978 25.2183 73.884C25.2183 75.0702 25.95 76.0319 26.8527 76.0319Z" fill="#3F3D56"/>
<path d="M28.1526 64.6958C28.3808 64.2963 28.4987 63.8431 28.4944 63.3827C28.4944 62.1965 27.7647 61.2348 26.8587 61.2348C25.9527 61.2348 25.2243 62.1965 25.2243 63.3827C25.2195 63.843 25.337 64.2962 25.5648 64.6958C25.3415 65.097 25.2244 65.5488 25.2244 66.0083C25.2244 66.4678 25.3415 66.9196 25.5648 67.3208C25.3415 67.722 25.2244 68.1738 25.2244 68.6333C25.2244 69.0928 25.3415 69.5447 25.5648 69.9458C25.3369 70.3449 25.2193 70.7978 25.2243 71.2577C25.2243 72.4452 25.9539 73.4068 26.8587 73.4068C27.7635 73.4068 28.4944 72.4452 28.4944 71.2577C28.4989 70.7977 28.381 70.3448 28.1526 69.9458C28.3765 69.5449 28.4941 69.0929 28.4941 68.6333C28.4941 68.1737 28.3765 67.7218 28.1526 67.3208C28.3765 66.9199 28.4941 66.4679 28.4941 66.0083C28.4941 65.5487 28.3765 65.0967 28.1526 64.6958Z" fill="#3F3D56"/>
<path d="M26.8527 62.9055C27.7554 62.9055 28.4871 61.9439 28.4871 60.7576C28.4871 59.5714 27.7554 58.6098 26.8527 58.6098C25.95 58.6098 25.2183 59.5714 25.2183 60.7576C25.2183 61.9439 25.95 62.9055 26.8527 62.9055Z" fill="#3F3D56"/>
<path d="M26.8527 60.2805C27.7554 60.2805 28.4871 59.3188 28.4871 58.1326C28.4871 56.9464 27.7554 55.9847 26.8527 55.9847C25.95 55.9847 25.2183 56.9464 25.2183 58.1326C25.2183 59.3188 25.95 60.2805 26.8527 60.2805Z" fill="#3F3D56"/>
<path d="M20.7345 40.1662C20.5113 39.8809 20.3081 39.5804 20.1264 39.2668L24.4229 38.559L19.7762 38.5944C19.3313 37.6215 19.0887 36.5679 19.0629 35.4979C19.0372 34.4278 19.229 33.3637 19.6266 32.3705L25.8567 35.6179L20.1082 31.371C20.6474 30.4383 21.372 29.6269 22.2371 28.9873C23.1022 28.3477 24.0891 27.8935 25.1366 27.6532C26.1841 27.4128 27.2696 27.3913 28.3257 27.59C29.3819 27.7887 30.3859 28.2033 31.2755 28.8082C32.165 29.413 32.921 30.195 33.4965 31.1057C34.0719 32.0163 34.4545 33.036 34.6204 34.1014C34.7862 35.1667 34.7319 36.255 34.4606 37.2983C34.1894 38.3417 33.7072 39.3179 33.0438 40.1662C33.3918 40.6098 33.6911 41.0897 33.9365 41.5977L28.3594 44.5071L34.3061 42.5045C34.7238 43.7431 34.8271 45.0666 34.6067 46.3553C34.3863 47.6441 33.8491 48.8573 33.0438 49.8853C33.9524 51.0446 34.5176 52.437 34.6747 53.9035C34.8319 55.3699 34.5747 56.8511 33.9325 58.1777C33.2904 59.5044 32.2892 60.6229 31.0434 61.4055C29.7977 62.188 28.3577 62.6031 26.888 62.6031C25.4182 62.6031 23.9782 62.188 22.7325 61.4055C21.4867 60.6229 20.4855 59.5044 19.8434 58.1777C19.2012 56.8511 18.944 55.3699 19.1012 53.9035C19.2583 52.437 19.8235 51.0446 20.7321 49.8853C19.6464 48.4998 19.0562 46.7883 19.0562 45.0258C19.0562 43.2632 19.6464 41.5517 20.7321 40.1662H20.7345Z" fill="white"/>
<path opacity="0.1" d="M34.7195 45.0258C34.7221 46.7888 34.1316 48.501 33.0437 49.8853C33.9523 51.0446 34.5174 52.437 34.6746 53.9034C34.8318 55.3699 34.5746 56.8511 33.9324 58.1777C33.2903 59.5044 32.2891 60.6229 31.0433 61.4055C29.7976 62.188 28.3575 62.603 26.8878 62.603C25.4181 62.603 23.9781 62.188 22.7323 61.4055C21.4866 60.6229 20.4854 59.5044 19.8433 58.1777C19.2011 56.8511 18.9439 55.3699 19.1011 53.9034C19.2582 52.437 19.8234 51.0446 20.7319 49.8853C19.6824 48.5539 34.7195 44.1434 34.7195 45.0258Z" fill="black"/>
</g>
<g opacity="0.1">
<path d="M63.7005 77.9015C64.9087 77.9015 65.8882 76.6147 65.8882 75.0275C65.8882 73.4402 64.9087 72.1535 63.7005 72.1535C62.4922 72.1535 61.5127 73.4402 61.5127 75.0275C61.5127 76.6147 62.4922 77.9015 63.7005 77.9015Z" fill="#3F3D56"/>
<path d="M65.4321 62.731C65.737 62.1963 65.8944 61.5897 65.8882 60.9736C65.8882 59.3871 64.9153 58.0996 63.6992 58.0996C62.4831 58.0996 61.5102 59.3871 61.5102 60.9736C61.5038 61.5898 61.6616 62.1966 61.9675 62.731C61.6677 63.2676 61.5103 63.8725 61.5103 64.4877C61.5103 65.1029 61.6677 65.7078 61.9675 66.2444C61.6677 66.7809 61.5103 67.3855 61.5103 68.0006C61.5103 68.6156 61.6677 69.2203 61.9675 69.7567C61.6616 70.2911 61.5038 70.8978 61.5102 71.514C61.5102 73.1005 62.4904 74.388 63.6992 74.388C64.908 74.388 65.8882 73.1005 65.8882 71.514C65.8944 70.898 65.737 70.2914 65.4321 69.7567C65.7312 69.22 65.8882 68.6154 65.8882 68.0006C65.8882 67.3857 65.7312 66.7811 65.4321 66.2444C65.7312 65.7076 65.8882 65.1028 65.8882 64.4877C65.8882 63.8726 65.7312 63.2678 65.4321 62.731Z" fill="#3F3D56"/>
<path d="M63.7005 60.3354C64.9087 60.3354 65.8882 59.0487 65.8882 57.4614C65.8882 55.8741 64.9087 54.5874 63.7005 54.5874C62.4922 54.5874 61.5127 55.8741 61.5127 57.4614C61.5127 59.0487 62.4922 60.3354 63.7005 60.3354Z" fill="#3F3D56"/>
<path d="M63.7005 56.8219C64.9087 56.8219 65.8882 55.5352 65.8882 53.9479C65.8882 52.3607 64.9087 51.0739 63.7005 51.0739C62.4922 51.0739 61.5127 52.3607 61.5127 53.9479C61.5127 55.5352 62.4922 56.8219 63.7005 56.8219Z" fill="#3F3D56"/>
<path d="M55.5149 29.9065C55.2159 29.5249 54.9437 29.1228 54.7001 28.7032L60.4486 27.7562L54.232 27.8026C53.6355 26.5002 53.31 25.0894 53.2755 23.6564C53.241 22.2234 53.4982 20.7985 54.0313 19.4687L62.3737 23.8108L54.6795 18.136C55.3983 16.8824 56.3671 15.791 57.5252 14.9301C58.6834 14.0691 60.006 13.4571 61.4105 13.1323C62.8149 12.8075 64.2711 12.7769 65.6879 13.0423C67.1047 13.3078 68.4517 13.8636 69.6448 14.675C70.8379 15.4865 71.8514 16.5361 72.622 17.7584C73.3926 18.9807 73.9037 20.3493 74.1234 21.7788C74.3431 23.2082 74.2666 24.6678 73.8988 26.0662C73.531 27.4647 72.8798 28.772 71.9858 29.9065C72.4513 30.5011 72.8517 31.1443 73.18 31.825L65.718 35.7155L73.6749 33.0307C74.2339 34.6881 74.3721 36.4592 74.0772 38.1837C73.7823 39.9082 73.0634 41.5317 71.9858 42.9072C73.2016 44.4586 73.9579 46.3219 74.1682 48.2843C74.3785 50.2466 74.0343 52.2288 73.1749 54.0041C72.3156 55.7794 70.9758 57.2762 69.3088 58.3234C67.6417 59.3707 65.7147 59.926 63.7479 59.926C61.7812 59.926 59.8541 59.3707 58.1871 58.3234C56.52 57.2762 55.1802 55.7794 54.3209 54.0041C53.4616 52.2288 53.1174 50.2466 53.3277 48.2843C53.538 46.3219 54.2942 44.4586 55.5101 42.9072C54.0574 41.0531 53.2677 38.763 53.2677 36.4044C53.2677 34.0459 54.0574 31.7557 55.5101 29.9016L55.5149 29.9065Z" fill="white"/>
<path opacity="0.1" d="M74.2283 36.4099C74.2319 38.7689 73.4417 41.06 71.9858 42.9121C73.2016 44.4634 73.9579 46.3268 74.1682 48.2892C74.3785 50.2515 74.0343 52.2336 73.1749 54.0089C72.3156 55.7843 70.9758 57.2811 69.3088 58.3283C67.6417 59.3755 65.7147 59.9309 63.7479 59.9309C61.7812 59.9309 59.8541 59.3755 58.1871 58.3283C56.52 57.2811 55.1802 55.7843 54.3209 54.0089C53.4616 52.2336 53.1174 50.2515 53.3277 48.2892C53.538 46.3268 54.2942 44.4634 55.5101 42.9121C54.1055 41.123 74.2283 35.2286 74.2283 36.4099Z" fill="black"/>
</g>
<path d="M139 77.6427C139 78.4811 132.893 79.2475 122.796 79.8394C120.959 79.9456 118.992 80.0469 116.905 80.1421C115.102 80.2234 113.212 80.3003 111.235 80.3727C109.32 80.4411 107.332 80.5045 105.27 80.5631C98.7594 80.7498 91.5613 80.8841 83.9145 80.9512C82.0587 80.9683 80.1782 80.9813 78.273 80.9902C76.2884 80.9992 74.281 81.0033 72.2509 81.0024C35.3861 81.0024 5.50293 79.5002 5.50293 77.6464C5.50293 75.7927 35.3861 74.2904 72.2509 74.2904C88.1222 74.2904 102.697 74.5698 114.153 75.0336L115.405 75.0848H115.413C129.843 75.6987 139 76.6225 139 77.6427Z" fill="#3F3D56"/>
<path opacity="0.15" d="M139 77.6427C139 78.4811 132.893 79.2475 122.796 79.8394C120.959 79.9456 118.992 80.0469 116.905 80.1421C115.102 80.2234 113.212 80.3003 111.235 80.3727C109.32 80.4411 107.332 80.5045 105.27 80.5631C98.7594 80.7498 91.5613 80.8841 83.9145 80.9512C82.0587 80.9683 80.1782 80.9813 78.273 80.9902C76.2884 80.9992 74.281 81.0033 72.2509 81.0024C35.3861 81.0024 5.50293 79.5002 5.50293 77.6464C5.50293 75.7927 35.3861 74.2904 72.2509 74.2904C88.1222 74.2904 102.697 74.5698 114.153 75.0336L115.405 75.0848H115.413C129.843 75.6987 139 76.6225 139 77.6427Z" fill="black"/>
<path d="M133.497 77.0521C133.497 77.7526 127.39 78.3945 117.293 78.8826C115.458 78.9717 113.489 79.0559 111.403 79.1353C109.599 79.2036 107.709 79.2679 105.734 79.3281C103.819 79.385 101.83 79.4383 99.7687 79.4879C93.2565 79.6442 86.0584 79.7564 78.4116 79.8126C76.5574 79.8264 74.6769 79.837 72.7701 79.8443C70.7854 79.8516 68.7785 79.8553 66.7492 79.8553C29.8844 79.8553 0 78.5995 0 77.0484C0 75.4973 29.8844 74.2416 66.7492 74.2416C82.6193 74.2416 97.1942 74.4746 108.65 74.8627L109.902 74.9054H109.911C124.346 75.4265 133.497 76.1942 133.497 77.0521Z" fill="#3F3D56"/>
<path d="M17.2395 51.5548L15.5637 46.406L55.695 45.9655L57.3391 51.063L17.2395 51.5548Z" fill="#3F3D56"/>
<path opacity="0.15" d="M17.2395 51.5548L15.5637 46.406L55.695 45.9655L57.3391 51.063L17.2395 51.5548Z" fill="black"/>
<path d="M14.564 51.5548L12.8882 46.406L53.0194 45.9655L54.6636 51.063L14.564 51.5548Z" fill="#3F3D56"/>
<path d="M83.0728 43.6431C78.9235 43.6431 75.6534 41.9903 73.2625 38.6847C70.8717 35.3791 69.6763 31.3746 69.6763 26.6713C69.6763 21.9363 70.8324 17.9399 73.1446 14.6823C75.4568 11.4247 78.7184 9.79758 82.9293 9.80084C87.3948 9.80084 90.7594 11.5171 93.0229 14.9496C95.2865 18.3821 96.4187 22.3548 96.4195 26.8678C96.4195 31.3482 95.248 35.2648 92.905 38.6176C90.5619 41.9703 87.2846 43.6455 83.0728 43.6431ZM83.1944 39.9246C85.9241 39.9246 87.9644 38.7307 89.315 36.3428C90.6657 33.9549 91.3411 30.9447 91.3411 27.312C91.3411 23.2685 90.6499 19.9576 89.2676 17.3794C87.8853 14.8011 85.7652 13.5116 82.9074 13.5108C77.4755 13.5108 74.7596 17.8407 74.7596 26.5005C74.7596 35.4507 77.5704 39.9254 83.192 39.9246H83.1944ZM84.5613 75.5339H78.5599L117.85 10.4635H123.738L84.5613 75.5339ZM119.32 76.2015C115.108 76.2015 111.825 74.5336 109.469 71.1979C107.114 67.8622 105.932 63.8574 105.922 59.1833C105.922 54.48 107.07 50.4996 109.366 47.242C111.662 43.9844 114.932 42.3572 119.175 42.3605C123.609 42.3605 126.95 44.0767 129.198 47.5092C131.446 50.9417 132.571 54.9141 132.572 59.4262C132.572 63.8773 131.408 67.7866 129.08 71.154C126.753 74.5214 123.498 76.2039 119.317 76.2015H119.32ZM119.39 72.3878C122.107 72.3878 124.136 71.2142 125.478 68.867C126.82 66.5198 127.491 63.5218 127.491 59.8729C127.491 55.9677 126.812 52.6926 125.454 50.0476C124.096 47.4026 121.98 46.0781 119.107 46.0741C113.643 46.0741 110.912 50.404 110.912 59.0637C110.91 67.9473 113.735 72.3886 119.388 72.3878H119.39Z" fill="#3F3D56"/>
<path d="M83.0728 43.6431C78.9235 43.6431 75.6534 41.9903 73.2625 38.6847C70.8717 35.3791 69.6763 31.3746 69.6763 26.6713C69.6763 21.9363 70.8324 17.9399 73.1446 14.6823C75.4568 11.4247 78.7184 9.79758 82.9293 9.80084C87.3948 9.80084 90.7594 11.5171 93.0229 14.9496C95.2865 18.3821 96.4187 22.3548 96.4195 26.8678C96.4195 31.3482 95.248 35.2648 92.905 38.6176C90.5619 41.9703 87.2846 43.6455 83.0728 43.6431ZM83.1944 39.9246C85.9241 39.9246 87.9644 38.7307 89.315 36.3428C90.6657 33.9549 91.3411 30.9447 91.3411 27.312C91.3411 23.2685 90.6499 19.9576 89.2676 17.3794C87.8853 14.8011 85.7652 13.5116 82.9074 13.5108C77.4755 13.5108 74.7596 17.8407 74.7596 26.5005C74.7596 35.4507 77.5704 39.9254 83.192 39.9246H83.1944ZM84.5613 75.5339H78.5599L117.85 10.4635H123.738L84.5613 75.5339ZM119.32 76.2015C115.108 76.2015 111.825 74.5336 109.469 71.1979C107.114 67.8622 105.932 63.8574 105.922 59.1833C105.922 54.48 107.07 50.4996 109.366 47.242C111.662 43.9844 114.932 42.3572 119.175 42.3605C123.609 42.3605 126.95 44.0767 129.198 47.5092C131.446 50.9417 132.571 54.9141 132.572 59.4262C132.572 63.8773 131.408 67.7866 129.08 71.154C126.753 74.5214 123.498 76.2039 119.317 76.2015H119.32ZM119.39 72.3878C122.107 72.3878 124.136 71.2142 125.478 68.867C126.82 66.5198 127.491 63.5218 127.491 59.8729C127.491 55.9677 126.812 52.6926 125.454 50.0476C124.096 47.4026 121.98 46.0781 119.107 46.0741C113.643 46.0741 110.912 50.404 110.912 59.0637C110.91 67.9473 113.735 72.3886 119.388 72.3878H119.39Z" fill="#3F3D56"/>
<path opacity="0.15" d="M83.0728 43.6431C78.9235 43.6431 75.6534 41.9903 73.2625 38.6847C70.8717 35.3791 69.6763 31.3746 69.6763 26.6713C69.6763 21.9363 70.8324 17.9399 73.1446 14.6823C75.4568 11.4247 78.7184 9.79758 82.9293 9.80084C87.3948 9.80084 90.7594 11.5171 93.0229 14.9496C95.2865 18.3821 96.4187 22.3548 96.4195 26.8678C96.4195 31.3482 95.248 35.2648 92.905 38.6176C90.5619 41.9703 87.2846 43.6455 83.0728 43.6431ZM83.1944 39.9246C85.9241 39.9246 87.9644 38.7307 89.315 36.3428C90.6657 33.9549 91.3411 30.9447 91.3411 27.312C91.3411 23.2685 90.6499 19.9576 89.2676 17.3794C87.8853 14.8011 85.7652 13.5116 82.9074 13.5108C77.4755 13.5108 74.7596 17.8407 74.7596 26.5005C74.7596 35.4507 77.5704 39.9254 83.192 39.9246H83.1944ZM84.5613 75.5339H78.5599L117.85 10.4635H123.738L84.5613 75.5339ZM119.32 76.2015C115.108 76.2015 111.825 74.5336 109.469 71.1979C107.114 67.8622 105.932 63.8574 105.922 59.1833C105.922 54.48 107.07 50.4996 109.366 47.242C111.662 43.9844 114.932 42.3572 119.175 42.3605C123.609 42.3605 126.95 44.0767 129.198 47.5092C131.446 50.9417 132.571 54.9141 132.572 59.4262C132.572 63.8773 131.408 67.7866 129.08 71.154C126.753 74.5214 123.498 76.2039 119.317 76.2015H119.32ZM119.39 72.3878C122.107 72.3878 124.136 71.2142 125.478 68.867C126.82 66.5198 127.491 63.5218 127.491 59.8729C127.491 55.9677 126.812 52.6926 125.454 50.0476C124.096 47.4026 121.98 46.0781 119.107 46.0741C113.643 46.0741 110.912 50.404 110.912 59.0637C110.91 67.9473 113.735 72.3886 119.388 72.3878H119.39Z" fill="black"/>
<path d="M79.303 43.6431C75.1537 43.6431 71.8836 41.9903 69.4928 38.6847C67.1019 35.3791 65.9065 31.3746 65.9065 26.6713C65.9065 21.9363 67.0626 17.9399 69.3748 14.6823C71.687 11.4247 74.9486 9.79758 79.1595 9.80084C83.625 9.80084 86.9896 11.5171 89.2531 14.9496C91.5167 18.3821 92.6489 22.3548 92.6497 26.8678C92.6497 31.3482 91.4782 35.2648 89.1352 38.6176C86.7922 41.9703 83.5148 43.6455 79.303 43.6431ZM79.4246 39.9246C82.1544 39.9246 84.1946 38.7307 85.5453 36.3428C86.8959 33.9549 87.5713 30.9447 87.5713 27.312C87.5713 23.2685 86.8801 19.9576 85.4978 17.3794C84.1155 14.8011 81.9955 13.5116 79.1376 13.5108C73.7057 13.5108 70.9898 17.8407 70.9898 26.5005C70.9898 35.4507 73.8006 39.9254 79.4222 39.9246H79.4246ZM80.7915 75.5339H74.7901L114.08 10.4635H119.968L80.7915 75.5339ZM115.55 76.2015C111.338 76.2015 108.055 74.5336 105.7 71.1979C103.344 67.8622 102.162 63.8574 102.152 59.1833C102.152 54.48 103.3 50.4996 105.596 47.242C107.892 43.9844 111.162 42.3572 115.405 42.3605C119.839 42.3605 123.18 44.0767 125.428 47.5092C127.677 50.9417 128.801 54.9141 128.802 59.4262C128.802 63.8773 127.638 67.7866 125.31 71.154C122.983 74.5214 119.729 76.2039 115.548 76.2015H115.55ZM115.621 72.3878C118.337 72.3878 120.367 71.2142 121.708 68.867C123.05 66.5198 123.721 63.5218 123.721 59.8729C123.721 55.9677 123.042 52.6926 121.684 50.0476C120.326 47.4026 118.21 46.0781 115.335 46.0741C109.871 46.0741 107.14 50.404 107.14 59.0637C107.14 67.9473 109.966 72.3886 115.618 72.3878H115.621Z" fill="#3F3D56"/>
<path d="M92.432 77.1668C92.9331 76.2344 92.3639 75.0922 91.7097 74.2599C91.0554 73.4276 90.2577 72.5635 90.2747 71.503C90.299 69.9812 91.9091 69.0818 93.1933 68.2739C94.1484 67.6752 95.0293 66.9648 95.8177 66.1578C96.1478 65.8469 96.4207 65.4801 96.6239 65.0741C96.8903 64.4786 96.8817 63.8012 96.8671 63.1496C96.8112 60.9757 96.7042 58.805 96.5461 56.6376" stroke="#3F3D56" stroke-width="4" stroke-miterlimit="10"/>
<path d="M98.9929 56.518C98.9746 56.1204 98.8569 55.7338 98.6505 55.3938C98.4441 55.0538 98.1558 54.7715 97.8121 54.5728L97.2819 55.6247L97.2977 54.3506C97.0448 54.2765 96.7814 54.2447 96.5182 54.2567C96.0506 54.2787 95.6001 54.4393 95.2235 54.7182C94.847 54.9972 94.5613 55.3819 94.4026 55.8238C94.2439 56.2656 94.2194 56.7448 94.3321 57.2007C94.4447 57.6566 94.6896 58.0687 95.0357 58.3849C95.3817 58.7011 95.8135 58.9073 96.2763 58.9773C96.7391 59.0473 97.2122 58.978 97.6358 58.7781C98.0594 58.5783 98.4144 58.2569 98.6559 57.8546C98.8975 57.4524 99.0148 56.9872 98.9929 56.518Z" fill="white"/>
<path d="M94.7729 72.5953C94.5246 73.0794 94.1179 73.4632 93.6211 73.6822C93.1243 73.9012 92.5676 73.9422 92.0443 73.7982C91.521 73.6542 91.0629 73.334 90.7469 72.8914C90.4309 72.4487 90.2762 71.9105 90.3087 71.3669C90.3412 70.8234 90.5589 70.3076 90.9254 69.906C91.2919 69.5044 91.7848 69.2415 92.3215 69.1613C92.8582 69.0811 93.406 69.1886 93.8732 69.4656C94.3403 69.7427 94.6983 70.1725 94.8872 70.6829L93.4084 71.8899L95.038 71.5091C95.0373 71.8872 94.9464 72.2597 94.7729 72.5953Z" fill="white"/>
<path d="M93.6044 67.981C93.2939 67.9956 92.9836 67.9487 92.6912 67.843C92.3988 67.7372 92.13 67.5747 91.9002 67.3647C91.6704 67.1548 91.4841 66.9014 91.3519 66.6191C91.2196 66.3369 91.1441 66.0312 91.1296 65.7197C91.1112 65.3477 91.1812 64.9767 91.3339 64.6372C91.4753 64.32 91.6842 64.0377 91.946 63.8102C92.2078 63.5827 92.5161 63.4155 92.8492 63.3204L92.8358 64.2967L93.3721 63.2326C93.9991 63.2031 94.612 63.4248 95.0762 63.8489C95.5403 64.273 95.8175 64.8647 95.8468 65.4939C95.8762 66.1231 95.6553 66.7382 95.2327 67.204C94.8101 67.6697 94.2204 67.9479 93.5934 67.9774L93.6044 67.981Z" fill="white"/>
<path d="M99.3491 64.1454C99.035 64.1663 98.7198 64.1242 98.4221 64.0214C98.1244 63.9187 97.8501 63.7574 97.6152 63.5469C97.3804 63.3365 97.1897 63.0812 97.0544 62.7959C96.9191 62.5107 96.8418 62.2012 96.8271 61.8856C96.8123 61.57 96.8605 61.2547 96.9687 60.958C97.0769 60.6613 97.243 60.3892 97.4572 60.1577C97.6714 59.9262 97.9295 59.7399 98.2164 59.6097C98.5032 59.4794 98.8131 59.4079 99.1278 59.3994C99.57 59.3777 100.009 59.4822 100.395 59.7008L99.9766 60.8504L100.838 60.0217C101.3 60.4444 101.576 61.0339 101.605 61.6607C101.616 61.8805 101.595 62.1008 101.544 62.3148C101.426 62.818 101.148 63.269 100.752 63.5993C100.356 63.9297 99.8636 64.1214 99.3491 64.1454Z" fill="white"/>
<path opacity="0.1" d="M98.6741 57.1514C98.1281 57.2112 97.5979 57.3821 97.0494 57.4162C96.501 57.4504 95.899 57.3186 95.5524 56.8903C95.3651 56.6608 95.2727 56.3692 95.1146 56.1178C94.9653 55.8837 94.7606 55.6905 94.5187 55.5552C94.3668 55.8562 94.2806 56.1862 94.2657 56.5233C94.2509 56.8604 94.3078 57.1968 94.4327 57.5101C94.5576 57.8234 94.7475 58.1064 94.9899 58.3402C95.2324 58.5741 95.5216 58.7534 95.8385 58.8662C96.1554 58.9791 96.4926 59.0228 96.8277 58.9947C97.1627 58.9665 97.488 58.8669 97.7817 58.7027C98.0754 58.5385 98.3309 58.3134 98.5311 58.0423C98.7314 57.7712 98.8717 57.4605 98.9429 57.1307C98.8529 57.1356 98.7641 57.1417 98.6741 57.1514Z" fill="black"/>
<path opacity="0.1" d="M99.3491 64.1454C98.9413 64.164 98.5356 64.0766 98.1714 63.8916C97.8072 63.7066 97.4968 63.4303 97.2703 63.0894C97.0438 62.7486 96.909 62.3548 96.8788 61.9462C96.8486 61.5377 96.9242 61.1282 97.0981 60.7576C97.2856 60.8851 97.447 61.0475 97.5736 61.236C97.7426 61.4911 97.8448 61.7864 98.043 62.0207C98.4079 62.4564 99.0414 62.598 99.6118 62.5723C100.182 62.5467 100.734 62.3832 101.303 62.3282C101.382 62.3209 101.463 62.316 101.547 62.3136C101.429 62.8174 101.151 63.2689 100.754 63.5995C100.358 63.9302 99.8642 64.1218 99.3491 64.1454Z" fill="black"/>
<path opacity="0.1" d="M93.6044 67.981C93.2939 67.9956 92.9836 67.9487 92.6912 67.843C92.3988 67.7372 92.13 67.5747 91.9002 67.3647C91.6704 67.1548 91.4841 66.9014 91.3519 66.6191C91.2196 66.3369 91.1441 66.0312 91.1296 65.7197C91.1112 65.3477 91.1812 64.9767 91.3339 64.6372C91.529 64.7677 91.6985 64.9331 91.8337 65.1253C92.0173 65.3853 92.1329 65.6855 92.3481 65.9259C92.747 66.3714 93.4183 66.5288 94.0227 66.5141C94.6271 66.4995 95.1731 66.3579 95.7556 66.3128C95.6112 66.7789 95.3273 67.1891 94.9424 67.4876C94.5575 67.7861 94.0903 67.9584 93.6044 67.981Z" fill="black"/>
<path opacity="0.1" d="M94.7731 72.5953C94.4977 73.1384 94.0248 73.5545 93.4523 73.7575C92.8797 73.9605 92.2514 73.9349 91.6971 73.6859C91.1429 73.437 90.7052 72.9838 90.4746 72.42C90.244 71.8563 90.2382 71.2252 90.4584 70.6573C90.6532 70.786 90.8281 70.9426 90.9776 71.1223C91.2026 71.3981 91.351 71.7105 91.6112 71.9668C92.0977 72.4427 92.876 72.6392 93.5716 72.6575C93.9729 72.6608 94.3742 72.64 94.7731 72.5953Z" fill="black"/>
<path d="M129.037 77.0448C129.538 76.1124 128.968 74.9701 128.314 74.1378C127.66 73.3055 126.862 72.4415 126.879 71.381C126.903 69.8592 128.514 68.9598 129.798 68.1519C130.753 67.5531 131.634 66.8428 132.422 66.0358C132.752 65.7249 133.025 65.358 133.228 64.9521C133.495 64.3565 133.486 63.6792 133.472 63.0275C133.416 60.8536 133.309 58.683 133.151 56.5156" stroke="#3F3D56" stroke-width="4" stroke-miterlimit="10"/>
<path d="M135.597 56.396C135.579 55.9984 135.461 55.6117 135.255 55.2718C135.049 54.9318 134.76 54.6494 134.417 54.4507L133.886 55.5027L133.902 54.2286C133.649 54.1545 133.386 54.1227 133.123 54.1346C132.655 54.1566 132.205 54.3173 131.828 54.5962C131.451 54.8751 131.166 55.2599 131.007 55.7017C130.848 56.1436 130.824 56.6228 130.937 57.0786C131.049 57.5345 131.294 57.9466 131.64 58.2628C131.986 58.5791 132.418 58.7852 132.881 58.8552C133.344 58.9252 133.817 58.8559 134.24 58.6561C134.664 58.4563 135.019 58.1349 135.26 57.7326C135.502 57.3303 135.619 56.8652 135.597 56.396Z" fill="white"/>
<path d="M131.378 72.4732C131.129 72.9574 130.723 73.3412 130.226 73.5602C129.729 73.7792 129.172 73.8202 128.649 73.6762C128.126 73.5322 127.668 73.212 127.352 72.7693C127.036 72.3267 126.881 71.7884 126.913 71.2449C126.946 70.7013 127.164 70.1855 127.53 69.7839C127.897 69.3824 128.39 69.1194 128.926 69.0393C129.463 68.9591 130.011 69.0665 130.478 69.3436C130.945 69.6206 131.303 70.0504 131.492 70.5609L130.013 71.7679L131.643 71.3871C131.642 71.7652 131.551 72.1376 131.378 72.4732Z" fill="white"/>
<path d="M130.209 67.859C129.898 67.8736 129.588 67.8267 129.296 67.7209C129.003 67.6152 128.735 67.4527 128.505 67.2427C128.275 67.0327 128.089 66.7794 127.956 66.4971C127.824 66.2148 127.749 65.9092 127.734 65.5976C127.716 65.2257 127.786 64.8546 127.938 64.5152C128.08 64.1979 128.289 63.9156 128.55 63.6881C128.812 63.4606 129.121 63.2934 129.454 63.1984L129.44 64.1747L129.977 63.1105H129.983C130.293 63.0959 130.603 63.1429 130.896 63.2486C131.188 63.3544 131.457 63.5169 131.687 63.7268C131.917 63.9368 132.103 64.1902 132.235 64.4724C132.367 64.7547 132.443 65.0603 132.457 65.3719C132.472 65.6834 132.425 65.9948 132.32 66.2882C132.214 66.5816 132.052 66.8513 131.843 67.0819C131.634 67.3126 131.382 67.4995 131.1 67.6322C130.819 67.7649 130.514 67.8407 130.204 67.8553L130.209 67.859Z" fill="white"/>
<path d="M135.954 64.0234C135.639 64.0443 135.324 64.0021 135.027 63.8994C134.729 63.7966 134.455 63.6353 134.22 63.4249C133.985 63.2145 133.794 62.9592 133.659 62.6739C133.524 62.3887 133.446 62.0792 133.432 61.7636C133.417 61.448 133.465 61.1326 133.573 60.8359C133.681 60.5392 133.847 60.2672 134.062 60.0357C134.276 59.8041 134.534 59.6178 134.821 59.4876C135.108 59.3574 135.418 59.2859 135.732 59.2773C136.175 59.2557 136.614 59.3602 136.999 59.5788L136.581 60.7283L137.442 59.8997C137.904 60.3224 138.18 60.9119 138.209 61.5387C138.22 61.7585 138.2 61.9788 138.149 62.1928C138.031 62.696 137.753 63.1469 137.357 63.4773C136.961 63.8076 136.468 63.9993 135.954 64.0234Z" fill="white"/>
<path opacity="0.1" d="M135.279 57.0294C134.733 57.0892 134.203 57.26 133.654 57.2942C133.106 57.3284 132.504 57.1966 132.157 56.7682C131.97 56.5388 131.877 56.2471 131.719 55.9957C131.57 55.7617 131.365 55.5684 131.123 55.4331C130.972 55.7342 130.885 56.0642 130.87 56.4013C130.856 56.7384 130.913 57.0748 131.037 57.3881C131.162 57.7014 131.352 57.9843 131.595 58.2182C131.837 58.452 132.126 58.6313 132.443 58.7442C132.76 58.857 133.097 58.9008 133.432 58.8726C133.767 58.8444 134.093 58.7449 134.386 58.5807C134.68 58.4165 134.936 58.1913 135.136 57.9203C135.336 57.6492 135.476 57.3384 135.548 57.0086C135.458 57.0135 135.369 57.0196 135.279 57.0294Z" fill="black"/>
<path opacity="0.1" d="M135.954 64.0234C135.546 64.042 135.14 63.9546 134.776 63.7696C134.412 63.5846 134.101 63.3082 133.875 62.9674C133.648 62.6265 133.513 62.2327 133.483 61.8242C133.453 61.4156 133.529 61.0062 133.703 60.6356C133.89 60.7631 134.052 60.9255 134.178 61.114C134.347 61.369 134.449 61.6644 134.648 61.8987C135.012 62.3343 135.646 62.4759 136.216 62.4503C136.787 62.4247 137.339 62.2611 137.908 62.2062C137.987 62.1989 138.067 62.194 138.151 62.1916C138.034 62.6954 137.755 63.1469 137.359 63.4775C136.962 63.8081 136.469 63.9998 135.954 64.0234Z" fill="black"/>
<path opacity="0.1" d="M130.209 67.859C129.898 67.8736 129.588 67.8267 129.296 67.7209C129.003 67.6152 128.735 67.4527 128.505 67.2427C128.275 67.0327 128.089 66.7794 127.956 66.4971C127.824 66.2148 127.749 65.9092 127.734 65.5976C127.716 65.2257 127.786 64.8546 127.938 64.5152C128.134 64.6456 128.303 64.8111 128.438 65.0033C128.622 65.2632 128.737 65.5635 128.953 65.8039C129.351 66.2493 130.023 66.4067 130.627 66.3921C131.213 66.3799 131.778 66.2359 132.36 66.1907C132.216 66.6569 131.932 67.0671 131.547 67.3656C131.162 67.6641 130.695 67.8364 130.209 67.859Z" fill="black"/>
<path opacity="0.1" d="M131.378 72.4732C131.102 73.0163 130.629 73.4324 130.057 73.6354C129.484 73.8384 128.856 73.8128 128.302 73.5639C127.747 73.3149 127.31 72.8617 127.079 72.298C126.849 71.7343 126.843 71.1032 127.063 70.5353C127.258 70.6639 127.433 70.8206 127.582 71.0002C127.807 71.276 127.955 71.5885 128.216 71.8447C128.702 72.3207 129.48 72.5172 130.176 72.5355C130.577 72.5388 130.979 72.518 131.378 72.4732Z" fill="black"/>
<path d="M13.3685 75.4583C12.8675 74.5259 13.4366 73.3836 14.0909 72.5513C14.7451 71.719 15.5429 70.855 15.5259 69.7945C15.5015 68.2727 13.8914 67.3733 12.6072 66.5654C11.6521 65.9667 10.7712 65.2563 9.98288 64.4493C9.65276 64.1384 9.37983 63.7715 9.17661 63.3656C8.91029 62.77 8.9188 62.0927 8.93339 61.441C8.98933 59.2671 9.09635 57.0965 9.25444 54.9291" stroke="#3F3D56" stroke-width="4" stroke-miterlimit="10"/>
<path d="M6.80776 54.8095C6.82605 54.4119 6.94381 54.0252 7.15017 53.6853C7.35654 53.3453 7.64487 53.063 7.98859 52.8642L8.51881 53.9162L8.503 52.6421C8.75592 52.568 9.01929 52.5362 9.28252 52.5482C9.75004 52.5701 10.2006 52.7308 10.5771 53.0097C10.9537 53.2887 11.2394 53.6734 11.3981 54.1152C11.5568 54.5571 11.5813 55.0363 11.4686 55.4922C11.3559 55.948 11.1111 56.3601 10.765 56.6764C10.4189 56.9926 9.98721 57.1987 9.52439 57.2687C9.06158 57.3387 8.58847 57.2694 8.1649 57.0696C7.74133 56.8698 7.38631 56.5484 7.14474 56.1461C6.90317 55.7438 6.7859 55.2787 6.80776 54.8095Z" fill="white"/>
<path d="M11.0276 70.8867C11.2759 71.3709 11.6825 71.7547 12.1793 71.9737C12.6761 72.1927 13.2328 72.2337 13.7561 72.0897C14.2794 71.9457 14.7375 71.6255 15.0535 71.1829C15.3695 70.7402 15.5242 70.202 15.4917 69.6584C15.4593 69.1149 15.2415 68.599 14.875 68.1975C14.5086 67.7959 14.0157 67.533 13.479 67.4528C12.9423 67.3726 12.3944 67.48 11.9273 67.7571C11.4601 68.0341 11.1021 68.4639 10.9132 68.9744L12.392 70.1814L10.7625 69.8006C10.7631 70.1787 10.854 70.5511 11.0276 70.8867Z" fill="white"/>
<path d="M12.1962 66.2725C12.5067 66.2871 12.817 66.2402 13.1094 66.1345C13.4018 66.0287 13.6706 65.8662 13.9004 65.6562C14.1302 65.4462 14.3165 65.1929 14.4487 64.9106C14.581 64.6283 14.6565 64.3227 14.671 64.0111C14.6894 63.6392 14.6194 63.2681 14.4667 62.9287C14.3253 62.6114 14.1164 62.3291 13.8546 62.1016C13.5928 61.8741 13.2845 61.707 12.9514 61.6119L12.9648 62.5882L12.4285 61.524C11.8015 61.4946 11.1885 61.7163 10.7244 62.1404C10.2603 62.5644 9.98311 63.1562 9.95376 63.7854C9.92441 64.4146 10.1453 65.0297 10.5679 65.4955C10.9905 65.9612 11.5802 66.2394 12.2072 66.2688L12.1962 66.2725Z" fill="white"/>
<path d="M6.45152 62.4369C6.76566 62.4578 7.0808 62.4157 7.37852 62.3129C7.67623 62.2101 7.95053 62.0488 8.18537 61.8384C8.42022 61.628 8.61088 61.3727 8.74622 61.0874C8.88156 60.8022 8.95884 60.4927 8.97356 60.1771C8.98828 59.8615 8.94013 59.5461 8.83193 59.2494C8.72374 58.9527 8.55766 58.6807 8.34343 58.4492C8.1292 58.2177 7.8711 58.0314 7.58426 57.9011C7.29741 57.7709 6.98756 57.6994 6.67285 57.6908C6.23261 57.6704 5.79554 57.7748 5.41176 57.9923L5.83009 59.1419L4.96302 58.3169C4.50178 58.7387 4.22586 59.3267 4.19566 59.9522C4.18489 60.172 4.20536 60.3923 4.25646 60.6063C4.37415 61.1095 4.65213 61.5604 5.04825 61.8908C5.44437 62.2211 5.93703 62.4128 6.45152 62.4369Z" fill="white"/>
<path opacity="0.1" d="M7.12642 55.4429C7.67245 55.5027 8.20267 55.6735 8.75113 55.7077C9.29959 55.7419 9.90156 55.6101 10.2481 55.1817C10.4354 54.9523 10.5278 54.6606 10.6859 54.4092C10.8352 54.1752 11.04 53.9819 11.2818 53.8466C11.4337 54.1477 11.52 54.4777 11.5348 54.8148C11.5497 55.1519 11.4927 55.4883 11.3679 55.8016C11.243 56.1149 11.053 56.3979 10.8106 56.6317C10.5682 56.8655 10.2789 57.0448 9.96204 57.1577C9.64516 57.2705 9.30796 57.3143 8.97289 57.2861C8.63783 57.2579 8.3126 57.1584 8.01886 56.9942C7.72513 56.83 7.46964 56.6048 7.26942 56.3338C7.06919 56.0627 6.92882 55.7519 6.85767 55.4221C6.94766 55.427 7.03643 55.4331 7.12642 55.4429Z" fill="black"/>
<path opacity="0.1" d="M6.4514 62.4369C6.8592 62.4555 7.26489 62.3681 7.62912 62.1831C7.99335 61.9981 8.30375 61.7217 8.53022 61.3809C8.7567 61.04 8.89156 60.6462 8.92172 60.2377C8.95189 59.8292 8.87633 59.4197 8.70239 59.0491C8.5149 59.1766 8.35349 59.339 8.2269 59.5275C8.05786 59.7825 7.95571 60.0779 7.75748 60.3122C7.39266 60.7479 6.75907 60.8894 6.18872 60.8638C5.61837 60.8382 5.06626 60.6746 4.49713 60.6197C4.41808 60.6124 4.33782 60.6075 4.25391 60.6051C4.37148 61.1089 4.64972 61.5604 5.04635 61.891C5.44298 62.2216 5.93632 62.4133 6.4514 62.4369Z" fill="black"/>
<path opacity="0.1" d="M12.1962 66.2725C12.5067 66.2871 12.8169 66.2402 13.1093 66.1345C13.4017 66.0287 13.6705 65.8662 13.9003 65.6562C14.1301 65.4462 14.3165 65.1929 14.4487 64.9106C14.5809 64.6283 14.6564 64.3227 14.671 64.0111C14.6894 63.6392 14.6193 63.2681 14.4667 62.9287C14.2715 63.0591 14.1021 63.2246 13.9668 63.4168C13.7832 63.6768 13.6677 63.977 13.4524 64.2174C13.0535 64.6628 12.3823 64.8203 11.7779 64.8056C11.1917 64.7934 10.6274 64.6494 10.0449 64.6043C10.1893 65.0704 10.4733 65.4806 10.8582 65.7791C11.2431 66.0776 11.7103 66.2499 12.1962 66.2725Z" fill="black"/>
<path opacity="0.1" d="M11.0276 70.8867C11.303 71.4298 11.7758 71.8459 12.3484 72.0489C12.9209 72.2519 13.5493 72.2263 14.1036 71.9774C14.6578 71.7284 15.0955 71.2752 15.3261 70.7115C15.5566 70.1478 15.5624 69.5167 15.3423 68.9488C15.1475 69.0774 14.9725 69.2341 14.823 69.4137C14.5981 69.6896 14.4497 70.002 14.1894 70.2582C13.703 70.7342 12.9247 70.9307 12.2291 70.949C11.8277 70.9523 11.4265 70.9315 11.0276 70.8867Z" fill="black"/>
<path d="M81.9042 64.0221C81.9065 63.7263 81.8397 63.434 81.7092 63.1686C81.5787 62.9033 81.3881 62.6723 81.1527 62.4942C81.1235 61.3751 80.3282 60.4611 79.3054 60.3195C79.2264 59.9393 79.0491 59.5867 78.7912 59.297C78.5333 59.0074 78.204 58.791 77.8364 58.6696C77.7469 58.6411 77.6555 58.6195 77.5628 58.6049H77.536L77.4886 58.5988H77.4485H77.4083H77.356H77.3244H77.2381C76.1947 58.5988 75.3264 59.3994 75.1476 60.455C74.4727 60.2988 73.8537 60.5013 73.743 60.9297C73.7144 61.0432 73.7208 61.1628 73.7613 61.2726C73.8756 61.6046 74.2477 61.9219 74.7524 62.0793L74.818 62.0988C74.8509 62.1086 74.8837 62.1159 74.9165 62.1232H74.9384C74.7529 62.5202 74.7266 62.9736 74.8649 63.3895C75.0032 63.8055 75.2956 64.1521 75.6815 64.3577C75.6663 64.3661 75.6516 64.3755 75.6377 64.3858C75.5754 64.4432 75.5257 64.513 75.4918 64.5908C75.3698 64.8056 75.275 65.0347 75.2096 65.273C75.161 65.4768 75.1525 65.6904 75.088 65.8917C74.9774 66.2579 74.6928 66.5788 74.66 66.9681C74.6454 67.1414 74.6733 67.3452 74.5505 67.4636C74.5199 67.49 74.4874 67.5141 74.4532 67.5356C74.3671 67.5947 74.2942 67.6712 74.2392 67.7601C74.2033 67.8337 74.1552 67.9006 74.0969 67.9578C73.9862 68.0421 73.8038 68.0335 73.7491 68.1629C73.6944 68.2922 73.8354 68.4448 73.8026 68.5863C73.7758 68.7011 73.6506 68.7535 73.5594 68.8304C73.4574 68.9415 73.3861 69.0773 73.3526 69.2246C73.171 69.2598 72.9838 69.2543 72.8045 69.2085C72.6252 69.1627 72.4582 69.0778 72.3153 68.9598C72.3643 69.0855 72.4002 69.2159 72.4223 69.3491C72.2776 69.1941 72.0393 69.1489 71.8629 69.0684C71.6355 68.9638 71.4325 68.8125 71.267 68.6242L71.5857 68.5802L70.175 66.4324L69.7591 66.3469L70.1324 67.0657C70.1019 67.0805 70.075 67.102 70.054 67.1286C70.0329 67.1552 70.0182 67.1863 70.0108 67.2195C69.9907 67.2992 69.9858 67.382 69.9962 67.4636C70.016 67.6562 70.0481 67.8474 70.0923 68.0359L70.2005 68.5412C70.2097 68.5886 70.2215 68.6354 70.2358 68.6815C70.0948 68.6764 69.9538 68.6925 69.8174 68.7291C69.5378 68.6253 69.2467 68.5561 68.9504 68.5229C68.8852 68.5114 68.8183 68.5147 68.7546 68.5326C68.6823 68.5661 68.6196 68.6173 68.5722 68.6815C68.3289 68.9637 68.1131 69.2686 67.9276 69.5919C67.17 70.9148 66.1582 72.0693 65.2109 73.2653C64.5566 73.5325 63.8975 73.7864 63.2371 74.0378L61.818 74.5808C61.5346 74.6894 61.2403 74.8005 60.9387 74.781C60.8025 74.7724 60.6371 74.7517 60.5605 74.8676C60.5232 74.9251 60.4942 74.9875 60.4742 75.0531C60.4243 75.0531 60.3744 75.0653 60.3282 75.0678H60.3197C60.2297 74.8432 60.1519 74.6028 59.9792 74.4393C59.9445 74.4446 59.9116 74.4586 59.8836 74.4799C59.8555 74.5012 59.8332 74.5292 59.8187 74.5613C59.7846 74.6248 59.764 74.6943 59.7251 74.7529C59.6484 74.8652 59.5159 74.9201 59.421 75.0153C59.3262 75.1105 59.2666 75.2594 59.1644 75.3521C59.0214 75.4564 58.8537 75.5216 58.678 75.5413C58.4147 75.6035 58.1608 75.7003 57.9228 75.8293C57.835 75.8834 57.7411 75.9268 57.6431 75.9586C57.5353 75.9794 57.4249 75.9831 57.316 75.9696L56.5644 75.9147C56.4975 75.9059 56.4297 75.9088 56.3638 75.9232C56.2863 75.9517 56.2205 76.0051 56.1765 76.0751C56.1325 76.1451 56.1128 76.2277 56.1205 76.3101C56.1297 76.3919 56.1555 76.4709 56.1963 76.5422C56.237 76.6136 56.292 76.6758 56.3577 76.725C56.4881 76.821 56.6325 76.8963 56.7857 76.9484C57.4388 77.2022 58.1121 77.4002 58.7984 77.5402V77.6928C59.2741 77.9332 59.7993 78.0586 60.3319 78.0589C60.3711 78.062 60.4105 78.0548 60.4462 78.0381C60.4954 78.001 60.5296 77.9473 60.5423 77.8868C60.7017 77.4082 60.8026 76.912 60.8426 76.4089C60.9366 76.4029 61.0285 76.3793 61.1138 76.3394C61.3729 76.2686 61.6295 76.4468 61.8958 76.4761C62.2241 76.5115 62.5294 76.3199 62.8395 76.2015C62.8845 76.1844 62.9295 76.1698 62.9745 76.1551C62.886 76.27 62.7816 76.3715 62.6644 76.4565C62.5355 76.5493 62.3907 76.6176 62.2643 76.714C62.1592 76.8104 62.0465 76.8982 61.9274 76.9764C61.8434 77.0157 61.7569 77.0491 61.6684 77.0765C61.54 77.1235 61.4176 77.1853 61.3035 77.2608C61.2014 77.3212 61.1148 77.4048 61.0506 77.5048C61.0183 77.5516 60.9984 77.6058 60.9929 77.6624C60.9874 77.719 60.9964 77.776 61.0191 77.8282C61.0417 77.8803 61.0773 77.9257 61.1224 77.9601C61.1675 77.9945 61.2207 78.0168 61.2768 78.0247C61.3784 78.0428 61.482 78.0457 61.5845 78.0333C61.9906 78.0028 62.3956 77.9649 62.8006 77.9283C62.972 77.9168 63.1423 77.8924 63.3101 77.8551C63.3989 77.8331 63.4864 77.8038 63.5752 77.7806C63.7267 77.7406 63.882 77.7172 64.0386 77.7111C64.084 77.7075 64.1297 77.712 64.1735 77.7245C64.2684 77.755 64.3353 77.8465 64.4314 77.871C64.4937 77.8771 64.5566 77.8683 64.615 77.8453C64.9114 77.7807 65.214 77.7484 65.5173 77.7489C65.6499 77.7416 65.8055 77.716 65.8676 77.5927C65.943 77.4402 65.8165 77.2693 65.7666 77.1046C65.7412 76.9998 65.7274 76.8926 65.7253 76.7848C65.7022 76.5189 65.6261 76.2604 65.5015 76.0245C65.4353 75.9145 65.3795 75.7984 65.3349 75.6779C65.916 75.4561 66.4721 75.173 66.9937 74.8334C67.2928 74.6467 67.6017 74.4454 67.9398 74.377C68.3338 74.2977 68.74 74.4026 69.1279 74.5149C70.052 74.7832 70.9609 75.1014 71.8508 75.468C72.2764 75.6425 72.702 75.828 73.1374 75.9562C73.2647 76.1285 73.4186 76.2793 73.5934 76.4028C73.8853 76.592 74.2416 76.6469 74.5846 76.6738C75.0478 76.7162 75.5131 76.7338 75.9782 76.7262C76.3333 76.7201 76.6993 76.6957 77.0167 76.5334C77.0943 76.4935 77.1673 76.4452 77.2344 76.3894C77.4776 76.4334 77.7269 76.3028 77.9179 76.1356C78.1706 75.9198 78.3528 75.6328 78.4408 75.3118C78.5527 74.8713 78.4663 74.3575 78.7363 73.9975C78.8081 73.9011 78.9017 73.823 78.9722 73.7253C79.0591 73.5946 79.1017 73.4393 79.0938 73.2823L79.106 73.264C79.1671 73.1224 79.208 72.9729 79.2276 72.8198C79.2596 72.7003 79.3002 72.5832 79.3492 72.4696C79.4863 72.129 79.6057 71.7816 79.7068 71.4286C79.7771 71.1944 79.8323 70.956 79.8721 70.7147C79.9013 70.5219 79.9184 70.3278 79.9342 70.1338C79.9537 69.83 80.0125 69.5302 80.1093 69.2417C80.3493 68.5532 80.485 67.8325 80.5118 67.1036C80.5118 67.0889 80.5118 67.0755 80.5118 67.0609C80.8649 67.022 81.1908 66.8524 81.4258 66.5852C81.6609 66.3179 81.7881 65.9723 81.7826 65.6159C81.783 65.4011 81.7382 65.1886 81.6513 64.9923C81.8191 64.6969 81.9063 64.3622 81.9042 64.0221ZM75.0272 72.4073C75.0479 72.4818 75.0722 72.5562 75.0965 72.6307C74.9847 72.5196 74.874 72.4049 74.7609 72.2951C74.8059 72.3085 74.8509 72.3231 74.8947 72.339C74.9413 72.3575 74.9861 72.3804 75.0284 72.4073H75.0272ZM74.4824 72.0412C73.8184 71.4628 73.0498 71.0137 72.37 70.4547C72.7349 70.639 73.0997 70.8526 73.4645 71.0576C73.8893 71.3017 74.319 71.5352 74.7536 71.7581C74.6823 71.8666 74.5916 71.961 74.486 72.0363L74.4824 72.0412ZM74.7658 70.5841L74.7974 70.5511C74.7974 70.6329 74.7974 70.7098 74.7974 70.7794C74.7378 70.7598 74.6758 70.7403 74.6186 70.7183C74.6711 70.6754 74.7207 70.6289 74.767 70.5792L74.7658 70.5841ZM68.92 72.1511C69.1934 71.8407 69.4312 71.5005 69.629 71.1369C69.8916 71.5994 70.3197 71.9326 70.6845 72.3195C70.0984 72.2365 69.511 72.1718 68.9212 72.1462L68.92 72.1511Z" fill="url(#paint0_linear_1727_204)"/>
<path d="M69.8684 66.5251L70.288 66.6106L71.7169 68.7291L71.0857 68.8145L69.8684 66.5251Z" fill="#2F2E41"/>
<path d="M59.708 75.1239C59.8211 75.4994 59.9605 75.8664 60.1251 76.2222C60.5986 76.1228 61.0643 75.9895 61.5188 75.8232C61.4308 75.6857 61.3341 75.554 61.2293 75.429C61.1176 75.3044 60.9841 75.2014 60.8353 75.1251C60.6906 75.0617 60.5119 75.1093 60.3574 75.1178C60.1409 75.1259 59.9245 75.128 59.708 75.1239Z" fill="#FBBEBE"/>
<path d="M60.8378 75.6901C60.6019 75.6157 60.4572 75.3765 60.3611 75.1459C60.265 74.9152 60.1872 74.6638 60.0048 74.4942C59.9701 74.4996 59.9372 74.5136 59.9092 74.5349C59.8812 74.5562 59.8589 74.5841 59.8443 74.6162C59.809 74.6772 59.7883 74.7468 59.7482 74.8054C59.6728 74.9152 59.539 74.9689 59.443 75.0629C59.3469 75.1568 59.2873 75.2996 59.1839 75.3936C59.0405 75.497 58.873 75.5618 58.6975 75.5815C58.4324 75.6418 58.1764 75.737 57.9362 75.8647C57.8473 75.9164 57.7526 75.9573 57.6541 75.9867C57.5454 76.0074 57.4343 76.0111 57.3245 75.9977L56.5669 75.9428C56.4995 75.9344 56.4312 75.9377 56.365 75.9525C56.2878 75.9795 56.2219 76.0317 56.1778 76.1007C56.1337 76.1697 56.114 76.2516 56.1218 76.3333C56.1318 76.4146 56.1587 76.493 56.2005 76.5634C56.2424 76.6338 56.2984 76.6946 56.365 76.7421C56.4967 76.8366 56.6418 76.9106 56.7955 76.9618C57.4556 77.2109 58.1348 77.4055 58.8264 77.5439V77.694C59.307 77.9327 59.8357 78.058 60.3721 78.0601C60.4137 78.0638 60.4556 78.0566 60.4937 78.0394C60.5429 78.0031 60.5775 77.9503 60.5909 77.8905C60.7727 77.3573 60.8788 76.801 60.9059 76.2381C60.9199 76.0958 60.9092 75.9521 60.8743 75.8134C60.833 75.6767 60.974 75.7341 60.8427 75.6804" fill="#2F2E41"/>
<path d="M75.3629 72.8247C73.1168 72.9614 70.8986 72.2999 68.6488 72.2292C68.3696 72.2121 68.0894 72.2301 67.8146 72.2829C67.5282 72.3599 67.2509 72.4679 66.9877 72.605C65.7825 73.1676 64.5348 73.6338 63.2883 74.1L61.8582 74.6345C61.5712 74.7407 61.2756 74.8493 60.9704 74.831C60.8342 74.8225 60.6676 74.8017 60.5898 74.9164C60.3575 75.2618 60.4682 75.7707 60.6214 76.1588C60.6712 76.2808 60.7552 76.4211 60.8889 76.4358C60.9836 76.4293 61.0762 76.4057 61.1625 76.3662C61.4228 76.2967 61.683 76.4724 61.9506 76.5005C62.2826 76.5359 62.5902 76.3467 62.9028 76.2308C63.4208 76.0392 63.9875 76.0453 64.5324 75.9537C65.4469 75.8012 66.2933 75.3753 67.0862 74.8896C67.3878 74.7053 67.6942 74.5076 68.0396 74.4405C68.4372 74.3624 68.8471 74.4649 69.2374 74.5759C70.1681 74.8403 71.0843 75.1536 71.9822 75.5144C72.4495 75.7182 72.9287 75.8934 73.4172 76.0392C74.4817 76.3204 75.6078 76.2546 76.6325 75.8512C76.9974 75.7084 77.3816 75.4571 77.4023 75.0678C77.4145 74.8456 77.243 74.6504 77.1287 74.4576C77.0545 74.3355 76.9815 74.2135 76.9013 74.0976C76.5146 73.5313 76.0452 72.7832 75.3629 72.8247Z" fill="#2F2E41"/>
<path opacity="0.1" d="M75.3629 72.8247C73.1168 72.9614 70.8986 72.2999 68.6488 72.2292C68.3696 72.2121 68.0894 72.2301 67.8146 72.2829C67.5282 72.3599 67.2509 72.4679 66.9877 72.605C65.7825 73.1676 64.5348 73.6338 63.2883 74.1L61.8582 74.6345C61.5712 74.7407 61.2756 74.8493 60.9704 74.831C60.8342 74.8225 60.6676 74.8017 60.5898 74.9164C60.3575 75.2618 60.4682 75.7707 60.6214 76.1588C60.6712 76.2808 60.7552 76.4211 60.8889 76.4358C60.9836 76.4293 61.0762 76.4057 61.1625 76.3662C61.4228 76.2967 61.683 76.4724 61.9506 76.5005C62.2826 76.5359 62.5902 76.3467 62.9028 76.2308C63.4208 76.0392 63.9875 76.0453 64.5324 75.9537C65.4469 75.8012 66.2933 75.3753 67.0862 74.8896C67.3878 74.7053 67.6942 74.5076 68.0396 74.4405C68.4372 74.3624 68.8471 74.4649 69.2374 74.5759C70.1681 74.8403 71.0843 75.1536 71.9822 75.5144C72.4495 75.7182 72.9287 75.8934 73.4172 76.0392C74.4817 76.3204 75.6078 76.2546 76.6325 75.8512C76.9974 75.7084 77.3816 75.4571 77.4023 75.0678C77.4145 74.8456 77.243 74.6504 77.1287 74.4576C77.0545 74.3355 76.9815 74.2135 76.9013 74.0976C76.5146 73.5313 76.0452 72.7832 75.3629 72.8247Z" fill="black"/>
<path d="M64.019 75.2337C64.3709 75.3533 64.7252 75.464 65.0819 75.5657C65.2826 75.235 65.6571 75.0055 65.7423 74.6284C65.7471 74.6121 65.7471 74.5947 65.7423 74.5784C65.7329 74.5623 65.7189 74.5495 65.7021 74.5418C65.4457 74.3999 65.1613 74.3165 64.8691 74.2977C64.638 74.2831 64.5335 74.5247 64.4289 74.6943C64.3924 74.7627 64.1127 75.2655 64.019 75.2337Z" fill="#FBBEBE"/>
<path d="M64.5139 74.9921C64.4089 74.9746 64.3087 74.9352 64.2197 74.8766C64.1307 74.818 64.0549 74.7413 63.9971 74.6516C63.9472 74.565 63.8949 74.4478 63.7952 74.4539C63.6955 74.46 63.6614 74.5698 63.6408 74.6614C63.5734 75.0033 63.4762 75.3385 63.3501 75.6633C63.223 75.989 63.0078 76.2726 62.7287 76.4822C62.5986 76.5725 62.4539 76.6408 62.3262 76.736C62.2197 76.8313 62.1059 76.9178 61.9857 76.9947C61.901 77.0336 61.8136 77.0662 61.7242 77.0924C61.5932 77.1383 61.4679 77.1993 61.3508 77.2742C61.2483 77.3345 61.1612 77.4181 61.0967 77.5183C61.0656 77.5691 61.0473 77.6268 61.0435 77.6864C61.0397 77.746 61.0504 77.8055 61.0748 77.86C61.101 77.9042 61.1362 77.9424 61.1781 77.972C61.22 78.0017 61.2677 78.0221 61.318 78.032C61.4205 78.0491 61.5249 78.0516 61.6281 78.0394C62.0379 78.0089 62.4466 77.9723 62.8552 77.9356C63.0281 77.9249 63.2001 77.9012 63.3696 77.8649C63.4596 77.8429 63.5471 77.8136 63.6359 77.7904C63.7891 77.7512 63.9461 77.7283 64.1041 77.7221C64.1499 77.7186 64.196 77.7231 64.2403 77.7355C64.3352 77.766 64.402 77.8575 64.4993 77.8795C64.562 77.886 64.6253 77.8777 64.6842 77.8551C64.9832 77.7916 65.2881 77.7597 65.5938 77.7599C65.7276 77.7526 65.8857 77.727 65.9465 77.6061C66.0231 77.456 65.8966 77.2876 65.8455 77.1265C65.8203 77.0234 65.8061 76.9178 65.803 76.8117C65.78 76.5495 65.7034 76.2948 65.578 76.0636C65.4734 75.8708 65.3348 75.6584 65.4041 75.4534C65.4414 75.3894 65.465 75.3183 65.4734 75.2447C65.4564 74.914 64.6988 75.036 64.5139 74.9921Z" fill="#2F2E41"/>
<path d="M71.9955 69.21C71.5976 69.0337 71.2788 68.7159 71.1005 68.3179C71.064 68.2324 71.0324 68.1433 70.9971 68.0567C70.8788 67.7702 70.6956 67.5154 70.462 67.3123C70.437 67.2847 70.4064 67.2628 70.3722 67.2483C70.3379 67.2338 70.301 67.2269 70.2638 67.2281C70.2279 67.2388 70.1954 67.2589 70.1698 67.2864C70.1442 67.3138 70.1262 67.3476 70.1179 67.3843C70.097 67.4639 70.0917 67.5467 70.1021 67.6283C70.1228 67.8177 70.1553 68.0056 70.1994 68.1909L70.3088 68.6888C70.3226 68.7653 70.3455 68.8399 70.3769 68.911C70.4237 68.9945 70.4856 69.0686 70.5593 69.1294C70.6591 69.2222 70.76 69.3112 70.8621 69.3979C70.9184 69.449 70.98 69.494 71.0458 69.5321C71.1537 69.5835 71.269 69.6172 71.3875 69.6322C71.8338 69.7152 72.2874 69.8348 72.6632 70.1203C72.6632 70.1203 72.6632 69.7872 72.6547 69.7542C72.6501 69.6577 72.6171 69.5647 72.5598 69.487C72.4187 69.3344 72.1755 69.2893 71.9955 69.21Z" fill="#FBBEBE"/>
<path opacity="0.1" d="M71.9955 69.21C71.5976 69.0337 71.2788 68.7159 71.1005 68.3179C71.064 68.2324 71.0324 68.1433 70.9971 68.0567C70.8788 67.7702 70.6956 67.5154 70.462 67.3123C70.437 67.2847 70.4064 67.2628 70.3722 67.2483C70.3379 67.2338 70.301 67.2269 70.2638 67.2281C70.2279 67.2388 70.1954 67.2589 70.1698 67.2864C70.1442 67.3138 70.1262 67.3476 70.1179 67.3843C70.097 67.4639 70.0917 67.5467 70.1021 67.6283C70.1228 67.8177 70.1553 68.0056 70.1994 68.1909L70.3088 68.6888C70.3226 68.7653 70.3455 68.8399 70.3769 68.911C70.4237 68.9945 70.4856 69.0686 70.5593 69.1294C70.6591 69.2222 70.76 69.3112 70.8621 69.3979C70.9184 69.449 70.98 69.494 71.0458 69.5321C71.1537 69.5835 71.269 69.6172 71.3875 69.6322C71.8338 69.7152 72.2874 69.8348 72.6632 70.1203C72.6632 70.1203 72.6632 69.7872 72.6547 69.7542C72.6501 69.6577 72.6171 69.5647 72.5598 69.487C72.4187 69.3344 72.1755 69.2893 71.9955 69.21Z" fill="black"/>
<path d="M76.568 65.4024C76.8696 65.4024 77.114 65.1554 77.114 64.8508C77.114 64.5461 76.8696 64.2992 76.568 64.2992C76.2664 64.2992 76.022 64.5461 76.022 64.8508C76.022 65.1554 76.2664 65.4024 76.568 65.4024Z" fill="#2F2E41"/>
<path d="M76.2298 64.5176C76.0832 64.4841 75.9294 64.5062 75.7981 64.5798C75.735 64.6359 75.6848 64.705 75.6509 64.7824C75.5281 64.9931 75.4325 65.2187 75.3664 65.4536C75.3177 65.655 75.3092 65.8649 75.2448 66.0638C75.1329 66.4299 74.8459 66.7411 74.813 67.1231C74.7985 67.294 74.8264 67.4953 74.7024 67.6113C74.6716 67.6372 74.6386 67.6605 74.6039 67.6808C74.5175 67.739 74.4442 67.8147 74.3886 67.9029C74.3515 67.9822 74.2999 68.0538 74.2366 68.1141C74.1247 68.197 73.9411 68.1885 73.8864 68.3166C73.8317 68.4448 73.9727 68.5937 73.9399 68.7328C73.9131 68.8463 73.7867 68.8988 73.6967 68.9769C73.5942 69.0858 73.5224 69.2202 73.4887 69.3662C73.306 69.4007 73.1181 69.3951 72.9378 69.3498C72.7574 69.3045 72.589 69.2206 72.4441 69.1038C72.5961 69.4809 72.5997 69.897 72.6058 70.3034C72.6234 70.4334 72.5888 70.5651 72.5098 70.6695C72.9451 70.6793 73.3683 70.7916 73.7927 70.8928C73.9743 70.9539 74.1706 70.9539 74.3521 70.8928C74.4492 70.8404 74.5361 70.771 74.6087 70.6878C74.8398 70.4523 75.0818 70.1997 75.1377 69.8714C75.1525 69.6867 75.1558 69.5012 75.1475 69.3161C75.1698 69.0876 75.2167 68.8621 75.2873 68.6437C75.4095 68.1902 75.4909 67.7266 75.5305 67.2586C75.5561 66.9693 75.8042 66.7375 75.9355 66.4787C76.1787 65.9906 76.4341 65.4841 76.4536 64.9374C76.4706 64.7592 76.4098 64.5408 76.2298 64.5176Z" fill="#2F2E41"/>
<path opacity="0.1" d="M76.2298 64.5176C76.0832 64.4841 75.9294 64.5062 75.7981 64.5798C75.735 64.6359 75.6848 64.705 75.6509 64.7824C75.5281 64.9931 75.4325 65.2187 75.3664 65.4536C75.3177 65.655 75.3092 65.8649 75.2448 66.0638C75.1329 66.4299 74.8459 66.7411 74.813 67.1231C74.7985 67.294 74.8264 67.4953 74.7024 67.6113C74.6716 67.6372 74.6386 67.6605 74.6039 67.6808C74.5175 67.739 74.4442 67.8147 74.3886 67.9029C74.3515 67.9822 74.2999 68.0538 74.2366 68.1141C74.1247 68.197 73.9411 68.1885 73.8864 68.3166C73.8317 68.4448 73.9727 68.5937 73.9399 68.7328C73.9131 68.8463 73.7867 68.8988 73.6967 68.9769C73.5942 69.0858 73.5224 69.2202 73.4887 69.3662C73.306 69.4007 73.1181 69.3951 72.9378 69.3498C72.7574 69.3045 72.589 69.2206 72.4441 69.1038C72.5961 69.4809 72.5997 69.897 72.6058 70.3034C72.6234 70.4334 72.5888 70.5651 72.5098 70.6695C72.9451 70.6793 73.3683 70.7916 73.7927 70.8928C73.9743 70.9539 74.1706 70.9539 74.3521 70.8928C74.4492 70.8404 74.5361 70.771 74.6087 70.6878C74.8398 70.4523 75.0818 70.1997 75.1377 69.8714C75.1525 69.6867 75.1558 69.5012 75.1475 69.3161C75.1698 69.0876 75.2167 68.8621 75.2873 68.6437C75.4095 68.1902 75.4909 67.7266 75.5305 67.2586C75.5561 66.9693 75.8042 66.7375 75.9355 66.4787C76.1787 65.9906 76.4341 65.4841 76.4536 64.9374C76.4706 64.7592 76.4098 64.5408 76.2298 64.5176Z" fill="black"/>
<path d="M75.7192 73.2994C75.251 73.0761 74.9093 72.66 74.5311 72.3036C73.8087 71.6226 72.9258 71.1418 72.167 70.5035C71.6648 70.0813 71.2148 69.5895 70.6615 69.2356C70.1748 68.924 69.6229 68.7298 69.0489 68.6681C68.9834 68.6566 68.916 68.66 68.8519 68.6779C68.7794 68.7104 68.7163 68.7608 68.6683 68.8243C68.4231 69.1016 68.2052 69.402 68.0177 69.7213C67.0557 71.359 65.6901 72.7368 64.5579 74.2611C64.5216 74.297 64.5 74.3453 64.4976 74.3964C64.4951 74.4475 64.5118 74.4976 64.5445 74.5369L64.7743 74.9897C64.9033 75.2423 65.11 75.5376 65.3824 75.4876C65.5074 75.4514 65.6193 75.3798 65.7047 75.2813L66.7383 74.2892L67.8219 73.2494C68.4567 72.6392 69.1024 72.0168 69.5171 71.2382C69.8406 71.8008 70.4146 72.1694 70.8086 72.6856C70.9582 72.8808 71.0798 73.0968 71.2136 73.3043C71.4288 73.6375 71.6721 73.9499 71.9153 74.2611L73.1593 75.8537C73.3163 76.0805 73.5109 76.2786 73.7346 76.4395C74.0289 76.6262 74.3876 76.6762 74.7342 76.7067C75.2011 76.7495 75.67 76.7666 76.1388 76.758C76.4963 76.7519 76.8684 76.7287 77.1846 76.5688C77.5008 76.409 77.7696 76.0807 77.7525 75.7231C77.7332 75.5357 77.6721 75.3551 77.5738 75.1947C77.1348 74.377 76.5535 73.6936 75.7192 73.2994Z" fill="#2F2E41"/>
<path d="M76.9037 65.6562C77.1354 65.6562 77.3232 65.4666 77.3232 65.2328C77.3232 64.9989 77.1354 64.8093 76.9037 64.8093C76.672 64.8093 76.4841 64.9989 76.4841 65.2328C76.4841 65.4666 76.672 65.6562 76.9037 65.6562Z" fill="#E8E8F0"/>
<path d="M76.8113 64.9142C76.9061 65.1036 76.9227 65.3228 76.8575 65.5244C76.7927 65.7227 76.7019 65.9115 76.5875 66.0858C76.4891 66.2658 76.3713 66.4344 76.2361 66.5886C76.8843 66.6203 77.513 66.3652 78.0846 66.0553C78.5455 65.8112 79.0051 65.5 79.2508 65.035C79.1777 65.0525 79.1017 65.0545 79.0278 65.0409C78.9539 65.0272 78.8836 64.9982 78.8215 64.9557C78.6978 64.8692 78.5869 64.7657 78.4919 64.6482L78.1672 64.2821C78.0906 64.2017 78.0232 64.1129 77.9666 64.0173C77.8955 63.8873 77.8654 63.7388 77.8802 63.5913C77.751 63.7272 77.6065 63.8475 77.4497 63.9501C77.2175 64.1027 76.9633 64.2125 76.7286 64.3626C76.6459 64.4163 76.4623 64.503 76.5097 64.6067C76.5571 64.7104 76.7456 64.7971 76.8113 64.9142Z" fill="#FBBEBE"/>
<path opacity="0.1" d="M76.8113 64.9142C76.9061 65.1036 76.9227 65.3228 76.8575 65.5244C76.7927 65.7227 76.7019 65.9115 76.5875 66.0858C76.4891 66.2658 76.3713 66.4344 76.2361 66.5886C76.8843 66.6203 77.513 66.3652 78.0846 66.0553C78.5455 65.8112 79.0051 65.5 79.2508 65.035C79.1777 65.0525 79.1017 65.0545 79.0278 65.0409C78.9539 65.0272 78.8836 64.9982 78.8215 64.9557C78.6978 64.8692 78.5869 64.7657 78.4919 64.6482L78.1672 64.2821C78.0906 64.2017 78.0232 64.1129 77.9666 64.0173C77.8955 63.8873 77.8654 63.7388 77.8802 63.5913C77.751 63.7272 77.6065 63.8475 77.4497 63.9501C77.2175 64.1027 76.9633 64.2125 76.7286 64.3626C76.6459 64.4163 76.4623 64.503 76.5097 64.6067C76.5571 64.7104 76.7456 64.7971 76.8113 64.9142Z" fill="black"/>
<path d="M76.8196 64.9777C76.7541 65.0706 76.7189 65.1817 76.7189 65.2956C76.7189 65.4095 76.7541 65.5205 76.8196 65.6135C76.8379 65.6367 76.9072 65.7819 76.9412 65.7831C76.9699 65.7807 76.9965 65.7671 77.0154 65.7453C77.1623 65.5912 77.2996 65.4282 77.4265 65.2571C77.5546 65.0839 77.7399 64.9619 77.9494 64.913C78.2035 64.8727 78.448 65.0082 78.6705 65.1376C78.7662 65.1852 78.8494 65.2546 78.9137 65.3401C78.9606 65.425 78.9884 65.5191 78.9952 65.6159C79.0591 66.1978 79.0835 66.7833 79.0682 67.3684C79.08 67.7903 79.0523 68.2124 78.9855 68.629C78.9441 68.8438 78.8821 69.0537 78.8529 69.271C78.8316 69.4622 78.8231 69.6546 78.8274 69.847V70.6524C78.8221 70.8 78.8327 70.9477 78.859 71.093C78.9092 71.2663 78.9681 71.437 79.0354 71.6043C79.0946 71.8035 79.1353 72.0078 79.157 72.2145L79.2664 73.048C79.3017 73.3116 79.3272 73.5984 79.1679 73.8095C79.0974 73.906 79.0025 73.9816 78.9247 74.0768C78.6511 74.4258 78.7423 74.9323 78.6207 75.3655C78.5307 75.6834 78.3466 75.9664 78.0929 76.1771C77.8995 76.3418 77.649 76.4724 77.3985 76.4211C77.0616 76.3577 76.8585 76.005 76.7661 75.6718C76.6737 75.3387 76.6445 74.975 76.4414 74.6955C76.2785 74.4649 76.0267 74.3209 75.7993 74.1561C75.5719 73.9914 75.3481 73.7803 75.2983 73.502C75.2764 73.38 75.2898 73.2579 75.2776 73.1359C75.2595 72.9804 75.2001 72.8326 75.1055 72.7081C75.011 72.5835 74.8847 72.4868 74.7401 72.4281C74.5674 72.361 74.3534 72.3365 74.2537 72.184C74.5012 72.0279 74.6817 71.7846 74.7596 71.5018C74.835 71.2232 74.8759 70.9362 74.8812 70.6475L74.9395 69.6786C74.9651 69.2453 74.9772 68.8158 75.1669 68.4265C75.2521 68.2532 75.3579 68.0896 75.4454 67.9176C75.5627 67.6761 75.6627 67.4265 75.7446 67.1707C75.882 66.7741 76.0206 66.3762 76.1435 65.9747C76.1926 65.7803 76.2662 65.5929 76.3624 65.417C76.4755 65.234 76.6251 65.0143 76.8196 64.9777Z" fill="#E8E8F0"/>
<path d="M74.6758 71.2736L74.9312 71.2822L74.9859 70.8953C74.9932 70.8179 75.0112 70.7419 75.0394 70.6695C75.0818 70.5932 75.1311 70.5209 75.1865 70.4535C75.4383 70.0972 75.42 69.6237 75.4821 69.1904C75.5648 68.6132 75.8055 68.0713 76.0439 67.5393L76.5401 66.4299C76.5843 66.3387 76.6197 66.2435 76.6459 66.1456C76.6675 66.0376 76.6777 65.9275 76.6763 65.8173C76.6763 65.6465 76.7322 65.0228 76.7359 64.8508C76.7359 64.7873 76.5972 64.8227 76.568 64.7666C76.506 64.6445 76.4209 64.9765 76.3041 65.0497C76.1941 65.1341 76.114 65.2517 76.0755 65.3853C75.9685 65.6648 75.9028 65.9589 75.8031 66.2396C75.7156 66.527 75.5561 66.7871 75.3398 66.995C75.2388 67.0853 75.1209 67.1561 75.0248 67.2513C74.7159 67.5576 74.6867 68.0408 74.6758 68.4716C74.6685 68.7389 74.6186 71.2736 74.6758 71.2736Z" fill="#2F2E41"/>
<path d="M78.3544 64.5152C78.1112 64.6128 77.9701 64.8813 77.9008 65.1424C77.8315 65.4036 77.8023 65.6794 77.6685 65.9113C77.3572 66.4556 76.5631 66.6142 76.343 67.2024C76.2869 67.4011 76.2571 67.6062 76.2542 67.8126C76.2153 68.2336 76.0766 68.6412 76.0353 69.0623C76.0138 69.3898 76.0215 69.7186 76.0584 70.0447L76.3369 73.3678C76.3909 73.8572 76.3625 74.3522 76.253 74.8322C76.5386 74.8735 76.8299 74.8253 77.0872 74.6943C77.3487 74.5723 77.587 74.4112 77.8375 74.2721C78.2693 74.028 78.746 73.8632 79.123 73.5398C79.1914 73.4864 79.2502 73.4216 79.2969 73.3482C79.3574 73.2085 79.3983 73.0611 79.4185 72.9101C79.4505 72.7926 79.4911 72.6775 79.5401 72.566C79.6797 72.231 79.8015 71.8888 79.9049 71.5409C79.9757 71.3101 80.0314 71.0748 80.0715 70.8367C80.1019 70.6476 80.1177 70.4559 80.1347 70.2656C80.1542 69.9661 80.2135 69.6706 80.3111 69.3869C80.5523 68.71 80.6889 68.0001 80.716 67.2818C80.7244 67.178 80.7175 67.0735 80.6954 66.9718C80.6534 66.8484 80.597 66.7304 80.5275 66.6203C80.412 66.4019 80.3427 66.1614 80.2333 65.9406C79.99 65.4402 79.5535 65.0607 79.0974 64.7422C78.8639 64.5872 78.6073 64.4187 78.3544 64.5152Z" fill="#2F2E41"/>
<path d="M72.5487 69.9373C72.3511 69.8337 72.1723 69.6975 72.0197 69.5346C71.9503 69.4528 71.8981 69.3613 71.8227 69.2807C71.644 69.0897 71.4123 68.957 71.1575 68.9C70.9044 68.844 70.6455 68.819 70.3864 68.8255C70.2134 68.8135 70.0397 68.8347 69.8745 68.8878C69.7915 68.915 69.7168 68.9628 69.6573 69.0268C69.5977 69.0909 69.5553 69.169 69.534 69.2539C69.4963 69.4613 69.6312 69.6627 69.793 69.7945C69.9434 69.9178 70.1203 70.0043 70.3098 70.0471C70.4644 70.074 70.6203 70.0923 70.7768 70.102C71.6962 70.1985 72.517 70.7 73.3221 71.1577C74.0299 71.5588 74.7514 71.9342 75.4868 72.2841C75.5159 72.0632 75.5281 71.8405 75.5232 71.6177C75.5232 71.4518 75.5111 71.1979 75.3542 71.1003C75.1718 70.9856 74.8678 70.96 74.6659 70.8916C74.192 70.7364 73.7292 70.5489 73.2808 70.3303C73.0266 70.207 72.7834 70.0764 72.5487 69.9373Z" fill="#FBBEBE"/>
<path d="M76.568 64.7251C77.4727 64.7251 78.2061 63.9847 78.2061 63.0715C78.2061 62.1582 77.4727 61.4179 76.568 61.4179C75.6633 61.4179 74.9299 62.1582 74.9299 63.0715C74.9299 63.9847 75.6633 64.7251 76.568 64.7251Z" fill="#FBBEBE"/>
<path d="M78.8226 66.3897C78.6923 66.5735 78.5856 66.7732 78.5052 66.984C78.3022 67.4026 77.9848 67.7614 77.8267 68.2044C77.6588 68.6644 77.6649 69.2124 77.3402 69.5748C77.275 69.6298 77.2258 69.7015 77.1979 69.7823C77.1959 69.8327 77.1902 69.8829 77.1809 69.9324C77.1347 70.0642 76.9195 70.0703 76.8793 70.2046C76.8684 70.2436 76.8793 70.2863 76.8599 70.3266C76.827 70.4132 76.7139 70.4254 76.6373 70.4779C76.478 70.5865 76.5157 70.8379 76.3941 70.9941C76.3447 71.0521 76.2808 71.096 76.2091 71.1213C76.1373 71.1466 76.0602 71.1524 75.9855 71.1381C75.8364 71.1066 75.6929 71.0527 75.5599 70.9783C75.5131 70.9519 75.4613 70.9356 75.4078 70.9307C75.3444 70.932 75.2828 70.9529 75.2315 70.9905C74.9287 71.1833 74.7864 71.5665 74.7888 71.9277C74.8102 72.289 74.8955 72.6435 75.0406 72.9748C75.0577 73.0321 75.0863 73.0852 75.1245 73.131C75.2242 73.2372 75.3993 73.2201 75.5331 73.1603C75.6584 73.0858 75.7919 73.0261 75.9308 72.9821C76.1837 72.9358 76.4318 73.1115 76.6884 73.0968C76.8761 73.0682 77.0529 72.9899 77.2004 72.8699C77.4608 72.7111 77.6941 72.5113 77.8911 72.278C78.003 72.1303 78.0857 71.9619 78.1842 71.8045C78.31 71.6111 78.4481 71.426 78.5977 71.2504L79.5426 70.0898C79.6374 69.9799 79.7224 69.8619 79.7967 69.7372C79.8819 69.5684 79.9484 69.3908 79.995 69.2075C80.0962 68.9017 80.1619 68.5851 80.1908 68.2642C80.1956 67.9984 80.1724 67.7329 80.1214 67.4721C80.0897 67.2127 80.0213 66.9592 79.9183 66.7192C79.708 66.292 79.2081 65.9381 78.8226 66.3897Z" fill="#2F2E41"/>
<path d="M82.1134 64.2357C82.1147 63.9425 82.0466 63.6532 81.9147 63.3916C81.7827 63.13 81.5908 62.9036 81.3546 62.731C81.3475 62.2105 81.1563 61.7095 80.8154 61.3172C80.4744 60.925 80.0057 60.667 79.4928 60.5892C79.3936 60.0962 79.1242 59.6541 78.7321 59.3408C78.34 59.0276 77.8503 58.8633 77.3492 58.8768C76.8482 58.8904 76.3681 59.081 75.9933 59.415C75.6186 59.749 75.3734 60.205 75.3009 60.7027C74.6199 60.5489 73.9972 60.7491 73.8841 61.1701C73.7625 61.6107 74.2489 62.1257 74.9689 62.3209C75.1945 62.3849 75.4295 62.4085 75.6633 62.3905C75.8307 62.6372 76.0476 62.846 76.3002 63.0037C76.5528 63.1613 76.8354 63.2642 77.1299 63.3058C77.2164 63.7038 77.4119 64.0698 77.6944 64.3624C77.977 64.6549 78.3353 64.8626 78.7291 64.9618C78.838 65.226 79.0071 65.4609 79.2228 65.6477C79.2228 65.6989 79.2143 65.7514 79.2143 65.8051C79.2064 65.9927 79.2365 66.18 79.3026 66.3556C79.3688 66.5312 79.4696 66.6917 79.5991 66.8272C79.7286 66.9627 79.8841 67.0705 80.0562 67.1442C80.2283 67.2179 80.4135 67.2558 80.6006 67.2558C80.7877 67.2558 80.9729 67.2179 81.145 67.1442C81.3171 67.0705 81.4726 66.9627 81.6021 66.8272C81.7316 66.6917 81.8325 66.5312 81.8986 66.3556C81.9647 66.18 81.9948 65.9927 81.987 65.8051C81.987 65.5945 81.9418 65.3864 81.8544 65.1949C82.0254 64.9045 82.1149 64.573 82.1134 64.2357Z" fill="#F86D70"/>
<path opacity="0.1" d="M74.3462 61.2543C74.4593 60.8333 75.0759 60.6331 75.763 60.7869C75.8429 60.2815 76.0982 59.8206 76.4838 59.4857C76.8694 59.1507 77.3605 58.9633 77.8705 58.9563C77.9179 58.9563 77.9653 58.9563 78.0115 58.9563C77.8145 58.896 77.6095 58.8656 77.4035 58.866C76.8935 58.8729 76.4024 59.0604 76.0168 59.3953C75.6312 59.7303 75.3759 60.1911 75.296 60.6966C74.615 60.5428 73.9923 60.743 73.8792 61.164C73.7576 61.6046 74.2441 62.1196 74.964 62.3148C75.0979 62.3521 75.2352 62.3758 75.3738 62.3856C74.6904 62.1855 74.2307 61.6851 74.3462 61.2543Z" fill="black"/>
<path opacity="0.1" d="M79.6764 65.8905C79.6764 65.8368 79.6764 65.7844 79.6849 65.7319C79.4692 65.5456 79.3001 65.3111 79.1912 65.0473C78.7977 64.947 78.4398 64.7389 78.1574 64.4462C77.875 64.1536 77.6792 63.7879 77.592 63.39C77.2974 63.3486 77.0148 63.2458 76.7622 63.0882C76.5096 62.9305 76.2927 62.7215 76.1254 62.4747C75.9892 62.4855 75.8522 62.4818 75.7168 62.4637C75.8849 62.6911 76.0964 62.8827 76.339 63.0272C76.5816 63.1718 76.8505 63.2665 77.1299 63.3058C77.2164 63.7038 77.4119 64.0698 77.6944 64.3624C77.977 64.6549 78.3353 64.8626 78.7291 64.9618C78.838 65.226 79.0071 65.4609 79.2228 65.6477C79.2228 65.6989 79.2143 65.7514 79.2143 65.8051C79.2081 66.1792 79.3496 66.5406 79.608 66.8104C79.8664 67.0802 80.2206 67.2365 80.5933 67.2451C80.3213 67.1398 80.0877 66.9537 79.9239 66.7117C79.76 66.4696 79.6737 66.1831 79.6764 65.8905Z" fill="black"/>
<path d="M77.3174 63.6773C77.4287 63.5925 77.4276 63.4033 77.3151 63.2546C77.2026 63.1059 77.0212 63.0542 76.9099 63.139C76.7987 63.2237 76.7997 63.413 76.9123 63.5617C77.0248 63.7103 77.2062 63.7621 77.3174 63.6773Z" fill="#FBBEBE"/>
<path d="M38.1611 71.9058L39.7809 70.9502C39.562 70.5747 39.2821 70.2385 38.9527 69.9556L35.8979 70.9087L38.2912 69.4967C37.6985 69.1711 37.0316 69.0058 36.356 69.0173C35.6804 69.0288 35.0195 69.2167 34.4382 69.5623C33.8569 69.908 33.3753 70.3996 33.0408 70.9887C32.7063 71.5779 32.5305 72.2443 32.5305 72.9223C32.5305 75.0787 34.2732 75.1532 36.422 75.1532C38.5709 75.1532 40.3135 75.0787 40.3135 72.9223C40.3148 72.3758 40.2009 71.8351 39.9791 71.3359L38.1611 71.9058Z" fill="white"/>
<path opacity="0.1" d="M38.5733 74.0024C38.4008 73.8289 38.2081 73.6768 37.9993 73.5496C37.7062 73.3531 37.401 73.153 37.0544 73.0871C36.7504 73.0285 36.4366 73.0785 36.1265 73.0602C35.5881 73.0273 35.0812 72.794 34.7049 72.4061C34.4836 72.1767 34.3097 71.8948 34.0433 71.719C33.7457 71.5415 33.3945 71.477 33.0534 71.5372C32.9546 71.551 32.8567 71.571 32.7604 71.597C32.6079 72.0221 32.5302 72.4705 32.5305 72.9223C32.5305 75.0787 34.2732 75.1532 36.422 75.1532C37.4654 75.1532 38.4116 75.1361 39.1108 74.8713L38.9892 74.6528C38.8788 74.4191 38.739 74.2005 38.5733 74.0024Z" fill="black"/>
</g>
<defs>
<linearGradient id="paint0_linear_1727_204" x1="69.0136" y1="78.0601" x2="69.0136" y2="58.578" gradientUnits="userSpaceOnUse">
<stop stop-color="#808080" stop-opacity="0.25"/>
<stop offset="0.54" stop-color="#808080" stop-opacity="0.12"/>
<stop offset="1" stop-color="#808080" stop-opacity="0.1"/>
</linearGradient>
<clipPath id="clip0_1727_204">
<rect width="139" height="81" fill="white"/>
</clipPath>
</defs>
</svg>
