<svg width="23" height="24" viewBox="0 0 23 24" fill="none" xmlns="http://www.w3.org/2000/svg">
<path d="M23 16.7639V1.24839C23 0.634233 22.4507 0.140137 21.7679 0.140137H4.92857C2.20759 0.140137 0 2.12576 0 4.57315V19.3499C0 21.7972 2.20759 23.7829 4.92857 23.7829H21.7679C22.4507 23.7829 23 23.2888 23 22.6746V21.9358C23 21.5894 22.8203 21.2754 22.5431 21.0723C22.3275 20.3611 22.3275 18.334 22.5431 17.6228C22.8203 17.4243 23 17.1103 23 16.7639ZM6.57143 6.32788C6.57143 6.1755 6.71004 6.05082 6.87946 6.05082H17.7634C17.9328 6.05082 18.0714 6.1755 18.0714 6.32788V7.25143C18.0714 7.40381 17.9328 7.52849 17.7634 7.52849H6.87946C6.71004 7.52849 6.57143 7.40381 6.57143 7.25143V6.32788ZM6.57143 9.28322C6.57143 9.13084 6.71004 9.00616 6.87946 9.00616H17.7634C17.9328 9.00616 18.0714 9.13084 18.0714 9.28322V10.2068C18.0714 10.3592 17.9328 10.4838 17.7634 10.4838H6.87946C6.71004 10.4838 6.57143 10.3592 6.57143 10.2068V9.28322ZM19.5808 20.8275H4.92857C4.01987 20.8275 3.28571 20.1672 3.28571 19.3499C3.28571 18.5371 4.025 17.8722 4.92857 17.8722H19.5808C19.4833 18.6618 19.4833 20.0379 19.5808 20.8275Z" fill="white"/>
</svg>
