<svg width="23" height="24" viewBox="0 0 23 24" fill="none" xmlns="http://www.w3.org/2000/svg">
<path d="M23 16.6238V1.10825C23 0.494096 22.4507 0 21.7679 0H4.92857C2.20759 0 0 1.98562 0 4.43301V19.2097C0 21.6571 2.20759 23.6427 4.92857 23.6427H21.7679C22.4507 23.6427 23 23.1486 23 22.5345V21.7956C23 21.4493 22.8203 21.1353 22.5431 20.9321C22.3275 20.221 22.3275 18.1938 22.5431 17.4827C22.8203 17.2841 23 16.9701 23 16.6238ZM6.57143 6.18775C6.57143 6.03536 6.71004 5.91068 6.87946 5.91068H17.7634C17.9328 5.91068 18.0714 6.03536 18.0714 6.18775V7.11129C18.0714 7.26367 17.9328 7.38835 17.7634 7.38835H6.87946C6.71004 7.38835 6.57143 7.26367 6.57143 7.11129V6.18775ZM6.57143 9.14309C6.57143 8.9907 6.71004 8.86602 6.87946 8.86602H17.7634C17.9328 8.86602 18.0714 8.9907 18.0714 9.14309V10.0666C18.0714 10.219 17.9328 10.3437 17.7634 10.3437H6.87946C6.71004 10.3437 6.57143 10.219 6.57143 10.0666V9.14309ZM19.5808 20.6874H4.92857C4.01987 20.6874 3.28571 20.0271 3.28571 19.2097C3.28571 18.397 4.025 17.732 4.92857 17.732H19.5808C19.4833 18.5217 19.4833 19.8978 19.5808 20.6874Z" fill="#FF8A00"/>
</svg>
