<svg width="173" height="72" viewBox="0 0 173 72" fill="none" xmlns="http://www.w3.org/2000/svg">
<g clip-path="url(#clip0_1727_415)">
<path d="M130.362 30.966V17.5586C130.362 16.2217 131.457 15.1342 132.802 15.1342H141.626C142.971 15.1342 144.066 16.2217 144.066 17.5586V30.966C144.066 32.3029 142.971 33.3904 141.626 33.3904H132.802C131.457 33.3904 130.362 32.3029 130.362 30.966Z" fill="#0058BF"/>
<path d="M134.881 20.9298H139.546V19.7707H134.881V20.9298Z" fill="#3F3D56"/>
<path d="M136.048 18.9013H138.38V15.1342H136.048V18.9013Z" fill="#3F3D56"/>
<path d="M136.048 33.3904H138.38V29.6232H136.048V33.3904Z" fill="#3F3D56"/>
<path d="M124.094 31.5079H110.604C109.259 31.5079 108.165 30.4204 108.165 29.0835V20.3126C108.165 18.9757 109.259 17.8882 110.604 17.8882H124.094C125.439 17.8882 126.533 18.9757 126.533 20.3126V29.0835C126.533 30.4204 125.439 31.5079 124.094 31.5079Z" fill="#0058BF"/>
<path d="M119.973 19.7718H115.308V20.9309H119.973V19.7718Z" fill="#3F3D56"/>
<path d="M111.955 25.8572V23.5389H108.165V25.8572H111.955Z" fill="#3F3D56"/>
<path d="M126.533 25.8572V23.5389H122.743V25.8572H126.533Z" fill="#3F3D56"/>
<path d="M14.6671 56.5793L12.4152 43.5229C11.4145 37.7213 15.7349 32.3526 21.6494 32.0481L53.7536 30.3955L61.4156 17.8444C62.4314 16.1805 64.2475 15.1644 66.2057 15.1644H89.2734C91.0867 15.1644 92.6187 16.5008 92.854 18.2877L93.4399 28.3306L150.95 28.5017L158.185 52.1985L151.47 51.8731L151.814 59.0608L143.033 59.4031L140.105 51.1762C139.554 49.6271 137.139 47.8804 134.628 46.419C129 43.1429 121.769 44.1944 117.509 49.104C116.505 50.2623 115.802 51.469 115.606 52.6006L114.277 60.2588L49.8794 59.2319L41.4394 47.4978C38.9459 44.8008 27.1748 43.8102 26.1148 47.4978L19.7467 56.836L14.6671 56.5793Z" fill="#E6E6E6"/>
<path d="M84.6607 22.8015L86.5554 31.679L62.4492 32.1924L67.5405 21.3278C68.0024 20.3422 69.0163 19.7303 70.1092 19.7775L81.6607 20.2767C83.123 20.3399 84.357 21.3784 84.6607 22.8015Z" fill="white"/>
<path d="M59.1775 31.5079L63.9987 19.1861L62.7365 17.9315L54.8728 29.7965L56.4706 32.1924L59.1775 31.5079Z" fill="white"/>
<path d="M128.224 71.5538C134.501 71.5538 139.589 66.4968 139.589 60.2588C139.589 54.0207 134.501 48.9638 128.224 48.9638C121.948 48.9638 116.86 54.0207 116.86 60.2588C116.86 66.4968 121.948 71.5538 128.224 71.5538Z" fill="#3F3D56"/>
<path d="M120.39 60.2588C120.39 55.9651 123.905 52.4721 128.225 52.4721C132.545 52.4721 136.059 55.9651 136.059 60.2588C136.059 64.5524 132.545 68.0455 128.225 68.0455C123.905 68.0455 120.39 64.5524 120.39 60.2588ZM120.562 60.2588C120.562 64.4579 124 67.8743 128.225 67.8743C132.45 67.8743 135.887 64.4579 135.887 60.2588C135.887 56.0596 132.45 52.6432 128.225 52.6432C124 52.6432 120.562 56.0596 120.562 60.2588Z" fill="white"/>
<path d="M121.509 60.2588C121.509 63.9449 124.516 66.9331 128.225 66.9331C131.933 66.9331 134.94 63.9449 134.94 60.2588C134.94 56.5727 131.933 53.5845 128.225 53.5845C124.516 53.5845 121.509 56.5727 121.509 60.2588ZM132.59 58.6605L131.4 59.4312L130.943 58.7341L132.59 58.6605ZM130.778 62.5803L131.095 61.8101L132.093 63.1145L130.778 62.5803ZM127.732 65.2217L128.569 63.8102V65.2217H127.732ZM127.732 57.0496L128.569 55.6381V57.0496H127.732ZM124.012 63.1145L125.01 61.8101L125.326 62.5803L124.012 63.1145ZM123.515 58.6605L125.162 58.7341L124.705 59.4312L123.515 58.6605Z" fill="#E6E6E6"/>
<path d="M32.8328 71.5538C39.1092 71.5538 44.1972 66.4968 44.1972 60.2588C44.1972 54.0207 39.1092 48.9638 32.8328 48.9638C26.5565 48.9638 21.4685 54.0207 21.4685 60.2588C21.4685 66.4968 26.5565 71.5538 32.8328 71.5538Z" fill="#3F3D56"/>
<path d="M24.9985 60.2588C24.9985 55.9651 28.5131 52.4721 32.833 52.4721C37.153 52.4721 40.6675 55.9651 40.6675 60.2588C40.6675 64.5524 37.153 68.0455 32.833 68.0455C28.5131 68.0455 24.9985 64.5524 24.9985 60.2588ZM25.1707 60.2588C25.1707 64.4579 28.608 67.8743 32.833 67.8743C37.0581 67.8743 40.4954 64.4579 40.4954 60.2588C40.4954 56.0596 37.0581 52.6432 32.833 52.6432C28.608 52.6432 25.1707 56.0596 25.1707 60.2588Z" fill="white"/>
<path d="M26.1177 60.2588C26.1177 63.9449 29.1242 66.9331 32.833 66.9331C36.5417 66.9331 39.5483 63.9449 39.5483 60.2588C39.5483 56.5727 36.5417 53.5845 32.833 53.5845C29.1242 53.5845 26.1177 56.5727 26.1177 60.2588ZM37.1981 58.6605L36.0083 59.4312L35.5512 58.7341L37.1981 58.6605ZM35.3868 62.5803L35.7036 61.8101L36.7013 63.1145L35.3868 62.5803ZM32.3401 65.2217L33.1773 63.8102V65.2217H32.3401ZM32.3401 57.0496L33.1773 55.6381V57.0496H32.3401ZM28.6202 63.1145L29.6179 61.8101L29.9348 62.5803L28.6202 63.1145ZM28.1234 58.6605L29.7704 58.7341L29.3132 59.4312L28.1234 58.6605Z" fill="#E6E6E6"/>
<path d="M80.2704 36.2141H86.8135V34.845H80.2704V36.2141Z" fill="#3F3D56"/>
<path d="M172.495 63.0901C172.434 62.9046 171.972 62.9863 171.927 62.8204C171.883 62.6551 172.326 62.5165 172.667 62.0506C172.728 61.9666 173.115 61.4372 172.966 61.2145C172.685 60.7924 170.73 61.8436 170.261 61.2537C170.158 61.1243 170.115 60.902 169.808 60.4884C169.686 60.3239 169.608 60.2444 169.514 60.2468C169.382 60.2501 169.334 60.4152 169.125 60.7143C168.812 61.1628 168.699 61.1065 168.493 61.4739C168.34 61.7467 168.322 61.921 168.212 61.9313C168.056 61.9459 167.991 61.6062 167.8 61.593C167.605 61.5796 167.411 61.9152 167.314 62.1774C167.133 62.6694 167.245 63.0455 167.27 63.4203C167.297 63.8276 167.233 64.4239 166.788 65.1891L162.588 71.8398C163.49 70.484 166.05 66.7869 167.082 65.4308C167.38 65.0393 167.7 64.6462 168.192 64.5722C168.667 64.501 169.244 64.7342 170.049 64.7206C170.143 64.7191 170.405 64.7113 170.468 64.5734C170.521 64.4594 170.39 64.3603 170.438 64.2532C170.502 64.1094 170.789 64.1711 171.18 64.0756C171.455 64.0083 171.643 63.8971 171.804 63.8014C171.852 63.7726 172.576 63.337 172.495 63.0901Z" fill="#F2F2F2"/>
<path d="M161.494 64.6429C161.385 64.6191 161.292 64.8682 161.197 64.8419C161.103 64.8158 161.163 64.5595 161.031 64.2591C161.007 64.2049 160.857 63.8636 160.704 63.8717C160.415 63.887 160.37 65.1441 159.943 65.2029C159.849 65.2158 159.727 65.1723 159.435 65.2027C159.318 65.2148 159.256 65.23 159.23 65.2764C159.194 65.3421 159.262 65.4129 159.349 65.601C159.48 65.8831 159.42 65.9219 159.542 66.1285C159.632 66.2819 159.713 66.341 159.686 66.3978C159.648 66.4782 159.462 66.4117 159.401 66.501C159.338 66.5921 159.447 66.784 159.549 66.9068C159.74 67.1372 159.958 67.1909 160.15 67.2869C160.359 67.3913 160.635 67.5943 160.884 68.0323L162.957 72C162.548 71.1688 161.461 68.8531 161.089 67.9586C160.981 67.7004 160.879 67.4309 160.985 67.1692C161.087 66.9174 161.368 66.7032 161.594 66.3064C161.62 66.2601 161.692 66.1301 161.642 66.0593C161.601 66.0007 161.514 66.0359 161.475 65.9818C161.423 65.9092 161.536 65.787 161.602 65.5687C161.648 65.4148 161.647 65.2913 161.646 65.1851C161.646 65.1531 161.64 64.6745 161.494 64.6429Z" fill="#F2F2F2"/>
<path d="M163.562 65.611L163.627 65.0132L163.667 64.9757C163.852 64.802 163.968 64.6181 164.011 64.4288C164.018 64.3987 164.023 64.3682 164.029 64.3372C164.05 64.2143 164.077 64.0615 164.196 63.9028C164.263 63.8144 164.439 63.6146 164.62 63.6844C164.669 63.7026 164.702 63.7342 164.725 63.7677C164.731 63.7618 164.737 63.7561 164.743 63.7498C164.822 63.674 164.876 63.6463 164.929 63.6196C164.97 63.599 165.012 63.5779 165.083 63.5215C165.114 63.4967 165.139 63.4745 165.16 63.4558C165.224 63.3992 165.305 63.3331 165.417 63.3593C165.535 63.3914 165.575 63.5036 165.602 63.5778C165.65 63.7103 165.665 63.8013 165.675 63.8617C165.679 63.8838 165.683 63.9087 165.686 63.9167C165.712 63.9816 166.037 63.9984 166.159 64.0054C166.434 64.0202 166.672 64.033 166.729 64.2201C166.77 64.354 166.684 64.4999 166.467 64.6655C166.4 64.7171 166.332 64.7526 166.273 64.7792C166.309 64.8132 166.338 64.8595 166.34 64.9226C166.344 65.0719 166.19 65.1864 165.882 65.2636C165.806 65.283 165.703 65.3087 165.568 65.3022C165.505 65.2991 165.449 65.2895 165.402 65.2804C165.395 65.3072 165.382 65.3351 165.359 65.3616C165.29 65.4395 165.18 65.4593 165.029 65.4154C164.864 65.3695 164.733 65.3071 164.617 65.2522C164.516 65.2044 164.429 65.1635 164.356 65.1523C164.22 65.1334 164.093 65.2168 163.942 65.3277L163.562 65.611Z" fill="#F2F2F2"/>
<path d="M164.646 62.2062L164.048 62.2952L164.001 62.2664C163.785 62.1327 163.577 62.0682 163.382 62.0745C163.35 62.0755 163.319 62.0781 163.288 62.0807C163.163 62.0911 163.007 62.104 162.823 62.03C162.72 61.9884 162.481 61.8699 162.503 61.6777C162.508 61.6259 162.53 61.5861 162.557 61.5556C162.55 61.5515 162.543 61.5473 162.535 61.5428C162.441 61.4866 162.4 61.4409 162.361 61.3969C162.331 61.3631 162.3 61.3281 162.227 61.2742C162.195 61.2506 162.167 61.2323 162.143 61.2168C162.072 61.1699 161.987 61.1084 161.984 60.9944C161.985 60.8726 162.084 60.8051 162.15 60.7604C162.266 60.6806 162.351 60.6433 162.408 60.6185C162.428 60.6096 162.451 60.5993 162.458 60.5943C162.515 60.553 162.449 60.2362 162.425 60.1169C162.369 59.8488 162.321 59.6168 162.489 59.5144C162.609 59.441 162.773 59.4862 162.989 59.6529C163.056 59.7049 163.108 59.7609 163.149 59.8107C163.173 59.7673 163.21 59.7278 163.271 59.7101C163.416 59.6684 163.566 59.7874 163.719 60.0637C163.758 60.1323 163.809 60.2247 163.837 60.3558C163.85 60.4175 163.854 60.4734 163.858 60.5212C163.885 60.5212 163.916 60.5265 163.948 60.5423C164.041 60.5883 164.088 60.6897 164.083 60.8452C164.081 61.0162 164.053 61.1579 164.029 61.283C164.008 61.3922 163.991 61.4862 163.998 61.5593C164.014 61.6947 164.128 61.7953 164.274 61.9129L164.646 62.2062Z" fill="#F2F2F2"/>
<path d="M164.727 60.4206L164.792 59.8228L164.832 59.7853C165.017 59.6116 165.132 59.4277 165.176 59.2384C165.183 59.2083 165.188 59.1778 165.193 59.1468C165.215 59.0239 165.242 58.8711 165.361 58.7124C165.427 58.624 165.603 58.4242 165.785 58.494C165.834 58.5122 165.867 58.5438 165.89 58.5773C165.896 58.5714 165.902 58.5657 165.908 58.5594C165.986 58.4836 166.041 58.4559 166.094 58.4292C166.135 58.4086 166.177 58.3875 166.248 58.3311C166.279 58.3063 166.304 58.2841 166.325 58.2654C166.388 58.2088 166.47 58.1427 166.581 58.1689C166.7 58.201 166.74 58.3132 166.767 58.3874C166.815 58.5199 166.83 58.6109 166.84 58.6713C166.843 58.6934 166.847 58.7183 166.85 58.7263C166.876 58.7912 167.201 58.808 167.324 58.815C167.599 58.8298 167.837 58.8426 167.894 59.0297C167.935 59.1636 167.849 59.3095 167.632 59.4751C167.564 59.5267 167.497 59.5622 167.438 59.5888C167.474 59.6228 167.503 59.6691 167.505 59.7322C167.509 59.8815 167.355 59.996 167.047 60.0732C166.971 60.0926 166.868 60.1183 166.733 60.1118C166.67 60.1087 166.614 60.0991 166.567 60.09C166.56 60.1168 166.547 60.1447 166.523 60.1712C166.455 60.2491 166.344 60.2689 166.194 60.225C166.028 60.1791 165.897 60.1167 165.782 60.0618C165.681 60.014 165.594 59.9731 165.521 59.9619C165.385 59.943 165.258 60.0264 165.107 60.1373L164.727 60.4206Z" fill="#F2F2F2"/>
<path d="M162.787 71.8739L162.681 71.77L162.534 71.7545C162.535 71.7408 162.534 71.7087 162.533 71.6585C162.527 71.3835 162.509 70.5466 162.627 69.2607C162.709 68.363 162.845 67.4519 163.033 66.552C163.222 65.6508 163.417 64.9802 163.574 64.4412C163.692 64.0347 163.812 63.6492 163.929 63.2736C164.24 62.2702 164.534 61.3223 164.716 60.2412C164.757 59.9998 164.842 59.4974 164.668 58.9045C164.568 58.5606 164.396 58.2368 164.157 57.9426L164.388 57.7569C164.652 58.082 164.842 58.4405 164.954 58.8223C165.146 59.4798 165.054 60.0272 165.009 60.2902C164.824 61.3904 164.527 62.3474 164.213 63.3605C164.097 63.7347 163.977 64.1186 163.859 64.5234C163.704 65.0574 163.51 65.7222 163.324 66.6118C163.139 67.5009 163.004 68.4009 162.923 69.2873C162.807 70.557 162.824 71.3814 162.83 71.6523C162.833 71.7969 162.834 71.8272 162.787 71.8739Z" fill="#F2F2F2"/>
<path d="M163.521 58.2828C163.51 58.2802 163.498 58.2772 163.486 58.2737C163.241 58.2057 163.046 58.008 162.903 57.6862C162.837 57.5348 162.821 57.3756 162.79 57.0579C162.785 57.009 162.763 56.7612 162.79 56.4328C162.807 56.2181 162.831 56.132 162.889 56.0643C162.955 55.9889 163.042 55.9457 163.135 55.924C163.138 55.8956 163.147 55.8678 163.166 55.8415C163.242 55.7322 163.37 55.7771 163.439 55.8005C163.474 55.813 163.518 55.8288 163.567 55.837C163.644 55.8503 163.69 55.8368 163.76 55.8168C163.826 55.7976 163.909 55.7737 164.024 55.7757C164.25 55.7788 164.417 55.8797 164.472 55.9129C164.763 56.0864 164.863 56.3631 164.979 56.6836C165.002 56.7478 165.078 56.98 165.096 57.2789C165.109 57.4946 165.081 57.5829 165.048 57.646C164.981 57.7758 164.88 57.836 164.626 57.9626C164.362 58.0952 164.229 58.1616 164.121 58.1957C163.867 58.2747 163.708 58.3243 163.521 58.2828Z" fill="#F2F2F2"/>
<path d="M0 71.6171C0 71.7301 0.159321 71.8208 0.35772 71.8208H171.128C171.326 71.8208 171.485 71.7301 171.485 71.6171C171.485 71.5042 171.326 71.4135 171.128 71.4135H0.35772C0.159321 71.4135 0 71.5042 0 71.6171Z" fill="#CCCCCC"/>
<path d="M86.7717 70.3313L89.1625 70.331L90.2998 61.1657L86.7712 61.166L86.7717 70.3313Z" fill="#FFB6B6"/>
<path d="M94.9629 70.2774C95.0373 70.402 95.0766 70.8041 95.0766 70.949C95.0766 71.3944 94.7133 71.7555 94.2651 71.7555L86.8612 71.7555C86.5555 71.7555 86.3077 71.5092 86.3077 71.2053V70.899C86.3077 70.899 85.9414 69.9782 86.6955 68.8433C86.6955 68.8433 87.6327 69.7319 89.0331 68.34L89.4461 67.5965L92.4355 69.7694L94.0924 69.9721C94.455 70.0165 94.7764 69.9652 94.9629 70.2774Z" fill="#2F2E41"/>
<path d="M76.0303 70.3313L78.421 70.331L79.5583 61.1657L76.0298 61.166L76.0303 70.3313Z" fill="#FFB6B6"/>
<path d="M84.2214 70.2774C84.2958 70.402 84.3351 70.8041 84.3351 70.949C84.3351 71.3944 83.9718 71.7555 83.5237 71.7555L76.1198 71.7555C75.8141 71.7555 75.5662 71.5092 75.5662 71.2053V70.899C75.5662 70.899 75.2 69.9782 75.954 68.8433C75.954 68.8433 76.8912 69.7319 78.2917 68.34L78.7047 67.5965L81.694 69.7694L83.351 69.9721C83.7135 70.0165 84.0349 69.9652 84.2214 70.2774Z" fill="#2F2E41"/>
<path d="M86.3932 7.74828L86.8471 11.9585L81.552 11.5074L82.4597 7.59792L86.3932 7.74828Z" fill="#FFB6B6"/>
<path opacity="0.1" d="M86.3932 7.74828L86.8471 11.9585L81.552 11.5074L82.4597 7.59792L86.3932 7.74828Z" fill="black"/>
<path d="M84.5021 8.27456C86.4238 8.27456 87.9817 6.72619 87.9817 4.81617C87.9817 2.90615 86.4238 1.35777 84.5021 1.35777C82.5803 1.35777 81.0225 2.90615 81.0225 4.81617C81.0225 6.72619 82.5803 8.27456 84.5021 8.27456Z" fill="#FFB6B6"/>
<path d="M86.7714 10.2293L92.596 13.6125L90.6876 22.7848L91.9909 35.1147L91.0831 65.3381L85.4855 64.7366L84.729 39.0242L80.3417 65.6388H74.906L75.803 36.9191L78.5262 24.7395L76.862 11.5074L81.9302 9.92857L86.7714 10.2293Z" fill="#2F2E41"/>
<path d="M86.9984 5.79354C86.9984 5.79354 87.301 4.74098 87.9818 4.81616C88.6626 4.89135 88.8139 4.28989 88.6626 3.98916C88.5113 3.68843 88.2087 2.18478 88.2087 2.18478C88.2087 2.18478 88.36 1.13222 87.4523 0.981857C86.5446 0.831491 86.242 0.681126 86.0907 0.380397C85.9394 0.0796662 83.6701 -0.221063 82.9137 0.230032C82.1572 0.681126 81.5521 1.54661 81.0225 1.79051C80.493 2.03441 80.0392 2.48551 80.3418 3.23733C80.6443 3.98916 81.0831 5.45957 81.0831 5.45957C81.0831 5.45957 81.8546 5.19208 82.0059 5.64317C82.1572 6.09427 81.5521 5.49281 82.3085 4.28989C83.0649 3.08697 83.0649 1.88405 84.2752 2.33514C85.4856 2.78624 86.8471 2.63587 86.6959 3.53806C86.5446 4.44025 86.9984 5.79354 86.9984 5.79354Z" fill="#2F2E41"/>
<path d="M89.5924 32.4174C88.8642 33.1837 88.6718 34.1783 89.1625 34.6389C89.6533 35.0994 90.6413 34.8514 91.3697 34.0847C91.6648 33.7824 91.8829 33.4142 92.0056 33.011L95.0497 29.7253L93.4679 28.3383L90.6348 31.7247C90.2367 31.8695 89.8792 32.107 89.5924 32.4174Z" fill="#FFB6B6"/>
<path d="M92.5348 13.5373L97.6613 22.2179L98.4207 26.1808L93.4842 32.4081L91.3957 29.7662L93.8639 26.1808L89.8767 19.1986L92.5348 13.5373Z" fill="#2F2E41"/>
<path d="M78.1213 31.6091V21.3742C78.1213 19.8143 79.3982 18.5452 80.9677 18.5452H96.709C98.2785 18.5452 99.5553 19.8143 99.5553 21.3742V31.6091C99.5553 33.169 98.2785 34.4381 96.709 34.4381H80.9677C79.3982 34.4381 78.1213 33.169 78.1213 31.6091Z" fill="#0058BF"/>
<path d="M85.7764 25.0051H91.22V23.6525H85.7764V25.0051Z" fill="#3F3D56"/>
<path d="M90.7737 34.3474V31.6422H86.3508V34.3474H90.7737Z" fill="#3F3D56"/>
<path d="M90.9814 21.3411V18.6359H86.5586V21.3411H90.9814Z" fill="#3F3D56"/>
<path d="M79.7144 30.4626C80.4426 31.229 80.635 32.2236 80.1443 32.6841C79.6535 33.1446 78.6655 32.8967 77.9372 32.1299C77.642 31.8276 77.4239 31.4595 77.3013 31.0563L74.2571 27.7705L75.8389 26.3836L78.672 29.77C79.0701 29.9148 79.4276 30.1523 79.7144 30.4626Z" fill="#FFB6B6"/>
<path d="M76.7721 11.5826L71.6457 20.2632L70.8862 24.226L75.8228 30.4534L77.9113 27.8115L75.443 24.226L79.4302 17.2438L76.7721 11.5826Z" fill="#2F2E41"/>
<path d="M13.0287 52.9742C15.5963 52.9742 17.6777 51.1736 17.6777 48.9525C17.6777 46.7313 15.5963 44.9308 13.0287 44.9308C10.4611 44.9308 8.37964 46.7313 8.37964 48.9525C8.37964 51.1736 10.4611 52.9742 13.0287 52.9742Z" fill="#E6E6E6"/>
</g>
<defs>
<clipPath id="clip0_1727_415">
<rect width="173" height="72" fill="white"/>
</clipPath>
</defs>
</svg>
