<svg width="173" height="76" viewBox="0 0 173 76" fill="none" xmlns="http://www.w3.org/2000/svg">
<g clip-path="url(#clip0_1727_375)">
<path d="M51.468 62.5761C50.8732 67.2278 48.6862 71.4837 46.3531 75.5833C46.2759 75.7229 46.1965 75.8604 46.1152 76H21.866C21.3755 75.8729 20.8914 75.7333 20.4093 75.5833C17.6705 74.7509 15.0848 73.4811 12.7527 71.8232C3.83141 65.4071 0.398498 53.283 1.94907 42.4193C2.91322 35.6699 5.88067 28.7787 11.6591 25.1436C14.7101 23.2209 18.6292 22.5959 22.1414 23.3104C22.2333 23.3271 22.3251 23.3479 22.419 23.3667C25.4407 24.0458 28.1327 25.7332 29.6646 28.4517C32.4191 33.3367 30.7789 39.3883 29.4246 44.8254C28.0744 50.2625 27.3418 56.7703 31.261 60.7804C29.9671 56.9786 31.2443 52.4435 34.3349 49.8729C36.6701 47.9335 39.9214 47.2064 42.8868 47.8085C43.1706 47.8689 43.4503 47.9376 43.7257 48.021C44.3915 48.2156 45.0334 48.4839 45.6394 48.8209C50.2617 51.3978 52.1337 57.3327 51.468 62.5761Z" fill="#F2F2F2"/>
<path d="M37.0896 75.5833C37.7616 75.7396 38.4356 75.8771 39.1138 76H35.4473C34.9672 75.8708 34.4893 75.7333 34.0157 75.5833C32.9743 75.2584 31.949 74.8855 30.9396 74.4647C26.8912 72.769 23.1619 70.2234 20.3405 66.8361C18.9607 65.1951 17.8339 63.3576 16.9974 61.3845C16.0903 59.1544 15.5139 56.8041 15.2862 54.408C14.7749 49.4917 15.2966 44.44 16.2712 39.6112C17.2769 34.6064 18.9003 29.7454 21.1043 25.1395C21.3694 24.5874 21.6434 24.0389 21.9266 23.4938C21.946 23.4489 21.9755 23.409 22.0128 23.3773C22.05 23.3455 22.094 23.3226 22.1415 23.3104C22.2378 23.2918 22.3376 23.312 22.419 23.3667C22.5168 23.4226 22.5892 23.5139 22.6215 23.6217C22.6537 23.7295 22.6432 23.8455 22.5922 23.9458C20.3198 28.3696 18.5972 33.0539 17.4627 37.8947C16.3526 42.6172 15.7223 47.5585 15.9372 52.4144C16.1418 56.9515 17.3293 61.4137 20.0233 65.1238C22.4837 68.511 25.8811 71.1816 29.6396 73.0002C32.0184 74.1364 34.5174 75.0028 37.0896 75.5833Z" fill="white"/>
<path d="M45.1365 76H44.0555C43.9345 75.8625 43.8176 75.7229 43.7029 75.5834C41.2406 72.5969 39.5725 69.0389 38.853 65.2383C37.9791 60.4955 38.6589 55.5978 40.7916 51.2707C41.3867 50.0574 42.0878 48.8988 42.8868 47.8085C43.1706 47.8689 43.4503 47.9376 43.7258 48.021C41.624 50.8007 40.2103 54.0371 39.6 57.4661C39.0556 60.6791 39.2367 63.973 40.1299 67.1073C41.0231 70.2417 42.6059 73.1374 44.763 75.5834C44.8839 75.7229 45.0092 75.8625 45.1365 76Z" fill="white"/>
<path d="M142.517 72.4572C142.674 73.6848 143.252 74.8081 143.867 75.89C143.888 75.9269 143.909 75.9632 143.93 76H150.33C150.459 75.9665 150.587 75.9296 150.714 75.89C151.437 75.6704 152.12 75.3352 152.735 74.8977C155.09 73.2043 155.996 70.0046 155.586 67.1374C155.332 65.3561 154.549 63.5374 153.024 62.5781C152.195 62.0746 151.207 61.9018 150.257 62.0943C150.233 62.0987 150.209 62.1041 150.184 62.1091C149.788 62.1854 149.413 62.3445 149.084 62.5758C148.754 62.8071 148.477 63.1054 148.272 63.4511C147.545 64.7404 147.978 66.3375 148.335 67.7725C148.691 69.2074 148.885 70.9249 147.85 71.9833C148.002 71.5407 148.033 71.0657 147.94 70.6073C147.846 70.1489 147.633 69.7235 147.32 69.3749C147.008 69.0263 146.608 68.7671 146.162 68.6238C145.716 68.4805 145.24 68.4584 144.782 68.5597C144.707 68.5757 144.633 68.5938 144.561 68.6158C144.385 68.6672 144.216 68.738 144.056 68.8269C142.836 69.507 142.342 71.0734 142.517 72.4572Z" fill="#F2F2F2"/>
<path d="M146.312 75.89C146.135 75.9313 145.957 75.9676 145.778 76H146.745C146.872 75.9659 146.998 75.9296 147.123 75.89C147.398 75.8043 147.669 75.7059 147.935 75.5948C149.016 75.1569 149.975 74.4664 150.732 73.5815C151.097 73.1484 151.394 72.6634 151.615 72.1427C151.854 71.5541 152.006 70.9339 152.066 70.3015C152.176 68.9941 152.089 67.6777 151.806 66.3963C151.541 65.0755 151.113 63.7926 150.531 62.577C150.461 62.4313 150.389 62.2865 150.314 62.1426C150.309 62.1308 150.301 62.1203 150.291 62.1119C150.281 62.1035 150.27 62.0975 150.257 62.0943C150.232 62.0893 150.205 62.0947 150.184 62.1091C150.158 62.1239 150.139 62.148 150.13 62.1764C150.122 62.2048 150.125 62.2355 150.138 62.2619C150.738 63.4295 151.193 64.6657 151.492 65.9433C151.8 67.1964 151.936 68.4856 151.895 69.7753C151.873 70.9748 151.498 72.1413 150.816 73.1296C150.154 74.0196 149.282 74.7334 148.278 75.2083C147.65 75.5082 146.991 75.7368 146.312 75.89Z" fill="white"/>
<path d="M144.188 76H144.474C144.505 75.9637 144.536 75.9269 144.567 75.8901C145.216 75.1019 145.657 74.1628 145.847 73.1598C146.077 71.9081 145.898 70.6155 145.335 69.4735C145.178 69.1533 144.993 68.8475 144.782 68.5598C144.707 68.5757 144.633 68.5938 144.561 68.6158C145.115 69.3495 145.488 70.2036 145.649 71.1086C145.793 71.9565 145.745 72.8259 145.51 73.6531C145.274 74.4803 144.856 75.2445 144.287 75.8901C144.255 75.9269 144.222 75.9637 144.188 76Z" fill="white"/>
<path d="M84.8326 44.269H64.8028L64.5904 38.1214C64.5813 37.855 64.63 37.5896 64.7334 37.3438C64.8368 37.0979 64.9923 36.8773 65.1892 36.6972C65.3862 36.517 65.6199 36.3816 65.8743 36.3003C66.1287 36.219 66.3977 36.1936 66.6629 36.226L78.3189 37.6508H78.3203C80.0484 37.6554 81.7041 38.3437 82.9247 39.5647C84.1454 40.7857 84.8315 42.4399 84.8326 44.1649V44.269Z" fill="#0058BF"/>
<path d="M75.9052 22.4626H61.9354C61.7496 22.4625 61.5656 22.499 61.394 22.57C61.2223 22.6409 61.0664 22.7449 60.935 22.8761C60.8036 23.0072 60.6994 23.1629 60.6283 23.3343C60.5573 23.5056 60.5207 23.6893 60.5208 23.8748V37.8199C60.5207 38.0054 60.5573 38.189 60.6283 38.3604C60.6994 38.5317 60.8036 38.6874 60.935 38.8186C61.0664 38.9497 61.2223 39.0537 61.394 39.1247C61.5656 39.1956 61.7496 39.2321 61.9354 39.2321H75.9052C76.091 39.2321 76.275 39.1956 76.4467 39.1247C76.6183 39.0537 76.7743 38.9497 76.9057 38.8186C77.0371 38.6874 77.1413 38.5317 77.2123 38.3604C77.2834 38.189 77.32 38.0054 77.3199 37.8199V23.8748C77.32 23.6893 77.2834 23.5056 77.2123 23.3343C77.1413 23.1629 77.0371 23.0072 76.9057 22.8761C76.7743 22.7449 76.6183 22.6409 76.4467 22.57C76.275 22.499 76.091 22.4625 75.9052 22.4626Z" fill="#CCCCCC"/>
<path d="M72.7591 32.8902L66.1633 34.1724C65.7721 34.248 65.3668 34.1656 65.0363 33.9433C64.7059 33.7209 64.4773 33.3768 64.4007 32.9865L63.8936 30.3875C63.8179 29.9969 63.9005 29.5923 64.1232 29.2624C64.3459 28.9326 64.6906 28.7044 65.0817 28.6279L71.6775 27.3457C72.0687 27.2701 72.474 27.3525 72.8045 27.5749C73.1349 27.7972 73.3635 28.1413 73.4401 28.5317L73.9472 31.1307C74.0229 31.5212 73.9403 31.9258 73.7176 32.2557C73.4949 32.5856 73.1502 32.8138 72.7591 32.8902Z" fill="#3F3D56"/>
<path d="M71.4395 29.8198L66.4059 30.7983C66.3138 30.8162 66.2184 30.7968 66.1406 30.7445C66.0628 30.6922 66.0091 30.6111 65.9911 30.5192C65.9732 30.4273 65.9926 30.3321 66.045 30.2544C66.0974 30.1768 66.1786 30.1231 66.2707 30.1052L71.3043 29.1267C71.3964 29.1088 71.4918 29.1282 71.5696 29.1805C71.6474 29.2328 71.7011 29.3139 71.719 29.4058C71.737 29.4977 71.7176 29.5929 71.6652 29.6706C71.6128 29.7482 71.5316 29.8019 71.4395 29.8198Z" fill="white"/>
<path d="M70.4609 31.2689L67.8573 31.775C67.7652 31.7929 67.6698 31.7735 67.592 31.7212C67.5143 31.6689 67.4605 31.5878 67.4426 31.4959C67.4246 31.404 67.444 31.3088 67.4964 31.2311C67.5489 31.1535 67.63 31.0998 67.7221 31.0819L70.3257 30.5758C70.3713 30.5669 70.4182 30.5671 70.4637 30.5763C70.5092 30.5856 70.5525 30.6036 70.591 30.6296C70.6295 30.6555 70.6625 30.6887 70.6882 30.7274C70.7138 30.766 70.7316 30.8093 70.7404 30.8548C70.7493 30.9003 70.7491 30.9471 70.7399 30.9926C70.7306 31.038 70.7125 31.0812 70.6866 31.1196C70.6606 31.1581 70.6273 31.191 70.5886 31.2166C70.5499 31.2422 70.5065 31.26 70.4609 31.2689Z" fill="white"/>
<path d="M77.3199 23.8748V25.7282H60.5208V23.8748C60.5207 23.6893 60.5573 23.5056 60.6283 23.3343C60.6994 23.1629 60.8036 23.0072 60.935 22.8761C61.0664 22.7449 61.2223 22.6409 61.394 22.57C61.5656 22.499 61.7496 22.4625 61.9354 22.4626H75.9052C76.091 22.4625 76.275 22.499 76.4467 22.57C76.6183 22.6409 76.7743 22.7449 76.9057 22.8761C77.037 23.0072 77.1413 23.1629 77.2123 23.3343C77.2834 23.5056 77.32 23.6893 77.3199 23.8748Z" fill="#B3B3B3"/>
<path d="M112.379 30.6911L105.492 33.8159L106.397 37.2137C108.143 43.7752 108.606 50.611 107.761 57.3475L112.796 58.3972L116.97 47.7731L115.509 35.6907L112.379 30.6911Z" fill="#0058BF"/>
<path d="M125.891 46.419C121.367 46.419 117.679 49.7025 117.5 53.8142H134.282C134.103 49.7025 130.416 46.419 125.891 46.419Z" fill="#3F3D56"/>
<path d="M122.369 47.1276C122.134 28.5669 111.544 30.2745 111.544 30.2745C111.544 30.2745 111.742 36.0518 111.838 36.2315C118.586 48.9762 107.449 63.9175 93.273 61.1688C93.0057 61.117 92.7489 61.0644 92.5026 61.0111C90.7065 60.6367 89.1206 59.5934 88.0676 58.0934C87.0145 56.5934 86.5735 54.7493 86.8341 52.9361C88.2305 41.7421 81.285 41.9402 81.285 41.9402H71.129L65.8549 37.2019C65.6687 37.0346 65.4443 36.9154 65.2013 36.8547C64.9584 36.7941 64.7042 36.7937 64.4611 36.8537C64.2179 36.9138 63.9932 37.0324 63.8066 37.1991C63.62 37.3659 63.4772 37.5757 63.3906 37.8103L62.712 39.6487C62.712 39.6487 52.6951 40.6903 53.5299 50.4812H56.6267C56.6193 50.7594 56.6304 51.0378 56.6602 51.3145L79.7722 51.1269C81.127 51.1159 82.3228 52.2117 82.3284 53.5641C82.3298 53.8934 82.2647 54.2195 82.1369 54.5231C82.0091 54.8266 81.8212 55.1013 81.5846 55.3307C81.348 55.5601 81.0675 55.7395 80.7599 55.8582C80.4522 55.9769 80.1237 56.0324 79.7941 56.0214L76.0679 55.8974C74.9201 61.0012 77.7374 64.4384 80.8416 66.5997C83.7642 68.6051 87.2322 69.6684 90.7787 69.6463H100.901C114.049 69.6463 116.344 58.6056 116.344 58.6056C123.231 55.6891 122.369 47.1276 122.369 47.1276Z" fill="#3F3D56"/>
<path d="M125.265 75.6875C131.748 75.6875 137.004 70.4413 137.004 63.9697C137.004 57.4981 131.748 52.2519 125.265 52.2519C118.782 52.2519 113.527 57.4981 113.527 63.9697C113.527 70.4413 118.782 75.6875 125.265 75.6875Z" fill="#3F3D56"/>
<path d="M125.265 66.8417C126.854 66.8417 128.142 65.5559 128.142 63.9697C128.142 62.3835 126.854 61.0977 125.265 61.0977C123.676 61.0977 122.388 62.3835 122.388 63.9697C122.388 65.5559 123.676 66.8417 125.265 66.8417Z" fill="white"/>
<path d="M65.9987 75.6875C73.4614 75.6875 79.5111 69.6485 79.5111 62.199C79.5111 54.7495 73.4614 48.7105 65.9987 48.7105C58.536 48.7105 52.4863 54.7495 52.4863 62.199C52.4863 69.6485 58.536 75.6875 65.9987 75.6875Z" fill="#3F3D56"/>
<path d="M65.9986 65.505C67.8277 65.505 69.3105 64.0249 69.3105 62.199C69.3105 60.3732 67.8277 58.893 65.9986 58.893C64.1695 58.893 62.6868 60.3732 62.6868 62.199C62.6868 64.0249 64.1695 65.505 65.9986 65.505Z" fill="white"/>
<path d="M105.512 34.7391L103.034 28.021C102.905 27.6709 102.846 27.2988 102.861 26.926C102.876 26.5532 102.964 26.187 103.121 25.8482C103.278 25.5095 103.5 25.2049 103.774 24.9518C104.049 24.6988 104.371 24.5021 104.722 24.3732L111.825 21.7628C112.443 21.5359 113.098 21.4326 113.756 21.4588C114.413 21.485 115.058 21.6401 115.655 21.9153C116.252 22.1905 116.789 22.5804 117.235 23.0628C117.682 23.5451 118.028 24.1105 118.255 24.7265C118.46 25.2795 118.565 25.8644 118.564 26.454C118.562 27.2026 118.392 27.9412 118.068 28.6161C117.743 29.291 117.272 29.8853 116.689 30.3558C116.267 30.6932 115.794 30.9598 115.286 31.1451L105.512 34.7391Z" fill="#3F3D56"/>
<path d="M118.46 26.4539C118.46 27.1873 118.294 27.9112 117.976 28.5723C117.659 29.2335 117.196 29.8151 116.624 30.2745C115.745 30.0431 114.927 29.6235 114.228 29.0448C113.528 28.4661 112.963 27.7422 112.571 26.9235C112.18 26.1047 111.972 25.2108 111.962 24.3037C111.952 23.3966 112.14 22.4982 112.513 21.671C113.228 21.5156 113.97 21.5222 114.683 21.6903C115.396 21.8585 116.062 22.1839 116.632 22.6426C117.203 23.1013 117.663 23.6818 117.979 24.3413C118.296 25.0008 118.46 25.7227 118.46 26.4539Z" fill="#0058BF"/>
<path d="M55.3037 51.8352C56.9172 51.8352 58.2253 50.2497 58.2253 48.2939C58.2253 46.338 56.9172 44.7525 55.3037 44.7525C53.6901 44.7525 52.3821 46.338 52.3821 48.2939C52.3821 50.2497 53.6901 51.8352 55.3037 51.8352Z" fill="#0058BF"/>
<path d="M108.31 29.962C109.116 29.962 109.77 29.3091 109.77 28.5038C109.77 27.6984 109.116 27.0456 108.31 27.0456C107.503 27.0456 106.849 27.6984 106.849 28.5038C106.849 29.3091 107.503 29.962 108.31 29.962Z" fill="#0058BF"/>
<path d="M173 75.7917C173 75.8469 172.978 75.8998 172.939 75.9388C172.9 75.9778 172.847 75.9998 172.791 76H0.208685C0.153338 76 0.100258 75.978 0.0611223 75.939C0.0219863 75.8999 0 75.8469 0 75.7917C0 75.7364 0.0219863 75.6834 0.0611223 75.6444C0.100258 75.6053 0.153338 75.5833 0.208685 75.5833H172.791C172.847 75.5835 172.9 75.6055 172.939 75.6446C172.978 75.6836 173 75.7365 173 75.7917Z" fill="#3F3D56"/>
</g>
<defs>
<clipPath id="clip0_1727_375">
<rect width="173" height="76" fill="white"/>
</clipPath>
</defs>
</svg>
