<svg width="27" height="22" viewBox="0 0 27 22" fill="none" xmlns="http://www.w3.org/2000/svg">
<path d="M24.3211 4.64351H4.21875C3.75258 4.64351 3.375 4.30764 3.375 3.89295C3.375 3.47826 3.75258 3.14239 4.21875 3.14239H24.4688C24.9349 3.14239 25.3125 2.80651 25.3125 2.39183C25.3125 1.14824 24.1792 0.140137 22.7812 0.140137H3.375C1.51084 0.140137 0 1.48411 0 3.14239V18.1536C0 19.8119 1.51084 21.1559 3.375 21.1559H24.3211C25.7987 21.1559 27 20.1459 27 18.9042V6.8952C27 5.65349 25.7987 4.64351 24.3211 4.64351ZM21.9375 14.4008C21.0057 14.4008 20.25 13.7286 20.25 12.8997C20.25 12.0708 21.0057 11.3986 21.9375 11.3986C22.8693 11.3986 23.625 12.0708 23.625 12.8997C23.625 13.7286 22.8693 14.4008 21.9375 14.4008Z" fill="white"/>
</svg>
